<svg width="238" height="73" viewBox="0 0 238 73" fill="none" xmlns="http://www.w3.org/2000/svg">
<g filter="url(#filter0_d_906_404)">
<path d="M15.088 43V17.08H35.788C36.748 17.08 37.612 17.32 38.38 17.8C39.172 18.256 39.808 18.88 40.288 19.672C40.768 20.44 41.008 21.304 41.008 22.264V37.816C41.008 38.776 40.768 39.652 40.288 40.444C39.808 41.212 39.172 41.836 38.38 42.316C37.612 42.772 36.748 43 35.788 43H15.088ZM20.452 37.78H35.536C35.608 37.78 35.656 37.768 35.68 37.744C35.728 37.696 35.752 37.636 35.752 37.564V22.516C35.752 22.444 35.728 22.396 35.68 22.372C35.656 22.324 35.608 22.3 35.536 22.3H20.452C20.404 22.3 20.356 22.324 20.308 22.372C20.26 22.396 20.236 22.444 20.236 22.516V37.564C20.236 37.636 20.26 37.696 20.308 37.744C20.356 37.768 20.404 37.78 20.452 37.78ZM50.0074 43C49.0954 43 48.2434 42.772 47.4514 42.316C46.6834 41.836 46.0714 41.212 45.6154 40.444C45.1594 39.676 44.9314 38.836 44.9314 37.924V22.12H50.0434V37.672C50.0434 37.72 50.0674 37.768 50.1154 37.816C50.1634 37.864 50.2114 37.888 50.2594 37.888H60.7714C60.8194 37.888 60.8674 37.864 60.9154 37.816C60.9634 37.768 60.9874 37.72 60.9874 37.672V22.12H66.0994V37.924C66.0994 38.836 65.8714 39.676 65.4154 40.444C64.9594 41.212 64.3474 41.836 63.5794 42.316C62.8114 42.772 61.9594 43 61.0234 43H50.0074ZM74.6503 43C73.7383 43 72.8983 42.772 72.1303 42.316C71.3623 41.836 70.7383 41.212 70.2583 40.444C69.8023 39.676 69.5743 38.836 69.5743 37.924V27.196C69.5743 26.284 69.8023 25.444 70.2583 24.676C70.7383 23.908 71.3623 23.296 72.1303 22.84C72.8983 22.36 73.7383 22.12 74.6503 22.12H85.6663C86.6023 22.12 87.4543 22.36 88.2223 22.84C88.9903 23.296 89.6023 23.908 90.0583 24.676C90.5143 25.444 90.7423 26.284 90.7423 27.196V37.924C90.7423 38.836 90.5143 39.676 90.0583 40.444C89.6023 41.212 88.9903 41.836 88.2223 42.316C87.4543 42.772 86.6023 43 85.6663 43H74.6503ZM74.9023 37.888H85.4143C85.4623 37.888 85.5103 37.864 85.5583 37.816C85.6063 37.768 85.6303 37.72 85.6303 37.672V27.448C85.6303 27.4 85.6063 27.352 85.5583 27.304C85.5103 27.256 85.4623 27.232 85.4143 27.232H74.9023C74.8543 27.232 74.8063 27.256 74.7583 27.304C74.7103 27.352 74.6863 27.4 74.6863 27.448V37.672C74.6863 37.72 74.7103 37.768 74.7583 37.816C74.8063 37.864 74.8543 37.888 74.9023 37.888ZM99.0161 43C98.0801 43 97.2281 42.772 96.4601 42.316C95.6921 41.836 95.0681 41.212 94.5881 40.444C94.1321 39.676 93.9041 38.836 93.9041 37.924V15.82H99.0161V22.12H106.972V27.232H99.0161V37.672C99.0161 37.72 99.0401 37.768 99.0881 37.816C99.1361 37.864 99.1841 37.888 99.2321 37.888H106.972V43H99.0161ZM110.604 43V15.28H115.716V22.12H126.696C127.608 22.12 128.448 22.36 129.216 22.84C129.984 23.296 130.596 23.908 131.052 24.676C131.532 25.444 131.772 26.284 131.772 27.196V43H126.66V27.448C126.66 27.4 126.636 27.352 126.588 27.304C126.564 27.256 126.516 27.232 126.444 27.232H115.932C115.884 27.232 115.836 27.256 115.788 27.304C115.74 27.352 115.716 27.4 115.716 27.448V43H110.604ZM139.69 43C138.778 43 137.926 42.772 137.134 42.316C136.366 41.836 135.754 41.212 135.298 40.444C134.842 39.676 134.614 38.836 134.614 37.924V29.968H150.67V27.448C150.67 27.4 150.646 27.352 150.598 27.304C150.55 27.256 150.502 27.232 150.454 27.232H134.614V22.12H150.706C151.642 22.12 152.494 22.36 153.262 22.84C154.03 23.296 154.642 23.908 155.098 24.676C155.554 25.444 155.782 26.284 155.782 27.196V43H139.69ZM139.942 37.888H150.67V34.54H139.726V37.672C139.726 37.72 139.75 37.768 139.798 37.816C139.846 37.864 139.894 37.888 139.942 37.888ZM159.331 43V22.12H175.423C176.359 22.12 177.211 22.36 177.979 22.84C178.747 23.296 179.359 23.908 179.815 24.676C180.271 25.444 180.499 26.284 180.499 27.196V43H175.387V27.448C175.387 27.4 175.363 27.352 175.315 27.304C175.291 27.256 175.243 27.232 175.171 27.232H164.659C164.611 27.232 164.563 27.256 164.515 27.304C164.467 27.352 164.443 27.4 164.443 27.448V43H159.331Z" fill="#E91054"/>
<g filter="url(#filter1_n_906_404)">
<path d="M223 22H186.854L185 23.5V43H221.146L223 41.5V22Z" fill="#F92761"/>
</g>
<path d="M192.776 38C192.386 38 192.031 37.905 191.711 37.715C191.391 37.515 191.131 37.255 190.931 36.935C190.741 36.615 190.646 36.265 190.646 35.885V35.105H192.776V35.78C192.776 35.8 192.786 35.82 192.806 35.84C192.826 35.86 192.846 35.87 192.866 35.87H199.076C199.096 35.87 199.116 35.86 199.136 35.84C199.156 35.82 199.166 35.8 199.166 35.78V33.68C199.166 33.65 199.156 33.63 199.136 33.62C199.116 33.6 199.096 33.59 199.076 33.59H190.646V27.2H201.296V29.33H192.866C192.846 29.33 192.826 29.34 192.806 29.36C192.786 29.38 192.776 29.4 192.776 29.42V31.355C192.776 31.375 192.786 31.395 192.806 31.415C192.826 31.425 192.846 31.43 192.866 31.43H199.166C199.546 31.43 199.896 31.525 200.216 31.715C200.546 31.905 200.806 32.165 200.996 32.495C201.196 32.815 201.296 33.17 201.296 33.56V35.885C201.296 36.265 201.196 36.615 200.996 36.935C200.806 37.255 200.546 37.515 200.216 37.715C199.896 37.905 199.546 38 199.166 38H192.776ZM203.052 38V35.87H205.182V38H203.052ZM208.684 38C208.294 38 207.939 37.895 207.619 37.685C207.299 37.465 207.039 37.185 206.839 36.845C206.649 36.495 206.554 36.13 206.554 35.75V29.375C206.554 28.985 206.649 28.625 206.839 28.295C207.039 27.965 207.299 27.7 207.619 27.5C207.939 27.3 208.294 27.2 208.684 27.2H215.074C215.464 27.2 215.819 27.3 216.139 27.5C216.459 27.7 216.714 27.965 216.904 28.295C217.104 28.625 217.204 28.985 217.204 29.375V35.75C217.204 36.13 217.104 36.495 216.904 36.845C216.714 37.185 216.459 37.465 216.139 37.685C215.819 37.895 215.464 38 215.074 38H208.684ZM209.764 35.735H214.984C215.004 35.735 215.024 35.73 215.044 35.72C215.064 35.7 215.074 35.675 215.074 35.645V31.295L209.764 35.735ZM208.684 33.83L213.994 29.39H208.774C208.754 29.39 208.734 29.4 208.714 29.42C208.694 29.43 208.684 29.45 208.684 29.48V33.83Z" fill="white"/>
<rect x="15" y="46" width="208" height="12" fill="#D9D9D9"/>
<path d="M50.4808 49.3H49.6408V49.11C49.6408 49.01 49.6342 48.9467 49.6208 48.92C49.6142 48.8867 49.5808 48.8467 49.5208 48.8C49.4608 48.7533 49.4142 48.7267 49.3808 48.72C49.3475 48.7067 49.2708 48.7 49.1508 48.7H46.6708C46.5508 48.7 46.4742 48.7067 46.4408 48.72C46.4075 48.7267 46.3608 48.7533 46.3008 48.8C46.2408 48.8467 46.2042 48.8867 46.1908 48.92C46.1842 48.9467 46.1808 49.01 46.1808 49.11V53.89C46.1808 53.99 46.1842 54.0567 46.1908 54.09C46.2042 54.1167 46.2408 54.1533 46.3008 54.2C46.3608 54.2467 46.4075 54.2767 46.4408 54.29C46.4742 54.2967 46.5508 54.3 46.6708 54.3H49.1508C49.2708 54.3 49.3475 54.2967 49.3808 54.29C49.4142 54.2767 49.4608 54.2467 49.5208 54.2C49.5808 54.1533 49.6142 54.1167 49.6208 54.09C49.6342 54.0567 49.6408 53.99 49.6408 53.89V53.7H50.4808V54.1C50.4808 54.3 50.4008 54.4667 50.2408 54.6L50.0008 54.8C49.8408 54.9333 49.6808 55 49.5208 55H46.3008C46.1408 55 45.9808 54.9333 45.8208 54.8L45.5808 54.6C45.4208 54.4667 45.3408 54.3 45.3408 54.1V48.9C45.3408 48.7 45.4208 48.5333 45.5808 48.4L45.8208 48.2C45.9808 48.0667 46.1408 48 46.3008 48H49.5208C49.6808 48 49.8408 48.0667 50.0008 48.2L50.2408 48.4C50.4008 48.5333 50.4808 48.7 50.4808 48.9V49.3ZM51.5717 50H51.9217C52.0417 50 52.1217 50.01 52.1617 50.03C52.2083 50.0433 52.2717 50.0833 52.3517 50.15C52.4583 50.2367 52.5117 50.32 52.5117 50.4H52.5517C52.5517 50.32 52.625 50.2367 52.7717 50.15C52.8917 50.0767 52.9717 50.0333 53.0117 50.02C53.0583 50.0067 53.1417 50 53.2617 50H54.1817C54.3417 50 54.5017 50.0667 54.6617 50.2L54.9017 50.4L54.3017 50.9L54.1817 50.8C54.1217 50.7533 54.075 50.7267 54.0417 50.72C54.0083 50.7067 53.9317 50.7 53.8117 50.7H53.3817C53.2617 50.7 53.1783 50.7067 53.1317 50.72C53.0917 50.7333 53.0117 50.7767 52.8917 50.85C52.7717 50.9233 52.7017 50.9767 52.6817 51.01C52.6617 51.0433 52.6517 51.11 52.6517 51.21V55H51.8117V51.11C51.8117 51.01 51.805 50.9467 51.7917 50.92C51.785 50.8867 51.7517 50.8467 51.6917 50.8C51.6317 50.7533 51.595 50.7167 51.5817 50.69C51.575 50.6567 51.5717 50.59 51.5717 50.49V50ZM59.2714 54.6H59.2314C59.2314 54.68 59.158 54.7633 59.0114 54.85C58.8914 54.9233 58.808 54.9667 58.7614 54.98C58.7214 54.9933 58.6414 55 58.5214 55H56.8114C56.6514 55 56.4914 54.9333 56.3314 54.8L56.0914 54.6C55.9314 54.4667 55.8514 54.3 55.8514 54.1V52.9C55.8514 52.7 55.9314 52.5333 56.0914 52.4L56.3314 52.2C56.4914 52.0667 56.6514 52 56.8114 52H58.6014C58.728 52 58.808 52.0067 58.8414 52.02C58.8747 52.0267 58.918 52.0533 58.9714 52.1C59.0514 52.1667 59.0914 52.2333 59.0914 52.3H59.1314V51.11C59.1314 51.01 59.1247 50.9467 59.1114 50.92C59.1047 50.8867 59.0714 50.8467 59.0114 50.8C58.9514 50.7533 58.9047 50.7267 58.8714 50.72C58.838 50.7067 58.7614 50.7 58.6414 50.7H57.0214C56.9014 50.7 56.818 50.71 56.7714 50.73C56.7314 50.7433 56.6514 50.8 56.5314 50.9L55.9314 50.4L56.1714 50.2C56.2914 50.1 56.3714 50.0433 56.4114 50.03C56.458 50.01 56.5414 50 56.6614 50H59.0114C59.1714 50 59.3314 50.0667 59.4914 50.2L59.7314 50.4C59.8914 50.5333 59.9714 50.7 59.9714 50.9V53.89C59.9714 53.99 59.9747 54.0567 59.9814 54.09C59.9947 54.1167 60.0314 54.1533 60.0914 54.2C60.1514 54.2467 60.1847 54.2867 60.1914 54.32C60.2047 54.3467 60.2114 54.41 60.2114 54.51V55H59.8614C59.7414 55 59.658 54.9933 59.6114 54.98C59.5714 54.96 59.5114 54.9167 59.4314 54.85C59.3247 54.7633 59.2714 54.68 59.2714 54.6ZM56.6914 53.11V53.89C56.6914 53.99 56.6947 54.0567 56.7014 54.09C56.7147 54.1167 56.7514 54.1533 56.8114 54.2C56.8714 54.2467 56.918 54.2767 56.9514 54.29C56.9847 54.2967 57.0614 54.3 57.1814 54.3H58.4014C58.5214 54.3 58.6014 54.2933 58.6414 54.28C58.688 54.2667 58.7714 54.2233 58.8914 54.15C59.0114 54.0767 59.0814 54.0233 59.1014 53.99C59.1214 53.9567 59.1314 53.89 59.1314 53.79V53.11C59.1314 53.01 59.1247 52.9467 59.1114 52.92C59.1047 52.8867 59.0714 52.8467 59.0114 52.8C58.9514 52.7533 58.9047 52.7267 58.8714 52.72C58.838 52.7067 58.7614 52.7 58.6414 52.7H57.1814C57.0614 52.7 56.9847 52.7067 56.9514 52.72C56.918 52.7267 56.8714 52.7533 56.8114 52.8C56.7514 52.8467 56.7147 52.8867 56.7014 52.92C56.6947 52.9467 56.6914 53.01 56.6914 53.11ZM65.4154 51.3H64.5754V51.11C64.5754 51.01 64.5688 50.9467 64.5554 50.92C64.5488 50.8867 64.5154 50.8467 64.4554 50.8C64.3954 50.7533 64.3488 50.7267 64.3154 50.72C64.2821 50.7067 64.2054 50.7 64.0854 50.7H62.7454C62.6254 50.7 62.5488 50.7067 62.5154 50.72C62.4821 50.7267 62.4354 50.7533 62.3754 50.8C62.3154 50.8467 62.2788 50.8867 62.2654 50.92C62.2588 50.9467 62.2554 51.01 62.2554 51.11V53.89C62.2554 53.99 62.2588 54.0567 62.2654 54.09C62.2788 54.1167 62.3154 54.1533 62.3754 54.2C62.4354 54.2467 62.4821 54.2767 62.5154 54.29C62.5488 54.2967 62.6254 54.3 62.7454 54.3H64.0854C64.2054 54.3 64.2821 54.2967 64.3154 54.29C64.3488 54.2767 64.3954 54.2467 64.4554 54.2C64.5154 54.1533 64.5488 54.1167 64.5554 54.09C64.5688 54.0567 64.5754 53.99 64.5754 53.89V53.7H65.4154V54.1C65.4154 54.3 65.3354 54.4667 65.1754 54.6L64.9354 54.8C64.7754 54.9333 64.6154 55 64.4554 55H62.3754C62.2154 55 62.0554 54.9333 61.8954 54.8L61.6554 54.6C61.4954 54.4667 61.4154 54.3 61.4154 54.1V50.9C61.4154 50.7 61.4954 50.5333 61.6554 50.4L61.8954 50.2C62.0554 50.0667 62.2154 50 62.3754 50H64.4554C64.6154 50 64.7754 50.0667 64.9354 50.2L65.1754 50.4C65.3354 50.5333 65.4154 50.7 65.4154 50.9V51.3ZM66.5619 55V47.6H67.4019V52.15H68.2419L69.1419 50.68C69.2152 50.5667 69.2686 50.49 69.3019 50.45C69.3419 50.41 69.4119 50.3533 69.5119 50.28L69.7019 50.15C69.8086 50.0767 69.8819 50.0333 69.9219 50.02C69.9686 50.0067 70.0519 50 70.1719 50H70.3719V50.39C70.3719 50.5433 70.3619 50.64 70.3419 50.68C70.3219 50.7133 70.2519 50.7633 70.1319 50.83L70.0219 50.89C69.9219 50.95 69.8552 51 69.8219 51.04C69.7886 51.0733 69.7319 51.1467 69.6519 51.26L69.0019 52.27C68.9419 52.3633 68.8819 52.4267 68.8219 52.46V52.5C68.8819 52.5133 68.9586 52.59 69.0519 52.73L70.5119 55H69.5819L68.2519 52.85H67.4019V55H66.5619ZM75.2119 48.6V50H76.4919C76.5786 50.0667 76.6286 50.12 76.6419 50.16C76.6619 50.1933 76.6719 50.2867 76.6719 50.44V50.7H75.2119V53.89C75.2119 53.99 75.2152 54.0567 75.2219 54.09C75.2352 54.1167 75.2719 54.1533 75.3319 54.2C75.3919 54.2467 75.4386 54.2767 75.4719 54.29C75.5052 54.2967 75.5819 54.3 75.7019 54.3H76.6119C76.6986 54.3667 76.7486 54.42 76.7619 54.46C76.7819 54.4933 76.7919 54.5867 76.7919 54.74V55H75.3319C75.1719 55 75.0119 54.9333 74.8519 54.8L74.6119 54.6C74.4519 54.4667 74.3719 54.3 74.3719 54.1V50.7H73.8919C73.8052 50.6333 73.7519 50.5833 73.7319 50.55C73.7186 50.51 73.7119 50.4133 73.7119 50.26V50H74.3719V48.6H75.2119ZM79.3212 50H81.0712C81.2312 50 81.3912 50.0667 81.5512 50.2L81.7912 50.4C81.9512 50.5333 82.0312 50.7 82.0312 50.9V55H81.1912V51.11C81.1912 51.01 81.1845 50.9467 81.1712 50.92C81.1645 50.8867 81.1312 50.8467 81.0712 50.8C81.0112 50.7533 80.9645 50.7267 80.9312 50.72C80.8979 50.7067 80.8212 50.7 80.7012 50.7H79.4212C79.2945 50.7 79.2079 50.7067 79.1612 50.72C79.1212 50.7333 79.0412 50.7767 78.9212 50.85C78.8012 50.9233 78.7312 50.9767 78.7112 51.01C78.6912 51.0433 78.6812 51.11 78.6812 51.21V55H77.8412V47.6H78.6812V50.47H78.7212C78.7212 50.41 78.7945 50.3167 78.9412 50.19C79.0879 50.0633 79.2145 50 79.3212 50ZM86.9918 54.1L87.5918 54.6L87.3518 54.8C87.2318 54.9 87.1485 54.96 87.1018 54.98C87.0618 54.9933 86.9818 55 86.8618 55H84.1918C84.0318 55 83.8718 54.9333 83.7118 54.8L83.4718 54.6C83.3118 54.4667 83.2318 54.3 83.2318 54.1V50.9C83.2318 50.7 83.3118 50.5333 83.4718 50.4L83.7118 50.2C83.8718 50.0667 84.0318 50 84.1918 50H86.5218C86.6552 50 86.8152 50.0667 87.0018 50.2L87.2518 50.4C87.4118 50.52 87.4918 50.6867 87.4918 50.9V52.95H84.0718V53.89C84.0718 53.99 84.0752 54.0567 84.0818 54.09C84.0952 54.1167 84.1318 54.1533 84.1918 54.2C84.2518 54.2467 84.2985 54.2767 84.3318 54.29C84.3652 54.2967 84.4418 54.3 84.5618 54.3H86.5018C86.6218 54.3 86.7018 54.2933 86.7418 54.28C86.7885 54.26 86.8718 54.2 86.9918 54.1ZM86.6518 52.3V51.11C86.6518 51.01 86.6452 50.9467 86.6318 50.92C86.6252 50.8867 86.5918 50.8467 86.5318 50.8C86.4718 50.7533 86.4252 50.7267 86.3918 50.72C86.3585 50.7067 86.2818 50.7 86.1618 50.7H84.5618C84.4418 50.7 84.3652 50.7067 84.3318 50.72C84.2985 50.7267 84.2518 50.7533 84.1918 50.8C84.1318 50.8467 84.0952 50.8867 84.0818 50.92C84.0752 50.9467 84.0718 51.01 84.0718 51.11V52.3H86.6518ZM95.1908 51.3H94.3508V51.11C94.3508 51.01 94.3442 50.9467 94.3308 50.92C94.3242 50.8867 94.2908 50.8467 94.2308 50.8C94.1708 50.7533 94.1242 50.7267 94.0908 50.72C94.0575 50.7067 93.9808 50.7 93.8608 50.7H92.5208C92.4008 50.7 92.3242 50.7067 92.2908 50.72C92.2575 50.7267 92.2108 50.7533 92.1508 50.8C92.0908 50.8467 92.0542 50.8867 92.0408 50.92C92.0342 50.9467 92.0308 51.01 92.0308 51.11V53.89C92.0308 53.99 92.0342 54.0567 92.0408 54.09C92.0542 54.1167 92.0908 54.1533 92.1508 54.2C92.2108 54.2467 92.2575 54.2767 92.2908 54.29C92.3242 54.2967 92.4008 54.3 92.5208 54.3H93.8608C93.9808 54.3 94.0575 54.2967 94.0908 54.29C94.1242 54.2767 94.1708 54.2467 94.2308 54.2C94.2908 54.1533 94.3242 54.1167 94.3308 54.09C94.3442 54.0567 94.3508 53.99 94.3508 53.89V53.7H95.1908V54.1C95.1908 54.3 95.1108 54.4667 94.9508 54.6L94.7108 54.8C94.5508 54.9333 94.3908 55 94.2308 55H92.1508C91.9908 55 91.8308 54.9333 91.6708 54.8L91.4308 54.6C91.2708 54.4667 91.1908 54.3 91.1908 54.1V50.9C91.1908 50.7 91.2708 50.5333 91.4308 50.4L91.6708 50.2C91.8308 50.0667 91.9908 50 92.1508 50H94.2308C94.3908 50 94.5508 50.0667 94.7108 50.2L94.9508 50.4C95.1108 50.5333 95.1908 50.7 95.1908 50.9V51.3ZM97.3073 50H99.7073C99.8673 50 100.027 50.0667 100.187 50.2L100.427 50.4C100.587 50.5333 100.667 50.7 100.667 50.9V54.1C100.667 54.3 100.587 54.4667 100.427 54.6L100.187 54.8C100.027 54.9333 99.8673 55 99.7073 55H97.3073C97.1473 55 96.9873 54.9333 96.8273 54.8L96.5873 54.6C96.4273 54.4667 96.3473 54.3 96.3473 54.1V50.9C96.3473 50.7 96.4273 50.5333 96.5873 50.4L96.8273 50.2C96.9873 50.0667 97.1473 50 97.3073 50ZM99.8273 53.89V51.11C99.8273 51.01 99.8206 50.9467 99.8073 50.92C99.8006 50.8867 99.7673 50.8467 99.7073 50.8C99.6473 50.7533 99.6006 50.7267 99.5673 50.72C99.534 50.7067 99.4573 50.7 99.3373 50.7H97.6773C97.5573 50.7 97.4806 50.7067 97.4473 50.72C97.414 50.7267 97.3673 50.7533 97.3073 50.8C97.2473 50.8467 97.2106 50.8867 97.1973 50.92C97.1906 50.9467 97.1873 51.01 97.1873 51.11V53.89C97.1873 53.99 97.1906 54.0567 97.1973 54.09C97.2106 54.1167 97.2473 54.1533 97.3073 54.2C97.3673 54.2467 97.414 54.2767 97.4473 54.29C97.4806 54.2967 97.5573 54.3 97.6773 54.3H99.3373C99.4573 54.3 99.534 54.2967 99.5673 54.29C99.6006 54.2767 99.6473 54.2467 99.7073 54.2C99.7673 54.1533 99.8006 54.1167 99.8073 54.09C99.8206 54.0567 99.8273 53.99 99.8273 53.89ZM104.634 50.7H103.204C103.084 50.7 103.008 50.7067 102.974 50.72C102.941 50.7267 102.894 50.7533 102.834 50.8C102.774 50.8467 102.738 50.8867 102.724 50.92C102.718 50.9467 102.714 51.01 102.714 51.11V53.89C102.714 53.99 102.718 54.0567 102.724 54.09C102.738 54.1167 102.774 54.1533 102.834 54.2C102.894 54.2467 102.941 54.2767 102.974 54.29C103.008 54.2967 103.084 54.3 103.204 54.3H104.624C104.744 54.3 104.824 54.2933 104.864 54.28C104.911 54.2667 104.994 54.2233 105.114 54.15C105.234 54.0767 105.304 54.0233 105.324 53.99C105.344 53.9567 105.354 53.89 105.354 53.79V51.3C105.354 51.1667 105.274 51.0333 105.114 50.9C104.954 50.7667 104.794 50.7 104.634 50.7ZM104.744 55H102.834C102.674 55 102.514 54.9333 102.354 54.8L102.114 54.6C101.954 54.4667 101.874 54.3 101.874 54.1V50.9C101.874 50.7 101.954 50.5333 102.114 50.4L102.354 50.2C102.514 50.0667 102.674 50 102.834 50H104.594C104.754 50 104.914 50.0667 105.074 50.2C105.234 50.36 105.314 50.46 105.314 50.5H105.354V47.6H106.194V53.89C106.194 53.99 106.198 54.0567 106.204 54.09C106.218 54.1167 106.254 54.1533 106.314 54.2C106.374 54.2467 106.408 54.2867 106.414 54.32C106.428 54.3467 106.434 54.41 106.434 54.51V55H106.084C105.964 55 105.881 54.9933 105.834 54.98C105.794 54.96 105.734 54.9167 105.654 54.85C105.548 54.7633 105.494 54.68 105.494 54.6H105.454C105.454 54.68 105.381 54.7633 105.234 54.85C105.114 54.9233 105.031 54.9667 104.984 54.98C104.944 54.9933 104.864 55 104.744 55ZM111.396 54.1L111.996 54.6L111.756 54.8C111.636 54.9 111.553 54.96 111.506 54.98C111.466 54.9933 111.386 55 111.266 55H108.596C108.436 55 108.276 54.9333 108.116 54.8L107.876 54.6C107.716 54.4667 107.636 54.3 107.636 54.1V50.9C107.636 50.7 107.716 50.5333 107.876 50.4L108.116 50.2C108.276 50.0667 108.436 50 108.596 50H110.926C111.059 50 111.219 50.0667 111.406 50.2L111.656 50.4C111.816 50.52 111.896 50.6867 111.896 50.9V52.95H108.476V53.89C108.476 53.99 108.479 54.0567 108.486 54.09C108.499 54.1167 108.536 54.1533 108.596 54.2C108.656 54.2467 108.703 54.2767 108.736 54.29C108.769 54.2967 108.846 54.3 108.966 54.3H110.906C111.026 54.3 111.106 54.2933 111.146 54.28C111.193 54.26 111.276 54.2 111.396 54.1ZM111.056 52.3V51.11C111.056 51.01 111.049 50.9467 111.036 50.92C111.029 50.8867 110.996 50.8467 110.936 50.8C110.876 50.7533 110.829 50.7267 110.796 50.72C110.763 50.7067 110.686 50.7 110.566 50.7H108.966C108.846 50.7 108.769 50.7067 108.736 50.72C108.703 50.7267 108.656 50.7533 108.596 50.8C108.536 50.8467 108.499 50.8867 108.486 50.92C108.479 50.9467 108.476 51.01 108.476 51.11V52.3H111.056ZM113.875 55.1L113.635 56.2L113.335 56V55C113.282 55 113.228 54.9733 113.175 54.92C113.135 54.8867 113.112 54.8567 113.105 54.83C113.098 54.7967 113.095 54.7233 113.095 54.61V54.44C113.095 54.28 113.122 54.1733 113.175 54.12C113.228 54.0733 113.338 54.05 113.505 54.05C113.685 54.05 113.802 54.0733 113.855 54.12C113.908 54.1733 113.935 54.28 113.935 54.44V54.61C113.935 54.77 113.915 54.9333 113.875 55.1ZM123.176 49.3H122.336V49.11C122.336 49.01 122.329 48.9467 122.316 48.92C122.309 48.8867 122.276 48.8467 122.216 48.8C122.156 48.7533 122.109 48.7267 122.076 48.72C122.043 48.7067 121.966 48.7 121.846 48.7H119.366C119.246 48.7 119.169 48.7067 119.136 48.72C119.103 48.7267 119.056 48.7533 118.996 48.8C118.936 48.8467 118.899 48.8867 118.886 48.92C118.879 48.9467 118.876 49.01 118.876 49.11V53.89C118.876 53.99 118.879 54.0567 118.886 54.09C118.899 54.1167 118.936 54.1533 118.996 54.2C119.056 54.2467 119.103 54.2767 119.136 54.29C119.169 54.2967 119.246 54.3 119.366 54.3H121.846C121.966 54.3 122.043 54.2967 122.076 54.29C122.109 54.2767 122.156 54.2467 122.216 54.2C122.276 54.1533 122.309 54.1167 122.316 54.09C122.329 54.0567 122.336 53.99 122.336 53.89V53.7H123.176V54.1C123.176 54.3 123.096 54.4667 122.936 54.6L122.696 54.8C122.536 54.9333 122.376 55 122.216 55H118.996C118.836 55 118.676 54.9333 118.516 54.8L118.276 54.6C118.116 54.4667 118.036 54.3 118.036 54.1V48.9C118.036 48.7 118.116 48.5333 118.276 48.4L118.516 48.2C118.676 48.0667 118.836 48 118.996 48H122.216C122.376 48 122.536 48.0667 122.696 48.2L122.936 48.4C123.096 48.5333 123.176 48.7 123.176 48.9V49.3ZM124.267 50H124.617C124.737 50 124.817 50.01 124.857 50.03C124.904 50.0433 124.967 50.0833 125.047 50.15C125.154 50.2367 125.207 50.32 125.207 50.4H125.247C125.247 50.32 125.32 50.2367 125.467 50.15C125.587 50.0767 125.667 50.0333 125.707 50.02C125.754 50.0067 125.837 50 125.957 50H126.877C127.037 50 127.197 50.0667 127.357 50.2L127.597 50.4L126.997 50.9L126.877 50.8C126.817 50.7533 126.77 50.7267 126.737 50.72C126.704 50.7067 126.627 50.7 126.507 50.7H126.077C125.957 50.7 125.874 50.7067 125.827 50.72C125.787 50.7333 125.707 50.7767 125.587 50.85C125.467 50.9233 125.397 50.9767 125.377 51.01C125.357 51.0433 125.347 51.11 125.347 51.21V55H124.507V51.11C124.507 51.01 124.5 50.9467 124.487 50.92C124.48 50.8867 124.447 50.8467 124.387 50.8C124.327 50.7533 124.29 50.7167 124.277 50.69C124.27 50.6567 124.267 50.59 124.267 50.49V50ZM132.207 54.1L132.807 54.6L132.567 54.8C132.447 54.9 132.363 54.96 132.317 54.98C132.277 54.9933 132.197 55 132.077 55H129.407C129.247 55 129.087 54.9333 128.927 54.8L128.687 54.6C128.527 54.4667 128.447 54.3 128.447 54.1V50.9C128.447 50.7 128.527 50.5333 128.687 50.4L128.927 50.2C129.087 50.0667 129.247 50 129.407 50H131.737C131.87 50 132.03 50.0667 132.217 50.2L132.467 50.4C132.627 50.52 132.707 50.6867 132.707 50.9V52.95H129.287V53.89C129.287 53.99 129.29 54.0567 129.297 54.09C129.31 54.1167 129.347 54.1533 129.407 54.2C129.467 54.2467 129.513 54.2767 129.547 54.29C129.58 54.2967 129.657 54.3 129.777 54.3H131.717C131.837 54.3 131.917 54.2933 131.957 54.28C132.003 54.26 132.087 54.2 132.207 54.1ZM131.867 52.3V51.11C131.867 51.01 131.86 50.9467 131.847 50.92C131.84 50.8867 131.807 50.8467 131.747 50.8C131.687 50.7533 131.64 50.7267 131.607 50.72C131.573 50.7067 131.497 50.7 131.377 50.7H129.777C129.657 50.7 129.58 50.7067 129.547 50.72C129.513 50.7267 129.467 50.7533 129.407 50.8C129.347 50.8467 129.31 50.8867 129.297 50.92C129.29 50.9467 129.287 51.01 129.287 51.11V52.3H131.867ZM137.426 54.6H137.386C137.386 54.68 137.312 54.7633 137.166 54.85C137.046 54.9233 136.962 54.9667 136.916 54.98C136.876 54.9933 136.796 55 136.676 55H134.966C134.806 55 134.646 54.9333 134.486 54.8L134.246 54.6C134.086 54.4667 134.006 54.3 134.006 54.1V52.9C134.006 52.7 134.086 52.5333 134.246 52.4L134.486 52.2C134.646 52.0667 134.806 52 134.966 52H136.756C136.882 52 136.962 52.0067 136.996 52.02C137.029 52.0267 137.072 52.0533 137.126 52.1C137.206 52.1667 137.246 52.2333 137.246 52.3H137.286V51.11C137.286 51.01 137.279 50.9467 137.266 50.92C137.259 50.8867 137.226 50.8467 137.166 50.8C137.106 50.7533 137.059 50.7267 137.026 50.72C136.992 50.7067 136.916 50.7 136.796 50.7H135.176C135.056 50.7 134.972 50.71 134.926 50.73C134.886 50.7433 134.806 50.8 134.686 50.9L134.086 50.4L134.326 50.2C134.446 50.1 134.526 50.0433 134.566 50.03C134.612 50.01 134.696 50 134.816 50H137.166C137.326 50 137.486 50.0667 137.646 50.2L137.886 50.4C138.046 50.5333 138.126 50.7 138.126 50.9V53.89C138.126 53.99 138.129 54.0567 138.136 54.09C138.149 54.1167 138.186 54.1533 138.246 54.2C138.306 54.2467 138.339 54.2867 138.346 54.32C138.359 54.3467 138.366 54.41 138.366 54.51V55H138.016C137.896 55 137.812 54.9933 137.766 54.98C137.726 54.96 137.666 54.9167 137.586 54.85C137.479 54.7633 137.426 54.68 137.426 54.6ZM134.846 53.11V53.89C134.846 53.99 134.849 54.0567 134.856 54.09C134.869 54.1167 134.906 54.1533 134.966 54.2C135.026 54.2467 135.072 54.2767 135.106 54.29C135.139 54.2967 135.216 54.3 135.336 54.3H136.556C136.676 54.3 136.756 54.2933 136.796 54.28C136.842 54.2667 136.926 54.2233 137.046 54.15C137.166 54.0767 137.236 54.0233 137.256 53.99C137.276 53.9567 137.286 53.89 137.286 53.79V53.11C137.286 53.01 137.279 52.9467 137.266 52.92C137.259 52.8867 137.226 52.8467 137.166 52.8C137.106 52.7533 137.059 52.7267 137.026 52.72C136.992 52.7067 136.916 52.7 136.796 52.7H135.336C135.216 52.7 135.139 52.7067 135.106 52.72C135.072 52.7267 135.026 52.7533 134.966 52.8C134.906 52.8467 134.869 52.8867 134.856 52.92C134.849 52.9467 134.846 53.01 134.846 53.11ZM140.72 48.6V50H142C142.086 50.0667 142.136 50.12 142.15 50.16C142.17 50.1933 142.18 50.2867 142.18 50.44V50.7H140.72V53.89C140.72 53.99 140.723 54.0567 140.73 54.09C140.743 54.1167 140.78 54.1533 140.84 54.2C140.9 54.2467 140.946 54.2767 140.98 54.29C141.013 54.2967 141.09 54.3 141.21 54.3H142.12C142.206 54.3667 142.256 54.42 142.27 54.46C142.29 54.4933 142.3 54.5867 142.3 54.74V55H140.84C140.68 55 140.52 54.9333 140.36 54.8L140.12 54.6C139.96 54.4667 139.88 54.3 139.88 54.1V50.7H139.4C139.313 50.6333 139.26 50.5833 139.24 50.55C139.226 50.51 139.22 50.4133 139.22 50.26V50H139.88V48.6H140.72ZM147.109 54.1L147.709 54.6L147.469 54.8C147.349 54.9 147.266 54.96 147.219 54.98C147.179 54.9933 147.099 55 146.979 55H144.309C144.149 55 143.989 54.9333 143.829 54.8L143.589 54.6C143.429 54.4667 143.349 54.3 143.349 54.1V50.9C143.349 50.7 143.429 50.5333 143.589 50.4L143.829 50.2C143.989 50.0667 144.149 50 144.309 50H146.639C146.772 50 146.932 50.0667 147.119 50.2L147.369 50.4C147.529 50.52 147.609 50.6867 147.609 50.9V52.95H144.189V53.89C144.189 53.99 144.192 54.0567 144.199 54.09C144.212 54.1167 144.249 54.1533 144.309 54.2C144.369 54.2467 144.416 54.2767 144.449 54.29C144.482 54.2967 144.559 54.3 144.679 54.3H146.619C146.739 54.3 146.819 54.2933 146.859 54.28C146.906 54.26 146.989 54.2 147.109 54.1ZM146.769 52.3V51.11C146.769 51.01 146.762 50.9467 146.749 50.92C146.742 50.8867 146.709 50.8467 146.649 50.8C146.589 50.7533 146.542 50.7267 146.509 50.72C146.476 50.7067 146.399 50.7 146.279 50.7H144.679C144.559 50.7 144.482 50.7067 144.449 50.72C144.416 50.7267 144.369 50.7533 144.309 50.8C144.249 50.8467 144.212 50.8867 144.199 50.92C144.192 50.9467 144.189 51.01 144.189 51.11V52.3H146.769ZM152.458 48.6V50H153.738C153.825 50.0667 153.875 50.12 153.888 50.16C153.908 50.1933 153.918 50.2867 153.918 50.44V50.7H152.458V53.89C152.458 53.99 152.461 54.0567 152.468 54.09C152.481 54.1167 152.518 54.1533 152.578 54.2C152.638 54.2467 152.685 54.2767 152.718 54.29C152.751 54.2967 152.828 54.3 152.948 54.3H153.858C153.945 54.3667 153.995 54.42 154.008 54.46C154.028 54.4933 154.038 54.5867 154.038 54.74V55H152.578C152.418 55 152.258 54.9333 152.098 54.8L151.858 54.6C151.698 54.4667 151.618 54.3 151.618 54.1V50.7H151.138C151.051 50.6333 150.998 50.5833 150.978 50.55C150.965 50.51 150.958 50.4133 150.958 50.26V50H151.618V48.6H152.458ZM156.567 50H158.317C158.477 50 158.637 50.0667 158.797 50.2L159.037 50.4C159.197 50.5333 159.277 50.7 159.277 50.9V55H158.437V51.11C158.437 51.01 158.431 50.9467 158.417 50.92C158.411 50.8867 158.377 50.8467 158.317 50.8C158.257 50.7533 158.211 50.7267 158.177 50.72C158.144 50.7067 158.067 50.7 157.947 50.7H156.667C156.541 50.7 156.454 50.7067 156.407 50.72C156.367 50.7333 156.287 50.7767 156.167 50.85C156.047 50.9233 155.977 50.9767 155.957 51.01C155.937 51.0433 155.927 51.11 155.927 51.21V55H155.087V47.6H155.927V50.47H155.967C155.967 50.41 156.041 50.3167 156.187 50.19C156.334 50.0633 156.461 50 156.567 50ZM164.238 54.1L164.838 54.6L164.598 54.8C164.478 54.9 164.395 54.96 164.348 54.98C164.308 54.9933 164.228 55 164.108 55H161.438C161.278 55 161.118 54.9333 160.958 54.8L160.718 54.6C160.558 54.4667 160.478 54.3 160.478 54.1V50.9C160.478 50.7 160.558 50.5333 160.718 50.4L160.958 50.2C161.118 50.0667 161.278 50 161.438 50H163.768C163.901 50 164.061 50.0667 164.248 50.2L164.498 50.4C164.658 50.52 164.738 50.6867 164.738 50.9V52.95H161.318V53.89C161.318 53.99 161.321 54.0567 161.328 54.09C161.341 54.1167 161.378 54.1533 161.438 54.2C161.498 54.2467 161.545 54.2767 161.578 54.29C161.611 54.2967 161.688 54.3 161.808 54.3H163.748C163.868 54.3 163.948 54.2933 163.988 54.28C164.035 54.26 164.118 54.2 164.238 54.1ZM163.898 52.3V51.11C163.898 51.01 163.891 50.9467 163.878 50.92C163.871 50.8867 163.838 50.8467 163.778 50.8C163.718 50.7533 163.671 50.7267 163.638 50.72C163.605 50.7067 163.528 50.7 163.408 50.7H161.808C161.688 50.7 161.611 50.7067 161.578 50.72C161.545 50.7267 161.498 50.7533 161.438 50.8C161.378 50.8467 161.341 50.8867 161.328 50.92C161.321 50.9467 161.318 51.01 161.318 51.11V52.3H163.898ZM168.907 50.7H168.367C168.28 50.6333 168.227 50.5833 168.207 50.55C168.194 50.51 168.187 50.4133 168.187 50.26V50H168.907V48.74C168.907 48.54 168.987 48.3733 169.147 48.24L169.387 48.04C169.547 47.9067 169.707 47.84 169.867 47.84H171.067C171.154 47.9067 171.204 47.96 171.217 48C171.237 48.0333 171.247 48.1267 171.247 48.28V48.54H170.177C170.05 48.54 169.947 48.5733 169.867 48.64C169.807 48.6867 169.77 48.7267 169.757 48.76C169.75 48.7867 169.747 48.85 169.747 48.95V50H170.867C170.954 50.0667 171.004 50.12 171.017 50.16C171.037 50.1933 171.047 50.2867 171.047 50.44V50.7H169.747V55H168.907V50.7ZM174.531 55H172.961C172.801 55 172.641 54.9333 172.481 54.8L172.241 54.6C172.081 54.4667 172.001 54.3 172.001 54.1V50H172.841V53.89C172.841 53.99 172.845 54.0567 172.851 54.09C172.865 54.1167 172.901 54.1533 172.961 54.2C173.021 54.2467 173.068 54.2767 173.101 54.29C173.135 54.2967 173.211 54.3 173.331 54.3H174.411C174.531 54.3 174.611 54.2933 174.651 54.28C174.698 54.2667 174.781 54.2233 174.901 54.15C175.021 54.0767 175.091 54.0233 175.111 53.99C175.131 53.9567 175.141 53.89 175.141 53.79V50H175.981V53.89C175.981 53.99 175.985 54.0567 175.991 54.09C176.005 54.1167 176.041 54.1533 176.101 54.2C176.161 54.2467 176.195 54.2867 176.201 54.32C176.215 54.3467 176.221 54.41 176.221 54.51V55H175.871C175.751 55 175.668 54.9933 175.621 54.98C175.581 54.96 175.521 54.9167 175.441 54.85C175.335 54.7633 175.281 54.68 175.281 54.6H175.241C175.241 54.68 175.168 54.7633 175.021 54.85C174.901 54.9233 174.818 54.9667 174.771 54.98C174.731 54.9933 174.651 55 174.531 55ZM178.571 48.6V50H179.851C179.938 50.0667 179.988 50.12 180.001 50.16C180.021 50.1933 180.031 50.2867 180.031 50.44V50.7H178.571V53.89C178.571 53.99 178.575 54.0567 178.581 54.09C178.595 54.1167 178.631 54.1533 178.691 54.2C178.751 54.2467 178.798 54.2767 178.831 54.29C178.865 54.2967 178.941 54.3 179.061 54.3H179.971C180.058 54.3667 180.108 54.42 180.121 54.46C180.141 54.4933 180.151 54.5867 180.151 54.74V55H178.691C178.531 55 178.371 54.9333 178.211 54.8L177.971 54.6C177.811 54.4667 177.731 54.3 177.731 54.1V50.7H177.251C177.165 50.6333 177.111 50.5833 177.091 50.55C177.078 50.51 177.071 50.4133 177.071 50.26V50H177.731V48.6H178.571ZM183.731 55H182.161C182.001 55 181.841 54.9333 181.681 54.8L181.441 54.6C181.281 54.4667 181.201 54.3 181.201 54.1V50H182.041V53.89C182.041 53.99 182.044 54.0567 182.051 54.09C182.064 54.1167 182.101 54.1533 182.161 54.2C182.221 54.2467 182.267 54.2767 182.301 54.29C182.334 54.2967 182.411 54.3 182.531 54.3H183.611C183.731 54.3 183.811 54.2933 183.851 54.28C183.897 54.2667 183.981 54.2233 184.101 54.15C184.221 54.0767 184.291 54.0233 184.311 53.99C184.331 53.9567 184.341 53.89 184.341 53.79V50H185.181V53.89C185.181 53.99 185.184 54.0567 185.191 54.09C185.204 54.1167 185.241 54.1533 185.301 54.2C185.361 54.2467 185.394 54.2867 185.401 54.32C185.414 54.3467 185.421 54.41 185.421 54.51V55H185.071C184.951 55 184.867 54.9933 184.821 54.98C184.781 54.96 184.721 54.9167 184.641 54.85C184.534 54.7633 184.481 54.68 184.481 54.6H184.441C184.441 54.68 184.367 54.7633 184.221 54.85C184.101 54.9233 184.017 54.9667 183.971 54.98C183.931 54.9933 183.851 55 183.731 55ZM186.621 50H186.971C187.091 50 187.171 50.01 187.211 50.03C187.257 50.0433 187.321 50.0833 187.401 50.15C187.507 50.2367 187.561 50.32 187.561 50.4H187.601C187.601 50.32 187.674 50.2367 187.821 50.15C187.941 50.0767 188.021 50.0333 188.061 50.02C188.107 50.0067 188.191 50 188.311 50H189.231C189.391 50 189.551 50.0667 189.711 50.2L189.951 50.4L189.351 50.9L189.231 50.8C189.171 50.7533 189.124 50.7267 189.091 50.72C189.057 50.7067 188.981 50.7 188.861 50.7H188.431C188.311 50.7 188.227 50.7067 188.181 50.72C188.141 50.7333 188.061 50.7767 187.941 50.85C187.821 50.9233 187.751 50.9767 187.731 51.01C187.711 51.0433 187.701 51.11 187.701 51.21V55H186.861V51.11C186.861 51.01 186.854 50.9467 186.841 50.92C186.834 50.8867 186.801 50.8467 186.741 50.8C186.681 50.7533 186.644 50.7167 186.631 50.69C186.624 50.6567 186.621 50.59 186.621 50.49V50ZM194.56 54.1L195.16 54.6L194.92 54.8C194.8 54.9 194.717 54.96 194.67 54.98C194.63 54.9933 194.55 55 194.43 55H191.76C191.6 55 191.44 54.9333 191.28 54.8L191.04 54.6C190.88 54.4667 190.8 54.3 190.8 54.1V50.9C190.8 50.7 190.88 50.5333 191.04 50.4L191.28 50.2C191.44 50.0667 191.6 50 191.76 50H194.09C194.224 50 194.384 50.0667 194.57 50.2L194.82 50.4C194.98 50.52 195.06 50.6867 195.06 50.9V52.95H191.64V53.89C191.64 53.99 191.644 54.0567 191.65 54.09C191.664 54.1167 191.7 54.1533 191.76 54.2C191.82 54.2467 191.867 54.2767 191.9 54.29C191.934 54.2967 192.01 54.3 192.13 54.3H194.07C194.19 54.3 194.27 54.2933 194.31 54.28C194.357 54.26 194.44 54.2 194.56 54.1ZM194.22 52.3V51.11C194.22 51.01 194.214 50.9467 194.2 50.92C194.194 50.8867 194.16 50.8467 194.1 50.8C194.04 50.7533 193.994 50.7267 193.96 50.72C193.927 50.7067 193.85 50.7 193.73 50.7H192.13C192.01 50.7 191.934 50.7067 191.9 50.72C191.867 50.7267 191.82 50.7533 191.76 50.8C191.7 50.8467 191.664 50.8867 191.65 50.92C191.644 50.9467 191.64 51.01 191.64 51.11V52.3H194.22Z" fill="#F92761"/>
</g>
<defs>
<filter id="filter0_d_906_404" x="0.6" y="0.879999" width="236.8" height="71.52" filterUnits="userSpaceOnUse" color-interpolation-filters="sRGB">
<feFlood flood-opacity="0" result="BackgroundImageFix"/>
<feColorMatrix in="SourceAlpha" type="matrix" values="0 0 0 0 0 0 0 0 0 0 0 0 0 0 0 0 0 0 127 0" result="hardAlpha"/>
<feOffset/>
<feGaussianBlur stdDeviation="7.2"/>
<feComposite in2="hardAlpha" operator="out"/>
<feColorMatrix type="matrix" values="0 0 0 0 0 0 0 0 0 0 0 0 0 0 0 0 0 0 0.25 0"/>
<feBlend mode="normal" in2="BackgroundImageFix" result="effect1_dropShadow_906_404"/>
<feBlend mode="normal" in="SourceGraphic" in2="effect1_dropShadow_906_404" result="shape"/>
</filter>
<filter id="filter1_n_906_404" x="185" y="22" width="38" height="21" filterUnits="userSpaceOnUse" color-interpolation-filters="sRGB">
<feFlood flood-opacity="0" result="BackgroundImageFix"/>
<feBlend mode="normal" in="SourceGraphic" in2="BackgroundImageFix" result="shape"/>
<feTurbulence type="fractalNoise" baseFrequency="0.25 0.25" stitchTiles="stitch" numOctaves="3" result="noise" seed="9977" />
<feComponentTransfer in="noise" result="coloredNoise1">
<feFuncR type="linear" slope="2" intercept="-0.5" />
<feFuncG type="linear" slope="2" intercept="-0.5" />
<feFuncB type="linear" slope="2" intercept="-0.5" />
<feFuncA type="discrete" tableValues="1 1 1 1 1 1 1 1 1 1 1 1 1 1 1 1 1 1 1 1 1 1 1 1 1 1 1 1 1 1 1 1 1 1 1 1 1 1 1 1 1 1 1 1 1 1 1 1 1 1 1 0 0 0 0 0 0 0 0 0 0 0 0 0 0 0 0 0 0 0 0 0 0 0 0 0 0 0 0 0 0 0 0 0 0 0 0 0 0 0 0 0 0 0 0 0 0 0 0 0 "/>
</feComponentTransfer>
<feComposite operator="in" in2="shape" in="coloredNoise1" result="noise1Clipped" />
<feComponentTransfer in="noise1Clipped" result="color1">
<feFuncA type="table" tableValues="0 0.15" />
</feComponentTransfer>
<feMerge result="effect1_noise_906_404">
<feMergeNode in="shape" />
<feMergeNode in="color1" />
</feMerge>
</filter>
</defs>
</svg>
