<svg width="525" height="192" viewBox="0 0 525 192" fill="none" xmlns="http://www.w3.org/2000/svg">
<g clip-path="url(#clip0_3_21)">
<path d="M128.232 70.948L128.145 70.8728V71.1804H0.000488281V191.788H433V35.5916H169.152L128.232 70.948Z" fill="#D9D9D9" fill-opacity="0.2"/>
<mask id="mask0_3_21" style="mask-type:luminance" maskUnits="userSpaceOnUse" x="0" y="35" width="433" height="157">
<path d="M128.232 70.948L128.145 70.8728V71.1804H0.000488281V191.788H433V35.5916H169.152L128.232 70.948Z" fill="white"/>
</mask>
<g mask="url(#mask0_3_21)">
<path d="M128.232 70.948L129.525 72.4441L128.231 73.5617L126.938 72.4432L128.232 70.948ZM128.145 70.8728H126.168V66.5478L129.439 69.3776L128.145 70.8728ZM128.145 71.1804H130.122V73.1576H128.145V71.1804ZM0.000483751 71.1804H-1.97668V69.2033H0.000483751V71.1804ZM0.000483751 191.788V193.765H-1.97668V191.788H0.000483751ZM433 191.788H434.978V193.765H433V191.788ZM433 35.5916V33.6144H434.978V35.5916H433ZM169.152 35.5916L167.859 34.0955L168.416 33.6144H169.152V35.5916ZM128.232 70.948L126.938 72.4432L126.851 72.368L128.145 70.8728L129.439 69.3776L129.526 69.4528L128.232 70.948ZM128.145 70.8728H130.122V71.1804H128.145H126.168V70.8728H128.145ZM128.145 71.1804V73.1576H0.000483751V71.1804V69.2033H128.145V71.1804ZM0.000483751 71.1804H1.97766V191.788H0.000483751H-1.97668V71.1804H0.000483751ZM0.000483751 191.788V189.811H433V191.788V193.765H0.000483751V191.788ZM433 191.788H431.023V35.5916H433H434.978V191.788H433ZM433 35.5916V37.5687H169.152V35.5916V33.6144H433V35.5916ZM169.152 35.5916L170.445 37.0876L129.525 72.4441L128.232 70.948L126.939 69.4519L167.859 34.0955L169.152 35.5916Z" fill="#E957DD"/>
</g>
<path d="M0.000244141 53.3865H120.089L164.758 14.7908V0.00268555H0.000244141V53.3865Z" fill="#D9D9D9" fill-opacity="0.2"/>
<mask id="mask1_3_21" style="mask-type:luminance" maskUnits="userSpaceOnUse" x="0" y="0" width="165" height="54">
<path d="M0.000244141 53.3865H120.089L164.758 14.7908V0.00268555H0.000244141V53.3865Z" fill="white"/>
</mask>
<g mask="url(#mask1_3_21)">
<path d="M0.000245452 53.3865V55.3636H-1.97693V53.3865H0.000245452ZM120.089 53.3865L121.382 54.8825L120.825 55.3636H120.089V53.3865ZM164.758 14.7908H166.735V15.6954L166.051 16.2868L164.758 14.7908ZM164.758 0.00267828V-1.97449H166.735V0.00267828H164.758ZM0.000245452 0.00267828H-1.97693V-1.97449H0.000245452V0.00267828ZM0.000245452 53.3865V51.4093H120.089V53.3865V55.3636H0.000245452V53.3865ZM120.089 53.3865L118.796 51.8904L163.465 13.2947L164.758 14.7908L166.051 16.2868L121.382 54.8825L120.089 53.3865ZM164.758 14.7908H162.781V0.00267828H164.758H166.735V14.7908H164.758ZM164.758 0.00267828V1.97984H0.000245452V0.00267828V-1.97449H164.758V0.00267828ZM0.000245452 0.00267828H1.97742V53.3865H0.000245452H-1.97693V0.00267828H0.000245452Z" fill="#69E4FF"/>
</g>
</g>
<g filter="url(#filter2_f_3_21)">
<path d="M433 114.5H480" stroke="#D9D9D9" stroke-opacity="0.47" stroke-width="2" stroke-linecap="round"/>
</g>
<g filter="url(#filter3_f_3_21)">
<path d="M490.887 103L480 113.887L490.887 124.773L501.773 113.887L490.887 103Z" fill="#69E4FF"/>
</g>
<defs>
<filter id="filter2_f_3_21" x="431.5" y="113" width="50" height="3" filterUnits="userSpaceOnUse" color-interpolation-filters="sRGB">
<feFlood flood-opacity="0" result="BackgroundImageFix"/>
<feBlend mode="normal" in="SourceGraphic" in2="BackgroundImageFix" result="shape"/>
<feGaussianBlur stdDeviation="0.25" result="effect1_foregroundBlur_3_21"/>
</filter>
<filter id="filter3_f_3_21" x="474.6" y="97.6" width="32.5732" height="32.5732" filterUnits="userSpaceOnUse" color-interpolation-filters="sRGB">
<feFlood flood-opacity="0" result="BackgroundImageFix"/>
<feBlend mode="normal" in="SourceGraphic" in2="BackgroundImageFix" result="shape"/>
<feGaussianBlur stdDeviation="2.7" result="effect1_foregroundBlur_3_21"/>
</filter>
<clipPath id="clip0_3_21">
<rect width="433" height="192" fill="white"/>
</clipPath>
</defs>
</svg>
