<svg width="561" height="88" viewBox="0 0 561 88" fill="none" xmlns="http://www.w3.org/2000/svg">
<g filter="url(#filter0_d_1004_1382)">
<mask id="path-1-inside-1_1004_1382" fill="white">
<path d="M470.096 50.7695H429.003L385.558 79.6152H174.788L131.343 50.7695H90.3076L4 0H556.404L470.096 50.7695Z"/>
</mask>
<path d="M470.096 50.7695V51.7695H470.368L470.603 51.6315L470.096 50.7695ZM429.003 50.7695V49.7695H428.701L428.45 49.9364L429.003 50.7695ZM385.558 79.6152V80.6152H385.859L386.111 80.4483L385.558 79.6152ZM174.788 79.6152L174.235 80.4483L174.486 80.6152H174.788V79.6152ZM131.343 50.7695L131.896 49.9364L131.645 49.7695H131.343V50.7695ZM90.3076 50.7695L89.8006 51.6315L90.0353 51.7695H90.3076V50.7695ZM4 0V-1H0.327713L3.49298 0.861933L4 0ZM556.404 0L556.911 0.861935L560.077 -1H556.404V0ZM470.096 50.7695V49.7695H429.003V50.7695V51.7695H470.096V50.7695ZM429.003 50.7695L428.45 49.9364L385.004 78.7821L385.558 79.6152L386.111 80.4483L429.556 51.6026L429.003 50.7695ZM385.558 79.6152V78.6152H174.788V79.6152V80.6152H385.558V79.6152ZM174.788 79.6152L175.341 78.7821L131.896 49.9364L131.343 50.7695L130.79 51.6026L174.235 80.4483L174.788 79.6152ZM131.343 50.7695V49.7695H90.3076V50.7695V51.7695H131.343V50.7695ZM90.3076 50.7695L90.8146 49.9076L4.50702 -0.861933L4 0L3.49298 0.861933L89.8006 51.6315L90.3076 50.7695ZM4 0V1H556.404V0V-1H4V0ZM556.404 0L555.897 -0.861935L469.589 49.9076L470.096 50.7695L470.603 51.6315L556.911 0.861935L556.404 0Z" fill="white" fill-opacity="0.52" mask="url(#path-1-inside-1_1004_1382)"/>
</g>
<defs>
<filter id="filter0_d_1004_1382" x="0" y="0" width="560.404" height="87.6152" filterUnits="userSpaceOnUse" color-interpolation-filters="sRGB">
<feFlood flood-opacity="0" result="BackgroundImageFix"/>
<feColorMatrix in="SourceAlpha" type="matrix" values="0 0 0 0 0 0 0 0 0 0 0 0 0 0 0 0 0 0 127 0" result="hardAlpha"/>
<feOffset dy="4"/>
<feGaussianBlur stdDeviation="2"/>
<feComposite in2="hardAlpha" operator="out"/>
<feColorMatrix type="matrix" values="0 0 0 0 0 0 0 0 0 0 0 0 0 0 0 0 0 0 0.25 0"/>
<feBlend mode="normal" in2="BackgroundImageFix" result="effect1_dropShadow_1004_1382"/>
<feBlend mode="normal" in="SourceGraphic" in2="effect1_dropShadow_1004_1382" result="shape"/>
</filter>
</defs>
</svg>
