<svg width="653" height="143" viewBox="0 0 653 143" fill="none" xmlns="http://www.w3.org/2000/svg">
<g filter="url(#filter0_d_1004_1369)">
<mask id="path-1-inside-1_1004_1369" fill="white">
<path d="M602.748 55.3848H602.202L515.894 106.154H474.801L431.355 135H220.586L177.141 106.154H136.105L49.7979 55.3848H49.5137L4 0.883789V0H648.999L602.748 55.3848Z"/>
</mask>
<path d="M602.748 55.3848H602.202L515.894 106.154H474.801L431.355 135H220.586L177.141 106.154H136.105L49.7979 55.3848H49.5137L4 0.883789V0H648.999L602.748 55.3848Z" fill="white" fill-opacity="0.18" shape-rendering="crispEdges"/>
<path d="M602.748 55.3848V56.3848H603.216L603.516 56.0257L602.748 55.3848ZM602.202 55.3848V54.3848H601.93L601.695 54.5228L602.202 55.3848ZM515.894 106.154V107.154H516.166L516.401 107.016L515.894 106.154ZM474.801 106.154V105.154H474.499L474.248 105.321L474.801 106.154ZM431.355 135V136H431.657L431.909 135.833L431.355 135ZM220.586 135L220.033 135.833L220.284 136H220.586V135ZM177.141 106.154L177.694 105.321L177.442 105.154H177.141V106.154ZM136.105 106.154L135.598 107.016L135.833 107.154H136.105V106.154ZM49.7979 55.3848L50.3049 54.5228L50.0702 54.3848H49.7979V55.3848ZM49.5137 55.3848L48.7461 56.0257L49.0459 56.3848H49.5137V55.3848ZM4 0.883789H3V1.24643L3.23245 1.52477L4 0.883789ZM4 0V-1H3V0H4ZM648.999 0L649.767 0.640977L651.137 -1H648.999V0ZM602.748 55.3848V54.3848H602.202V55.3848V56.3848H602.748V55.3848ZM602.202 55.3848L601.695 54.5228L515.387 105.292L515.894 106.154L516.401 107.016L602.709 56.2467L602.202 55.3848ZM515.894 106.154V105.154H474.801V106.154V107.154H515.894V106.154ZM474.801 106.154L474.248 105.321L430.802 134.167L431.355 135L431.909 135.833L475.354 106.987L474.801 106.154ZM431.355 135V134H220.586V135V136H431.355V135ZM220.586 135L221.139 134.167L177.694 105.321L177.141 106.154L176.587 106.987L220.033 135.833L220.586 135ZM177.141 106.154V105.154H136.105V106.154V107.154H177.141V106.154ZM136.105 106.154L136.612 105.292L50.3049 54.5228L49.7979 55.3848L49.2908 56.2467L135.598 107.016L136.105 106.154ZM49.7979 55.3848V54.3848H49.5137V55.3848V56.3848H49.7979V55.3848ZM49.5137 55.3848L50.2812 54.7438L4.76755 0.242806L4 0.883789L3.23245 1.52477L48.7461 56.0257L49.5137 55.3848ZM4 0.883789H5V0H4H3V0.883789H4ZM4 0V1H648.999V0V-1H4V0ZM648.999 0L648.231 -0.640977L601.98 54.7438L602.748 55.3848L603.516 56.0257L649.767 0.640977L648.999 0Z" fill="white" fill-opacity="0.43" mask="url(#path-1-inside-1_1004_1369)"/>
</g>
<defs>
<filter id="filter0_d_1004_1369" x="0" y="0" width="652.999" height="143" filterUnits="userSpaceOnUse" color-interpolation-filters="sRGB">
<feFlood flood-opacity="0" result="BackgroundImageFix"/>
<feColorMatrix in="SourceAlpha" type="matrix" values="0 0 0 0 0 0 0 0 0 0 0 0 0 0 0 0 0 0 127 0" result="hardAlpha"/>
<feOffset dy="4"/>
<feGaussianBlur stdDeviation="2"/>
<feComposite in2="hardAlpha" operator="out"/>
<feColorMatrix type="matrix" values="0 0 0 0 0 0 0 0 0 0 0 0 0 0 0 0 0 0 0.25 0"/>
<feBlend mode="normal" in2="BackgroundImageFix" result="effect1_dropShadow_1004_1369"/>
<feBlend mode="normal" in="SourceGraphic" in2="effect1_dropShadow_1004_1369" result="shape"/>
</filter>
</defs>
</svg>
