<svg width="59" height="775" viewBox="0 0 59 775" fill="none" xmlns="http://www.w3.org/2000/svg">
<path d="M30.1244 85.3802L30.5531 85.8186L30.7375 85.6382V85.3802H30.1244ZM2.22629 112.665L1.79757 112.227L1.33347 112.681L1.8131 113.118L2.22629 112.665ZM30.1244 138.111H30.7375V137.84L30.5376 137.658L30.1244 138.111ZM30.1244 168.461H29.5112V168.729L29.7072 168.911L30.1244 168.461ZM55.8765 192.374L56.3176 192.8L56.7519 192.35L56.2937 191.925L55.8765 192.374ZM30.1244 219.046L29.6833 218.62L29.5112 218.798V219.046H30.1244ZM30.1244 247.557L30.5557 247.993L30.7375 247.813V247.557H30.1244ZM1 276.375L0.568741 275.939L0.118579 276.385L0.578313 276.82L1 276.375ZM30.1244 303.966H30.7375V303.703L30.5461 303.521L30.1244 303.966ZM30.1244 332.478H29.5112V332.749L29.7114 332.931L30.1244 332.478ZM57.7159 357.617L58.1471 358.053L58.6063 357.598L58.1289 357.163L57.7159 357.617ZM30.1244 384.902H29.5112V386.37L30.5555 385.338L30.1244 384.902ZM29.5112 410.653C29.5112 410.992 29.7858 411.266 30.1244 411.266C30.463 411.266 30.7375 410.992 30.7375 410.653H29.5112ZM30.1244 21H29.5112V69.1319H30.1244H30.7375V21H30.1244ZM30.1244 69.1319H29.5112V85.3802H30.1244H30.7375V69.1319H30.1244ZM30.1244 85.3802L29.6957 84.9419L1.79757 112.227L2.22629 112.665L2.65501 113.104L30.5531 85.8186L30.1244 85.3802ZM2.22629 112.665L1.8131 113.118L29.7112 138.564L30.1244 138.111L30.5376 137.658L2.63948 112.212L2.22629 112.665ZM30.1244 138.111H29.5112V168.461H30.1244H30.7375V138.111H30.1244ZM30.1244 168.461L29.7072 168.911L55.4593 192.823L55.8765 192.374L56.2937 191.925L30.5416 168.012L30.1244 168.461ZM55.8765 192.374L55.4354 191.948L29.6833 218.62L30.1244 219.046L30.5655 219.472L56.3176 192.8L55.8765 192.374ZM30.1244 219.046H29.5112V247.557H30.1244H30.7375V219.046H30.1244ZM30.1244 247.557L29.6931 247.121L0.568741 275.939L1 276.375L1.43126 276.811L30.5557 247.993L30.1244 247.557ZM1 276.375L0.578313 276.82L29.7027 304.412L30.1244 303.966L30.5461 303.521L1.42169 275.93L1 276.375ZM30.1244 303.966H29.5112V332.478H30.1244H30.7375V303.966H30.1244ZM30.1244 332.478L29.7114 332.931L57.303 358.07L57.7159 357.617L58.1289 357.163L30.5373 332.025L30.1244 332.478ZM57.7159 357.617L57.2848 357.181L29.6933 384.466L30.1244 384.902L30.5555 385.338L58.1471 358.053L57.7159 357.617ZM30.1244 384.902C30.7375 384.902 30.7375 384.902 30.7375 384.902C30.7375 384.902 30.7375 384.901 30.7375 384.901C30.7375 384.901 30.7375 384.901 30.7375 384.901C30.7375 384.901 30.7375 384.901 30.7375 384.901C30.7375 384.9 30.7375 384.9 30.7375 384.9C30.7375 384.9 30.7375 384.899 30.7375 384.899C30.7375 384.899 30.7375 384.899 30.7375 384.898C30.7375 384.898 30.7375 384.898 30.7375 384.897C30.7375 384.897 30.7375 384.896 30.7375 384.896C30.7375 384.896 30.7375 384.895 30.7375 384.895C30.7375 384.894 30.7375 384.894 30.7375 384.893C30.7375 384.893 30.7375 384.892 30.7375 384.892C30.7375 384.891 30.7375 384.891 30.7375 384.89C30.7375 384.89 30.7375 384.889 30.7375 384.889C30.7375 384.888 30.7375 384.887 30.7375 384.887C30.7375 384.886 30.7375 384.885 30.7375 384.885C30.7375 384.884 30.7375 384.883 30.7375 384.883C30.7375 384.882 30.7375 384.881 30.7375 384.88C30.7375 384.88 30.7375 384.879 30.7375 384.878C30.7375 384.877 30.7375 384.877 30.7375 384.876C30.7375 384.875 30.7375 384.874 30.7375 384.873C30.7375 384.872 30.7375 384.871 30.7375 384.871C30.7375 384.87 30.7375 384.869 30.7375 384.868C30.7375 384.867 30.7375 384.866 30.7375 384.865C30.7375 384.864 30.7375 384.863 30.7375 384.862C30.7375 384.861 30.7375 384.86 30.7375 384.859C30.7375 384.858 30.7375 384.857 30.7375 384.856C30.7375 384.855 30.7375 384.854 30.7375 384.853C30.7375 384.852 30.7375 384.851 30.7375 384.85C30.7375 384.848 30.7375 384.847 30.7375 384.846C30.7375 384.845 30.7375 384.844 30.7375 384.843C30.7375 384.842 30.7375 384.84 30.7375 384.839C30.7375 384.78 30.7375 384.839 30.7375 384.774C30.7375 384.772 30.7375 384.77 30.7375 384.769C30.7375 384.767 30.7375 384.766 30.7375 384.764C30.7375 384.763 30.7375 384.761 30.7375 384.76C30.7375 384.758 30.7375 384.756 30.7375 384.755C30.7375 384.753 30.7375 384.752 30.7375 384.75C30.7375 384.749 30.7375 384.747 30.7375 384.745C30.7375 384.744 30.7375 384.742 30.7375 384.74C30.7375 384.739 30.7375 384.737 30.7375 384.736C30.7375 384.734 30.7375 384.732 30.7375 384.731C30.7375 384.729 30.7375 384.727 30.7375 384.726C30.7375 384.724 30.7375 384.722 30.7375 384.721C30.7375 384.719 30.7375 384.717 30.7375 384.716C30.7375 384.714 30.7375 384.712 30.7375 384.711C30.7375 384.709 30.7375 384.707 30.7375 384.706C30.7375 384.704 30.7375 384.702 30.7375 384.701C30.7375 384.699 30.7375 384.697 30.7375 384.696C30.7375 384.581 30.7375 384.475 30.7375 384.425C30.7375 384.418 30.7375 384.418 30.7375 384.413C30.7375 384.413 30.7375 384.412 30.7375 384.412C30.7375 384.412 30.7375 384.411 30.7375 384.411C30.7375 384.411 30.7375 384.411 30.7375 384.41C30.7375 384.41 30.7375 384.41 30.7375 384.41C30.7375 384.41 30.7375 384.409 30.7375 384.409C30.7375 384.409 30.7375 384.409 30.7375 384.409C30.7375 384.409 30.7375 384.409 30.7375 384.409C30.7375 384.409 30.1244 385.022 29.5112 384.409C29.5112 384.409 29.5112 384.415 29.5112 384.429C29.5112 384.443 29.5112 384.464 29.5112 384.494C29.5112 384.524 29.5112 384.563 29.5112 384.612C29.5112 384.836 29.5112 385.14 29.5112 385.777C29.5112 388.215 29.5112 394.653 29.5112 410.653H30.1244H30.7375C30.7375 394.653 30.7375 388.215 30.7375 385.777C30.7375 385.768 30.7375 385.758 30.7375 385.749C30.7375 385.74 30.7375 385.73 30.7375 385.721C30.7375 385.712 30.7375 385.702 30.7375 385.693C30.7375 385.684 30.7375 385.675 30.7375 385.666C30.7375 385.657 30.7375 385.648 30.7375 385.639C30.7375 385.63 30.7375 385.621 30.7375 385.612C30.7375 385.604 30.7375 385.595 30.7375 385.586C30.7375 385.578 30.7375 385.569 30.7375 385.56C30.7375 385.552 30.7375 385.543 30.7375 385.535C30.7375 385.526 30.7375 385.518 30.7375 385.51C30.7375 385.501 30.7375 385.493 30.7375 385.485C30.7375 385.477 30.7375 385.468 30.7375 385.46C30.7375 385.452 30.7375 385.444 30.7375 385.436C30.7375 385.428 30.7375 385.42 30.7375 385.412C30.7375 385.405 30.7375 385.397 30.7375 385.389C30.7375 385.381 30.7375 385.373 30.7375 385.366C30.7375 385.212 30.7375 385.167 30.7375 385.04C30.7375 384.849 30.7375 384.71 30.7375 384.612C30.7375 384.514 30.7375 384.456 30.7375 384.429C30.7375 384.42 30.7375 384.419 30.7375 384.414C30.7375 384.413 30.7375 384.413 30.7375 384.413C30.7375 384.412 30.7375 384.412 30.7375 384.412C30.7375 384.411 30.7375 384.411 30.7375 384.411C30.7375 384.41 30.7375 384.41 30.7375 384.41C30.7375 384.41 30.7375 384.41 30.7375 384.41C30.7375 384.409 30.7375 384.409 30.7375 384.409C30.7375 384.409 30.7375 384.409 30.7375 384.409C30.7375 384.409 30.7375 384.409 30.7375 384.409C30.1244 383.796 29.5112 384.409 29.5112 384.409C29.5112 384.409 29.5112 384.409 29.5112 384.409C29.5112 384.409 29.5112 384.409 29.5112 384.409C29.5112 384.409 29.5112 384.41 29.5112 384.41C29.5112 384.41 29.5112 384.41 29.5112 384.41C29.5112 384.411 29.5112 384.411 29.5112 384.411C29.5112 384.411 29.5112 384.412 29.5112 384.412C29.5112 384.412 29.5112 384.413 29.5112 384.413C29.5112 384.418 29.5112 384.418 29.5112 384.425C29.5112 384.447 29.5112 384.487 29.5112 384.536C29.5112 384.568 29.5112 384.579 29.5112 384.614C29.5112 384.686 29.5112 384.623 29.5112 384.696C29.5112 384.697 29.5112 384.699 29.5112 384.701C29.5112 384.702 29.5112 384.704 29.5112 384.706C29.5112 384.707 29.5112 384.709 29.5112 384.711C29.5112 384.712 29.5112 384.714 29.5112 384.716C29.5112 384.717 29.5112 384.719 29.5112 384.721C29.5112 384.722 29.5112 384.724 29.5112 384.726C29.5112 384.727 29.5112 384.729 29.5112 384.731C29.5112 384.732 29.5112 384.734 29.5112 384.736C29.5112 384.737 29.5112 384.739 29.5112 384.74C29.5112 384.742 29.5112 384.744 29.5112 384.745C29.5112 384.747 29.5112 384.749 29.5112 384.75C29.5112 384.752 29.5112 384.753 29.5112 384.755C29.5112 384.756 29.5112 384.758 29.5112 384.76C29.5112 384.761 29.5112 384.763 29.5112 384.764C29.5112 384.766 29.5112 384.767 29.5112 384.769C29.5112 384.77 29.5112 384.772 29.5112 384.774C29.5112 384.804 29.5112 384.779 29.5112 384.808C29.5112 384.81 29.5112 384.811 29.5112 384.813C29.5112 384.814 29.5112 384.815 29.5112 384.817C29.5112 384.818 29.5112 384.819 29.5112 384.821C29.5112 384.822 29.5112 384.823 29.5112 384.824C29.5112 384.826 29.5112 384.827 29.5112 384.828C29.5112 384.83 29.5112 384.831 29.5112 384.832C29.5112 384.833 29.5112 384.834 29.5112 384.836C29.5112 384.837 29.5112 384.838 29.5112 384.839C29.5112 384.84 29.5112 384.842 29.5112 384.843C29.5112 384.844 29.5112 384.845 29.5112 384.846C29.5112 384.847 29.5112 384.848 29.5112 384.85C29.5112 384.851 29.5112 384.852 29.5112 384.853C29.5112 384.854 29.5112 384.855 29.5112 384.856C29.5112 384.857 29.5112 384.858 29.5112 384.859C29.5112 384.86 29.5112 384.861 29.5112 384.862C29.5112 384.863 29.5112 384.864 29.5112 384.865C29.5112 384.866 29.5112 384.867 29.5112 384.868C29.5112 384.869 29.5112 384.87 29.5112 384.871C29.5112 384.871 29.5112 384.872 29.5112 384.873C29.5112 384.874 29.5112 384.875 29.5112 384.876C29.5112 384.877 29.5112 384.877 29.5112 384.878C29.5112 384.879 29.5112 384.88 29.5112 384.88C29.5112 384.881 29.5112 384.882 29.5112 384.883C29.5112 384.883 29.5112 384.884 29.5112 384.885C29.5112 384.885 29.5112 384.886 29.5112 384.887C29.5112 384.887 29.5112 384.888 29.5112 384.889C29.5112 384.889 29.5112 384.89 29.5112 384.89C29.5112 384.891 29.5112 384.891 29.5112 384.892C29.5112 384.892 29.5112 384.893 29.5112 384.893C29.5112 384.894 29.5112 384.894 29.5112 384.895C29.5112 384.895 29.5112 384.896 29.5112 384.896C29.5112 384.896 29.5112 384.897 29.5112 384.897C29.5112 384.898 29.5112 384.898 29.5112 384.898C29.5112 384.899 29.5112 384.899 29.5112 384.899C29.5112 384.899 29.5112 384.9 29.5112 384.9C29.5112 384.9 29.5112 384.9 29.5112 384.901C29.5112 384.901 29.5112 384.901 29.5112 384.901C29.5112 384.901 29.5112 384.901 29.5112 384.901C29.5112 384.901 29.5112 384.902 29.5112 384.902C29.5112 384.902 29.5112 384.902 30.1244 384.902Z" fill="#E957DD"/>
<path d="M30.1244 411.533L30.5531 411.972L30.7375 411.791V411.533H30.1244ZM2.22629 438.818L1.79757 438.38L1.33347 438.834L1.8131 439.271L2.22629 438.818ZM30.1244 464.264H30.7375V463.993L30.5376 463.811L30.1244 464.264ZM30.1244 494.614H29.5112V494.882L29.7072 495.064L30.1244 494.614ZM55.8765 518.527L56.3176 518.953L56.7519 518.503L56.2937 518.078L55.8765 518.527ZM30.1244 545.199L29.6833 544.773L29.5112 544.951V545.199H30.1244ZM30.1244 573.71L30.5557 574.146L30.7375 573.966V573.71H30.1244ZM1 602.528L0.568741 602.092L0.118579 602.538L0.578313 602.973L1 602.528ZM30.1244 630.12H30.7375V629.856L30.5461 629.674L30.1244 630.12ZM30.1244 658.631H29.5112V658.902L29.7114 659.084L30.1244 658.631ZM57.7159 683.77L58.1471 684.206L58.6063 683.752L58.1289 683.317L57.7159 683.77ZM30.1244 711.055H29.5112V712.523L30.5555 711.491L30.1244 711.055ZM29.5112 754.153C29.5112 754.492 29.7858 754.766 30.1244 754.766C30.463 754.766 30.7375 754.492 30.7375 754.153H29.5112ZM30.1244 385.153H29.5112V395.285H30.1244H30.7375V385.153H30.1244ZM30.1244 395.285H29.5112V411.533H30.1244H30.7375V395.285H30.1244ZM30.1244 411.533L29.6957 411.095L1.79757 438.38L2.22629 438.818L2.65501 439.257L30.5531 411.972L30.1244 411.533ZM2.22629 438.818L1.8131 439.271L29.7112 464.717L30.1244 464.264L30.5376 463.811L2.63948 438.365L2.22629 438.818ZM30.1244 464.264H29.5112V494.614H30.1244H30.7375V464.264H30.1244ZM30.1244 494.614L29.7072 495.064L55.4593 518.976L55.8765 518.527L56.2937 518.078L30.5416 494.165L30.1244 494.614ZM55.8765 518.527L55.4354 518.101L29.6833 544.773L30.1244 545.199L30.5655 545.625L56.3176 518.953L55.8765 518.527ZM30.1244 545.199H29.5112V573.71H30.1244H30.7375V545.199H30.1244ZM30.1244 573.71L29.6931 573.274L0.568741 602.092L1 602.528L1.43126 602.964L30.5557 574.146L30.1244 573.71ZM1 602.528L0.578313 602.973L29.7027 630.565L30.1244 630.12L30.5461 629.674L1.42169 602.083L1 602.528ZM30.1244 630.12H29.5112V658.631H30.1244H30.7375V630.12H30.1244ZM30.1244 658.631L29.7114 659.084L57.303 684.223L57.7159 683.77L58.1289 683.317L30.5373 658.178L30.1244 658.631ZM57.7159 683.77L57.2848 683.334L29.6933 710.619L30.1244 711.055L30.5555 711.491L58.1471 684.206L57.7159 683.77ZM30.1244 711.055C30.7375 711.055 30.7375 711.055 30.7375 711.055C30.7375 711.055 30.1244 711.055 29.5112 711.055C29.5112 711.055 29.5112 711.055 29.5112 711.055C29.5112 711.055 29.5112 711.055 29.5112 711.055C29.5112 711.055 29.5112 711.055 29.5112 711.055C29.5112 711.055 29.5112 711.055 29.5112 711.055C29.5112 711.055 29.5112 711.055 29.5112 711.055C29.5112 711.055 29.5112 711.055 29.5112 711.055C29.5112 711.055 29.5112 711.055 29.5112 711.055C29.5112 711.055 29.5112 711.055 29.5112 711.055C29.5112 711.055 29.5112 711.055 29.5112 711.056C29.5112 711.056 29.5112 711.056 29.5112 711.056C29.5112 711.056 29.5112 711.056 29.5112 711.056C29.5112 711.056 29.5112 711.056 29.5112 711.056C29.5112 711.056 29.5112 711.056 29.5112 711.056C29.5112 711.057 29.5112 711.057 29.5112 711.057C29.5112 711.057 29.5112 711.057 29.5112 711.057C29.5112 711.057 29.5112 711.057 29.5112 711.057C29.5112 711.058 29.5112 711.058 29.5112 711.058C29.5112 711.058 29.5112 711.058 29.5112 711.058C29.5112 711.059 29.5112 711.059 29.5112 711.059C29.5112 711.059 29.5112 711.059 29.5112 711.059C29.5112 711.06 29.5112 711.06 29.5112 711.06C29.5112 711.06 29.5112 711.061 29.5112 711.061C29.5112 711.061 29.5112 711.061 29.5112 711.061C29.5112 711.062 29.5112 711.062 29.5112 711.062C29.5112 711.062 29.5112 711.063 29.5112 711.063C29.5112 711.063 29.5112 711.064 29.5112 711.064C29.5112 711.064 29.5112 711.065 29.5112 711.065C29.5112 711.065 29.5112 711.065 29.5112 711.066C29.5112 711.066 29.5112 711.067 29.5112 711.067C29.5112 711.067 29.5112 711.068 29.5112 711.068C29.5112 711.068 29.5112 711.069 29.5112 711.069C29.5112 711.07 29.5112 711.07 29.5112 711.07C29.5112 711.071 29.5112 711.071 29.5112 711.072C29.5112 711.072 29.5112 711.073 29.5112 711.073C29.5112 711.074 29.5112 711.074 29.5112 711.075C29.5112 711.075 29.5112 711.076 29.5112 711.076C29.5112 711.077 29.5112 711.077 29.5112 711.078C29.5112 711.078 29.5112 711.079 29.5112 711.08C29.5112 711.08 29.5112 711.081 29.5112 711.081C29.5112 711.082 29.5112 711.083 29.5112 711.083C29.5112 711.084 29.5112 711.085 29.5112 711.085C29.5112 711.086 29.5112 711.087 29.5112 711.087C29.5112 711.088 29.5112 711.089 29.5112 711.089C29.5112 711.09 29.5112 711.091 29.5112 711.092C29.5112 711.092 29.5112 711.093 29.5112 711.094C29.5112 711.095 29.5112 711.096 29.5112 711.096C29.5112 711.097 29.5112 711.098 29.5112 711.099C29.5112 711.1 29.5112 711.101 29.5112 711.102C29.5112 711.103 29.5112 711.103 29.5112 711.104C29.5112 711.105 29.5112 711.106 29.5112 711.107C29.5112 711.108 29.5112 711.109 29.5112 711.11C29.5112 711.111 29.5112 711.112 29.5112 711.113C29.5112 711.114 29.5112 711.115 29.5112 711.116C29.5112 711.117 29.5112 711.119 29.5112 711.12C29.5112 711.121 29.5112 711.122 29.5112 711.123C29.5112 711.124 29.5112 711.125 29.5112 711.127C29.5112 711.128 29.5112 711.129 29.5112 711.13C29.5112 711.131 29.5112 711.133 29.5112 711.134C29.5112 711.135 29.5112 711.136 29.5112 711.138C29.5112 711.139 29.5112 711.14 29.5112 711.142C29.5112 711.143 29.5112 711.144 29.5112 711.146C29.5112 711.147 29.5112 711.149 29.5112 711.15C29.5112 711.152 29.5112 711.153 29.5112 711.154C29.5112 711.156 29.5112 711.157 29.5112 711.159C29.5112 711.16 29.5112 711.162 29.5112 711.164C29.5112 711.165 29.5112 711.167 29.5112 711.168C29.5112 711.17 29.5112 711.172 29.5112 711.173C29.5112 711.175 29.5112 711.177 29.5112 711.178C29.5112 711.18 29.5112 711.182 29.5112 711.183C29.5112 711.185 29.5112 711.187 29.5112 711.189C29.5112 711.191 29.5112 711.192 29.5112 711.194C29.5112 711.196 29.5112 711.198 29.5112 711.2C29.5112 711.202 29.5112 711.204 29.5112 711.206C29.5112 711.208 29.5112 711.21 29.5112 711.212C29.5112 711.214 29.5112 711.216 29.5112 711.218C29.5112 711.22 29.5112 711.222 29.5112 711.224C29.5112 711.226 29.5112 711.228 29.5112 711.23C29.5112 711.232 29.5112 711.235 29.5112 711.237C29.5112 711.239 29.5112 711.241 29.5112 711.243C29.5112 711.246 29.5112 711.248 29.5112 711.25C29.5112 711.253 29.5112 711.255 29.5112 711.257C29.5112 711.26 29.5112 711.262 29.5112 711.265C29.5112 711.267 29.5112 711.269 29.5112 711.272C29.5112 711.274 29.5112 711.277 29.5112 711.279C29.5112 711.282 29.5112 711.285 29.5112 711.287C29.5112 711.29 29.5112 711.292 29.5112 711.295C29.5112 711.298 29.5112 711.3 29.5112 711.303C29.5112 711.306 29.5112 711.309 29.5112 711.311C29.5112 711.314 29.5112 711.317 29.5112 711.32C29.5112 711.323 29.5112 711.325 29.5112 711.328C29.5112 711.331 29.5112 711.334 29.5112 711.337C29.5112 711.34 29.5112 711.343 29.5112 711.346C29.5112 711.349 29.5112 711.352 29.5112 711.355C29.5112 711.358 29.5112 711.361 29.5112 711.365C29.5112 711.368 29.5112 711.371 29.5112 711.374C29.5112 711.377 29.5112 711.381 29.5112 711.384C29.5112 711.387 29.5112 711.39 29.5112 711.394C29.5112 711.397 29.5112 711.4 29.5112 711.404C29.5112 711.407 29.5112 711.411 29.5112 711.414C29.5112 711.418 29.5112 711.421 29.5112 711.425C29.5112 711.428 29.5112 711.432 29.5112 711.435C29.5112 711.439 29.5112 711.443 29.5112 711.446C29.5112 711.45 29.5112 711.454 29.5112 711.457C29.5112 711.461 29.5112 711.465 29.5112 711.469C29.5112 711.473 29.5112 711.477 29.5112 711.48C29.5112 711.484 29.5112 711.488 29.5112 711.492C29.5112 711.496 29.5112 711.5 29.5112 711.504C29.5112 711.508 29.5112 711.512 29.5112 711.516C29.5112 711.52 29.5112 711.525 29.5112 711.529C29.5112 711.533 29.5112 711.537 29.5112 711.541C29.5112 711.546 29.5112 711.55 29.5112 711.554C29.5112 711.559 29.5112 711.563 29.5112 711.567C29.5112 711.572 29.5112 711.576 29.5112 711.581C29.5112 711.585 29.5112 711.59 29.5112 711.594C29.5112 711.599 29.5112 711.603 29.5112 711.608C29.5112 711.613 29.5112 711.617 29.5112 711.622C29.5112 711.627 29.5112 711.631 29.5112 711.636C29.5112 711.641 29.5112 711.646 29.5112 711.651C29.5112 711.656 29.5112 711.66 29.5112 711.665C29.5112 711.67 29.5112 711.675 29.5112 711.68C29.5112 711.685 29.5112 711.69 29.5112 711.696C29.5112 711.701 29.5112 711.706 29.5112 711.711C29.5112 711.716 29.5112 711.721 29.5112 711.727C29.5112 711.732 29.5112 711.737 29.5112 711.743C29.5112 711.748 29.5112 711.753 29.5112 711.759C29.5112 711.764 29.5112 711.77 29.5112 711.775C29.5112 711.781 29.5112 711.786 29.5112 711.792C29.5112 711.797 29.5112 711.803 29.5112 711.809C29.5112 711.815 29.5112 711.82 29.5112 711.826C29.5112 711.832 29.5112 711.838 29.5112 711.843C29.5112 711.849 29.5112 711.855 29.5112 711.861C29.5112 711.867 29.5112 711.873 29.5112 711.879C29.5112 711.885 29.5112 711.891 29.5112 711.897C29.5112 711.904 29.5112 711.91 29.5112 711.916C29.5112 711.922 29.5112 711.928 29.5112 711.935C29.5112 711.941 29.5112 711.947 29.5112 711.954C29.5112 711.96 29.5112 711.967 29.5112 711.973C29.5112 711.98 29.5112 711.986 29.5112 711.993C29.5112 711.999 29.5112 712.006 29.5112 712.013C29.5112 712.019 29.5112 712.026 29.5112 712.033C29.5112 712.04 29.5112 712.046 29.5112 712.053C29.5112 712.06 29.5112 712.067 29.5112 712.074C29.5112 712.081 29.5112 712.088 29.5112 712.095C29.5112 712.102 29.5112 712.109 29.5112 712.116C29.5112 712.123 29.5112 712.131 29.5112 712.138C29.5112 712.145 29.5112 712.152 29.5112 712.16C29.5112 712.167 29.5112 712.174 29.5112 712.182C29.5112 712.189 29.5112 712.197 29.5112 712.204C29.5112 712.212 29.5112 712.219 29.5112 712.227C29.5112 712.235 29.5112 712.242 29.5112 712.25C29.5112 712.258 29.5112 712.266 29.5112 712.273C29.5112 712.281 29.5112 712.289 29.5112 712.297C29.5112 712.305 29.5112 712.313 29.5112 712.321C29.5112 712.329 29.5112 712.337 29.5112 712.345C29.5112 712.354 29.5112 712.362 29.5112 712.37C29.5112 712.378 29.5112 712.387 29.5112 712.395C29.5112 712.403 29.5112 712.412 29.5112 712.42C29.5112 712.429 29.5112 712.437 29.5112 712.446C29.5112 712.454 29.5112 712.463 29.5112 712.471C29.5112 712.48 29.5112 712.489 29.5112 712.498C29.5112 712.506 29.5112 712.515 29.5112 712.524C29.5112 712.533 29.5112 712.542 29.5112 712.551C29.5112 712.56 29.5112 712.569 29.5112 712.578C29.5112 712.587 29.5112 712.596 29.5112 712.605C29.5112 712.615 29.5112 712.624 29.5112 712.633C29.5112 712.642 29.5112 712.652 29.5112 712.661C29.5112 712.671 29.5112 712.68 29.5112 712.69C29.5112 712.699 29.5112 712.709 29.5112 712.718C29.5112 712.728 29.5112 712.738 29.5112 712.747C29.5112 712.757 29.5112 712.767 29.5112 712.777C29.5112 712.787 29.5112 712.797 29.5112 712.807C29.5112 712.817 29.5112 712.827 29.5112 712.837C29.5112 712.847 29.5112 712.857 29.5112 712.867C29.5112 712.878 29.5112 712.888 29.5112 712.898C29.5112 712.908 29.5112 712.919 29.5112 712.929C29.5112 712.94 29.5112 712.95 29.5112 712.961C29.5112 712.971 29.5112 712.982 29.5112 712.993C29.5112 713.003 29.5112 713.014 29.5112 713.025C29.5112 713.036 29.5112 713.046 29.5112 713.057C29.5112 713.068 29.5112 713.079 29.5112 713.09C29.5112 713.101 29.5112 713.112 29.5112 713.124C29.5112 713.135 29.5112 713.146 29.5112 713.157C29.5112 713.168 29.5112 713.18 29.5112 713.191C29.5112 713.203 29.5112 713.214 29.5112 713.225C29.5112 713.237 29.5112 713.249 29.5112 713.26C29.5112 713.272 29.5112 713.284 29.5112 713.295C29.5112 713.307 29.5112 713.319 29.5112 713.331C29.5112 713.343 29.5112 713.355 29.5112 713.367C29.5112 713.379 29.5112 713.391 29.5112 713.403C29.5112 713.415 29.5112 713.427 29.5112 713.439C29.5112 713.452 29.5112 713.464 29.5112 713.476C29.5112 713.489 29.5112 713.501 29.5112 713.514C29.5112 713.526 29.5112 713.539 29.5112 713.551C29.5112 713.564 29.5112 713.577 29.5112 713.59C29.5112 713.602 29.5112 713.615 29.5112 713.628C29.5112 713.641 29.5112 713.654 29.5112 713.667C29.5112 713.68 29.5112 713.693 29.5112 713.706C29.5112 713.719 29.5112 713.733 29.5112 713.746C29.5112 713.759 29.5112 713.772 29.5112 713.786C29.5112 713.799 29.5112 713.813 29.5112 713.826C29.5112 713.84 29.5112 713.854 29.5112 713.867C29.5112 713.881 29.5112 713.895 29.5112 713.908C29.5112 713.922 29.5112 713.936 29.5112 713.95C29.5112 713.964 29.5112 713.978 29.5112 713.992C29.5112 714.006 29.5112 714.02 29.5112 714.035C29.5112 714.049 29.5112 714.063 29.5112 714.077C29.5112 714.092 29.5112 714.106 29.5112 714.121C29.5112 714.135 29.5112 714.15 29.5112 714.164C29.5112 714.179 29.5112 714.194 29.5112 714.209C29.5112 714.223 29.5112 714.238 29.5112 714.253C29.5112 714.268 29.5112 714.283 29.5112 714.298C29.5112 714.313 29.5112 714.328 29.5112 714.343C29.5112 714.359 29.5112 714.374 29.5112 714.389C29.5112 714.404 29.5112 714.42 29.5112 714.435C29.5112 714.451 29.5112 714.466 29.5112 714.482C29.5112 714.498 29.5112 714.513 29.5112 714.529C29.5112 714.545 29.5112 714.561 29.5112 714.576C29.5112 714.592 29.5112 714.608 29.5112 714.624C29.5112 714.64 29.5112 714.657 29.5112 714.673C29.5112 714.689 29.5112 714.705 29.5112 714.721C29.5112 714.738 29.5112 714.754 29.5112 714.771C29.5112 714.787 29.5112 714.804 29.5112 714.82C29.5112 714.837 29.5112 714.854 29.5112 714.87C29.5112 714.887 29.5112 714.904 29.5112 714.921C29.5112 714.938 29.5112 714.955 29.5112 714.972C29.5112 714.989 29.5112 715.006 29.5112 715.023C29.5112 715.041 29.5112 715.058 29.5112 715.075C29.5112 715.093 29.5112 715.11 29.5112 715.128C29.5112 715.145 29.5112 715.163 29.5112 715.18C29.5112 715.198 29.5112 715.216 29.5112 715.234C29.5112 715.251 29.5112 715.269 29.5112 715.287C29.5112 715.305 29.5112 715.323 29.5112 715.341C29.5112 715.359 29.5112 715.378 29.5112 715.396C29.5112 715.414 29.5112 715.433 29.5112 715.451C29.5112 715.469 29.5112 715.488 29.5112 715.507C29.5112 715.525 29.5112 715.544 29.5112 715.562C29.5112 715.581 29.5112 715.6 29.5112 715.619C29.5112 715.638 29.5112 715.657 29.5112 715.676C29.5112 715.695 29.5112 715.714 29.5112 715.733C29.5112 715.752 29.5112 715.772 29.5112 715.791C29.5112 715.81 29.5112 715.83 29.5112 715.849C29.5112 715.869 29.5112 715.889 29.5112 715.908C29.5112 715.928 29.5112 715.948 29.5112 715.968C29.5112 715.987 29.5112 716.007 29.5112 716.027C29.5112 716.047 29.5112 716.067 29.5112 716.088C29.5112 716.108 29.5112 716.128 29.5112 716.148C29.5112 716.169 29.5112 716.189 29.5112 716.21C29.5112 716.23 29.5112 716.251 29.5112 716.271C29.5112 716.292 29.5112 716.313 29.5112 716.334C29.5112 716.354 29.5112 716.375 29.5112 716.396C29.5112 716.417 29.5112 716.438 29.5112 716.459C29.5112 716.481 29.5112 716.502 29.5112 716.523C29.5112 716.544 29.5112 716.566 29.5112 716.587C29.5112 716.609 29.5112 716.63 29.5112 716.652C29.5112 716.674 29.5112 716.695 29.5112 716.717C29.5112 716.739 29.5112 716.761 29.5112 716.783C29.5112 716.805 29.5112 716.827 29.5112 716.849C29.5112 716.871 29.5112 716.894 29.5112 716.916C29.5112 716.938 29.5112 716.961 29.5112 716.983C29.5112 717.006 29.5112 717.028 29.5112 717.051C29.5112 717.074 29.5112 717.096 29.5112 717.119C29.5112 717.142 29.5112 717.165 29.5112 717.188C29.5112 717.211 29.5112 717.234 29.5112 717.257C29.5112 717.28 29.5112 717.304 29.5112 717.327C29.5112 717.35 29.5112 717.374 29.5112 717.397C29.5112 717.421 29.5112 717.444 29.5112 717.468C29.5112 717.492 29.5112 717.516 29.5112 717.54C29.5112 717.563 29.5112 717.587 29.5112 717.611C29.5112 717.635 29.5112 717.66 29.5112 717.684C29.5112 717.708 29.5112 717.732 29.5112 717.757C29.5112 717.781 29.5112 717.806 29.5112 717.83C29.5112 717.855 29.5112 717.88 29.5112 717.904C29.5112 717.929 29.5112 717.954 29.5112 717.979C29.5112 718.004 29.5112 718.029 29.5112 718.054C29.5112 718.079 29.5112 718.104 29.5112 718.13C29.5112 718.155 29.5112 718.18 29.5112 718.206C29.5112 718.231 29.5112 718.257 29.5112 718.283C29.5112 718.308 29.5112 718.334 29.5112 718.36C29.5112 718.386 29.5112 718.412 29.5112 718.438C29.5112 718.464 29.5112 718.49 29.5112 718.516C29.5112 718.542 29.5112 718.569 29.5112 718.595C29.5112 718.622 29.5112 718.648 29.5112 718.675C29.5112 718.701 29.5112 718.728 29.5112 718.755C29.5112 718.781 29.5112 718.808 29.5112 718.835C29.5112 718.862 29.5112 718.889 29.5112 718.916C29.5112 718.944 29.5112 718.971 29.5112 718.998C29.5112 719.026 29.5112 719.053 29.5112 719.081C29.5112 719.108 29.5112 719.136 29.5112 719.163C29.5112 719.191 29.5112 719.219 29.5112 719.247C29.5112 719.275 29.5112 719.303 29.5112 719.331C29.5112 719.359 29.5112 719.387 29.5112 719.415C29.5112 719.444 29.5112 719.472 29.5112 719.501C29.5112 719.529 29.5112 719.558 29.5112 719.586C29.5112 719.615 29.5112 719.644 29.5112 719.673C29.5112 719.701 29.5112 719.73 29.5112 719.759C29.5112 719.789 29.5112 719.818 29.5112 719.847C29.5112 719.876 29.5112 719.906 29.5112 719.935C29.5112 719.964 29.5112 719.994 29.5112 720.024C29.5112 720.053 29.5112 720.083 29.5112 720.113C29.5112 720.143 29.5112 720.173 29.5112 720.203C29.5112 720.233 29.5112 720.263 29.5112 720.293C29.5112 720.323 29.5112 720.354 29.5112 720.384C29.5112 720.415 29.5112 720.445 29.5112 720.476C29.5112 720.506 29.5112 720.537 29.5112 720.568C29.5112 720.599 29.5112 720.63 29.5112 720.661C29.5112 720.692 29.5112 720.723 29.5112 720.754C29.5112 720.785 29.5112 720.817 29.5112 720.848C29.5112 720.88 29.5112 720.911 29.5112 720.943C29.5112 720.974 29.5112 721.006 29.5112 721.038C29.5112 721.07 29.5112 721.102 29.5112 721.134C29.5112 721.166 29.5112 721.198 29.5112 721.23C29.5112 721.262 29.5112 721.295 29.5112 721.327C29.5112 721.36 29.5112 721.392 29.5112 721.425C29.5112 721.458 29.5112 721.49 29.5112 721.523C29.5112 721.556 29.5112 721.589 29.5112 721.622C29.5112 721.655 29.5112 721.688 29.5112 721.722C29.5112 721.755 29.5112 721.788 29.5112 721.822C29.5112 721.855 29.5112 721.889 29.5112 721.922C29.5112 721.956 29.5112 721.99 29.5112 722.024C29.5112 722.058 29.5112 722.092 29.5112 722.126C29.5112 722.16 29.5112 722.194 29.5112 722.229C29.5112 722.263 29.5112 722.297 29.5112 722.332C29.5112 722.366 29.5112 722.401 29.5112 722.436C29.5112 722.47 29.5112 722.505 29.5112 722.54C29.5112 722.575 29.5112 722.61 29.5112 722.646C29.5112 722.681 29.5112 722.716 29.5112 722.751C29.5112 722.787 29.5112 722.822 29.5112 722.858C29.5112 722.893 29.5112 722.929 29.5112 722.965C29.5112 723.001 29.5112 723.037 29.5112 723.073C29.5112 723.109 29.5112 723.145 29.5112 723.181C29.5112 723.217 29.5112 723.254 29.5112 723.29C29.5112 723.327 29.5112 723.363 29.5112 723.4C29.5112 723.437 29.5112 723.473 29.5112 723.51C29.5112 723.547 29.5112 723.584 29.5112 723.621C29.5112 723.658 29.5112 723.696 29.5112 723.733C29.5112 723.77 29.5112 723.808 29.5112 723.845C29.5112 723.883 29.5112 723.921 29.5112 723.958C29.5112 723.996 29.5112 724.034 29.5112 724.072C29.5112 724.11 29.5112 724.148 29.5112 724.186C29.5112 724.225 29.5112 724.263 29.5112 724.301C29.5112 724.34 29.5112 724.378 29.5112 724.417C29.5112 724.456 29.5112 724.494 29.5112 724.533C29.5112 724.572 29.5112 724.611 29.5112 724.65C29.5112 724.69 29.5112 724.729 29.5112 724.768C29.5112 724.807 29.5112 724.847 29.5112 724.886C29.5112 724.926 29.5112 724.966 29.5112 725.006C29.5112 725.045 29.5112 725.085 29.5112 725.125C29.5112 725.165 29.5112 725.205 29.5112 725.246C29.5112 725.286 29.5112 725.326 29.5112 725.367C29.5112 725.407 29.5112 725.448 29.5112 725.489C29.5112 725.529 29.5112 725.57 29.5112 725.611C29.5112 725.652 29.5112 725.693 29.5112 725.734C29.5112 725.775 29.5112 725.817 29.5112 725.858C29.5112 725.899 29.5112 725.941 29.5112 725.983C29.5112 726.024 29.5112 726.066 29.5112 726.108C29.5112 726.15 29.5112 726.192 29.5112 726.234C29.5112 726.276 29.5112 726.318 29.5112 726.36C29.5112 726.403 29.5112 726.445 29.5112 726.488C29.5112 726.53 29.5112 726.573 29.5112 726.616C29.5112 726.659 29.5112 726.702 29.5112 726.745C29.5112 726.788 29.5112 726.831 29.5112 726.874C29.5112 726.917 29.5112 726.961 29.5112 727.004C29.5112 727.048 29.5112 727.091 29.5112 727.135C29.5112 727.179 29.5112 727.223 29.5112 727.267C29.5112 727.311 29.5112 727.355 29.5112 727.399C29.5112 727.443 29.5112 727.488 29.5112 727.532C29.5112 727.577 29.5112 727.621 29.5112 727.666C29.5112 727.711 29.5112 727.755 29.5112 727.8C29.5112 727.845 29.5112 727.89 29.5112 727.936C29.5112 727.981 29.5112 728.026 29.5112 728.072C29.5112 728.117 29.5112 728.163 29.5112 728.208C29.5112 728.254 29.5112 728.3 29.5112 728.346C29.5112 728.392 29.5112 728.438 29.5112 728.484C29.5112 728.53 29.5112 728.576 29.5112 728.623C29.5112 728.669 29.5112 728.715 29.5112 728.762C29.5112 728.809 29.5112 728.856 29.5112 728.902C29.5112 728.949 29.5112 728.996 29.5112 729.044C29.5112 729.091 29.5112 729.138 29.5112 729.185C29.5112 729.233 29.5112 729.28 29.5112 729.328C29.5112 729.376 29.5112 729.423 29.5112 729.471C29.5112 729.519 29.5112 729.567 29.5112 729.615C29.5112 729.663 29.5112 729.712 29.5112 729.76C29.5112 729.808 29.5112 729.857 29.5112 729.906C29.5112 729.954 29.5112 730.003 29.5112 730.052C29.5112 730.101 29.5112 730.15 29.5112 730.199C29.5112 730.248 29.5112 730.297 29.5112 730.347C29.5112 730.396 29.5112 730.446 29.5112 730.495C29.5112 730.545 29.5112 730.595 29.5112 730.645C29.5112 730.695 29.5112 730.745 29.5112 730.795C29.5112 730.845 29.5112 730.895 29.5112 730.946C29.5112 730.996 29.5112 731.047 29.5112 731.097C29.5112 731.148 29.5112 731.199 29.5112 731.25C29.5112 731.301 29.5112 731.352 29.5112 731.403C29.5112 731.454 29.5112 731.505 29.5112 731.557C29.5112 731.608 29.5112 731.66 29.5112 731.711C29.5112 731.763 29.5112 731.815 29.5112 731.867C29.5112 731.919 29.5112 731.971 29.5112 732.023C29.5112 732.075 29.5112 732.128 29.5112 732.18C29.5112 732.233 29.5112 732.285 29.5112 732.338C29.5112 732.391 29.5112 732.444 29.5112 732.497C29.5112 732.55 29.5112 732.603 29.5112 732.656C29.5112 732.709 29.5112 732.763 29.5112 732.816C29.5112 732.87 29.5112 732.923 29.5112 732.977C29.5112 733.031 29.5112 733.085 29.5112 733.139C29.5112 733.193 29.5112 733.247 29.5112 733.302C29.5112 733.356 29.5112 733.41 29.5112 733.465C29.5112 733.52 29.5112 733.574 29.5112 733.629C29.5112 733.684 29.5112 733.739 29.5112 733.794C29.5112 733.849 29.5112 733.904 29.5112 733.96C29.5112 734.015 29.5112 734.071 29.5112 734.126C29.5112 734.182 29.5112 734.238 29.5112 734.294C29.5112 734.35 29.5112 734.406 29.5112 734.462C29.5112 734.518 29.5112 734.574 29.5112 734.631C29.5112 734.687 29.5112 734.744 29.5112 734.801C29.5112 734.857 29.5112 734.914 29.5112 734.971C29.5112 735.028 29.5112 735.085 29.5112 735.143C29.5112 735.2 29.5112 735.257 29.5112 735.315C29.5112 735.372 29.5112 735.43 29.5112 735.488C29.5112 735.546 29.5112 735.604 29.5112 735.662C29.5112 735.72 29.5112 735.778 29.5112 735.837C29.5112 735.895 29.5112 735.953 29.5112 736.012C29.5112 736.071 29.5112 736.13 29.5112 736.188C29.5112 736.247 29.5112 736.306 29.5112 736.366C29.5112 736.425 29.5112 736.484 29.5112 736.544C29.5112 736.603 29.5112 736.663 29.5112 736.723C29.5112 736.782 29.5112 736.842 29.5112 736.902C29.5112 736.962 29.5112 737.022 29.5112 737.083C29.5112 737.143 29.5112 737.203 29.5112 737.264C29.5112 737.325 29.5112 737.385 29.5112 737.446C29.5112 737.507 29.5112 737.568 29.5112 737.629C29.5112 737.69 29.5112 737.752 29.5112 737.813C29.5112 737.875 29.5112 737.936 29.5112 737.998C29.5112 738.06 29.5112 738.122 29.5112 738.184C29.5112 738.246 29.5112 738.308 29.5112 738.37C29.5112 738.432 29.5112 738.495 29.5112 738.557C29.5112 738.62 29.5112 738.682 29.5112 738.745C29.5112 738.808 29.5112 738.871 29.5112 738.934C29.5112 738.997 29.5112 739.061 29.5112 739.124C29.5112 739.188 29.5112 739.251 29.5112 739.315C29.5112 739.379 29.5112 739.442 29.5112 739.506C29.5112 739.57 29.5112 739.635 29.5112 739.699C29.5112 739.763 29.5112 739.828 29.5112 739.892C29.5112 739.957 29.5112 740.022 29.5112 740.086C29.5112 740.151 29.5112 740.216 29.5112 740.281C29.5112 740.347 29.5112 740.412 29.5112 740.477C29.5112 740.543 29.5112 740.608 29.5112 740.674C29.5112 740.74 29.5112 740.806 29.5112 740.872C29.5112 740.938 29.5112 741.004 29.5112 741.07C29.5112 741.137 29.5112 741.203 29.5112 741.27C29.5112 741.336 29.5112 741.403 29.5112 741.47C29.5112 741.537 29.5112 741.604 29.5112 741.671C29.5112 741.738 29.5112 741.806 29.5112 741.873C29.5112 741.941 29.5112 742.008 29.5112 742.076C29.5112 742.144 29.5112 742.212 29.5112 742.28C29.5112 742.348 29.5112 742.416 29.5112 742.485C29.5112 742.553 29.5112 742.622 29.5112 742.69C29.5112 742.759 29.5112 742.828 29.5112 742.897C29.5112 742.966 29.5112 743.035 29.5112 743.104C29.5112 743.174 29.5112 743.243 29.5112 743.313C29.5112 743.382 29.5112 743.452 29.5112 743.522C29.5112 743.592 29.5112 743.662 29.5112 743.732C29.5112 743.802 29.5112 743.873 29.5112 743.943C29.5112 744.014 29.5112 744.084 29.5112 744.155C29.5112 744.226 29.5112 744.297 29.5112 744.368C29.5112 744.439 29.5112 744.51 29.5112 744.582C29.5112 744.653 29.5112 744.724 29.5112 744.796C29.5112 744.868 29.5112 744.94 29.5112 745.012C29.5112 745.084 29.5112 745.156 29.5112 745.228C29.5112 745.301 29.5112 745.373 29.5112 745.446C29.5112 745.518 29.5112 745.591 29.5112 745.664C29.5112 745.737 29.5112 745.81 29.5112 745.883C29.5112 745.956 29.5112 746.03 29.5112 746.103C29.5112 746.177 29.5112 746.251 29.5112 746.325C29.5112 746.398 29.5112 746.472 29.5112 746.547C29.5112 746.621 29.5112 746.695 29.5112 746.77C29.5112 746.844 29.5112 746.919 29.5112 746.993C29.5112 747.068 29.5112 747.143 29.5112 747.218C29.5112 747.293 29.5112 747.369 29.5112 747.444C29.5112 747.519 29.5112 747.595 29.5112 747.671C29.5112 747.746 29.5112 747.822 29.5112 747.898C29.5112 747.974 29.5112 748.051 29.5112 748.127C29.5112 748.203 29.5112 748.28 29.5112 748.356C29.5112 748.433 29.5112 748.51 29.5112 748.587C29.5112 748.664 29.5112 748.741 29.5112 748.818C29.5112 748.896 29.5112 748.973 29.5112 749.051C29.5112 749.128 29.5112 749.206 29.5112 749.284C29.5112 749.362 29.5112 749.44 29.5112 749.518C29.5112 749.597 29.5112 749.675 29.5112 749.754C29.5112 749.832 29.5112 749.911 29.5112 749.99C29.5112 750.069 29.5112 750.148 29.5112 750.227C29.5112 750.306 29.5112 750.385 29.5112 750.465C29.5112 750.544 29.5112 750.624 29.5112 750.704C29.5112 750.784 29.5112 750.864 29.5112 750.944C29.5112 751.024 29.5112 751.105 29.5112 751.185C29.5112 751.266 29.5112 751.346 29.5112 751.427C29.5112 751.508 29.5112 751.589 29.5112 751.67C29.5112 751.751 29.5112 751.832 29.5112 751.914C29.5112 751.995 29.5112 752.077 29.5112 752.159C29.5112 752.24 29.5112 752.322 29.5112 752.405C29.5112 752.487 29.5112 752.569 29.5112 752.651C29.5112 752.734 29.5112 752.816 29.5112 752.899C29.5112 752.982 29.5112 753.065 29.5112 753.148C29.5112 753.231 29.5112 753.314 29.5112 753.398C29.5112 753.481 29.5112 753.565 29.5112 753.649C29.5112 753.732 29.5112 753.816 29.5112 753.9C29.5112 753.984 29.5112 754.069 29.5112 754.153H30.1244H30.7375C30.7375 754.069 30.7375 753.984 30.7375 753.9C30.7375 753.816 30.7375 753.732 30.7375 753.649C30.7375 753.565 30.7375 753.481 30.7375 753.398C30.7375 753.314 30.7375 753.231 30.7375 753.148C30.7375 753.065 30.7375 752.982 30.7375 752.899C30.7375 752.816 30.7375 752.734 30.7375 752.651C30.7375 752.569 30.7375 752.487 30.7375 752.405C30.7375 752.322 30.7375 752.24 30.7375 752.159C30.7375 752.077 30.7375 751.995 30.7375 751.914C30.7375 751.832 30.7375 751.751 30.7375 751.67C30.7375 751.589 30.7375 751.508 30.7375 751.427C30.7375 751.346 30.7375 751.266 30.7375 751.185C30.7375 751.105 30.7375 751.024 30.7375 750.944C30.7375 750.864 30.7375 750.784 30.7375 750.704C30.7375 750.624 30.7375 750.544 30.7375 750.465C30.7375 750.385 30.7375 750.306 30.7375 750.227C30.7375 750.148 30.7375 750.069 30.7375 749.99C30.7375 749.911 30.7375 749.832 30.7375 749.754C30.7375 749.675 30.7375 749.597 30.7375 749.518C30.7375 749.44 30.7375 749.362 30.7375 749.284C30.7375 749.206 30.7375 749.128 30.7375 749.051C30.7375 748.973 30.7375 748.896 30.7375 748.818C30.7375 748.741 30.7375 748.664 30.7375 748.587C30.7375 748.51 30.7375 748.433 30.7375 748.356C30.7375 748.28 30.7375 748.203 30.7375 748.127C30.7375 748.051 30.7375 747.974 30.7375 747.898C30.7375 747.822 30.7375 747.746 30.7375 747.671C30.7375 747.595 30.7375 747.519 30.7375 747.444C30.7375 747.369 30.7375 747.293 30.7375 747.218C30.7375 747.143 30.7375 747.068 30.7375 746.993C30.7375 746.919 30.7375 746.844 30.7375 746.77C30.7375 746.695 30.7375 746.621 30.7375 746.547C30.7375 746.472 30.7375 746.398 30.7375 746.325C30.7375 746.251 30.7375 746.177 30.7375 746.103C30.7375 746.03 30.7375 745.956 30.7375 745.883C30.7375 745.81 30.7375 745.737 30.7375 745.664C30.7375 745.591 30.7375 745.518 30.7375 745.446C30.7375 745.373 30.7375 745.301 30.7375 745.228C30.7375 745.156 30.7375 745.084 30.7375 745.012C30.7375 744.94 30.7375 744.868 30.7375 744.796C30.7375 744.724 30.7375 744.653 30.7375 744.582C30.7375 744.51 30.7375 744.439 30.7375 744.368C30.7375 744.297 30.7375 744.226 30.7375 744.155C30.7375 744.084 30.7375 744.014 30.7375 743.943C30.7375 743.873 30.7375 743.802 30.7375 743.732C30.7375 743.662 30.7375 743.592 30.7375 743.522C30.7375 743.452 30.7375 743.382 30.7375 743.313C30.7375 743.243 30.7375 743.174 30.7375 743.104C30.7375 743.035 30.7375 742.966 30.7375 742.897C30.7375 742.828 30.7375 742.759 30.7375 742.69C30.7375 742.622 30.7375 742.553 30.7375 742.485C30.7375 742.416 30.7375 742.348 30.7375 742.28C30.7375 742.212 30.7375 742.144 30.7375 742.076C30.7375 742.008 30.7375 741.941 30.7375 741.873C30.7375 741.806 30.7375 741.738 30.7375 741.671C30.7375 741.604 30.7375 741.537 30.7375 741.47C30.7375 741.403 30.7375 741.336 30.7375 741.27C30.7375 741.203 30.7375 741.137 30.7375 741.07C30.7375 741.004 30.7375 740.938 30.7375 740.872C30.7375 740.806 30.7375 740.74 30.7375 740.674C30.7375 740.608 30.7375 740.543 30.7375 740.477C30.7375 740.412 30.7375 740.347 30.7375 740.281C30.7375 740.216 30.7375 740.151 30.7375 740.086C30.7375 740.022 30.7375 739.957 30.7375 739.892C30.7375 739.828 30.7375 739.763 30.7375 739.699C30.7375 739.635 30.7375 739.57 30.7375 739.506C30.7375 739.442 30.7375 739.379 30.7375 739.315C30.7375 739.251 30.7375 739.188 30.7375 739.124C30.7375 739.061 30.7375 738.997 30.7375 738.934C30.7375 738.871 30.7375 738.808 30.7375 738.745C30.7375 738.682 30.7375 738.62 30.7375 738.557C30.7375 738.495 30.7375 738.432 30.7375 738.37C30.7375 738.308 30.7375 738.246 30.7375 738.184C30.7375 738.122 30.7375 738.06 30.7375 737.998C30.7375 737.936 30.7375 737.875 30.7375 737.813C30.7375 737.752 30.7375 737.69 30.7375 737.629C30.7375 737.568 30.7375 737.507 30.7375 737.446C30.7375 737.385 30.7375 737.325 30.7375 737.264C30.7375 737.203 30.7375 737.143 30.7375 737.083C30.7375 737.022 30.7375 736.962 30.7375 736.902C30.7375 736.842 30.7375 736.782 30.7375 736.723C30.7375 736.663 30.7375 736.603 30.7375 736.544C30.7375 736.484 30.7375 736.425 30.7375 736.366C30.7375 736.306 30.7375 736.247 30.7375 736.188C30.7375 736.13 30.7375 736.071 30.7375 736.012C30.7375 735.953 30.7375 735.895 30.7375 735.837C30.7375 735.778 30.7375 735.72 30.7375 735.662C30.7375 735.604 30.7375 735.546 30.7375 735.488C30.7375 735.43 30.7375 735.372 30.7375 735.315C30.7375 735.257 30.7375 735.2 30.7375 735.143C30.7375 735.085 30.7375 735.028 30.7375 734.971C30.7375 734.914 30.7375 734.857 30.7375 734.801C30.7375 734.744 30.7375 734.687 30.7375 734.631C30.7375 734.574 30.7375 734.518 30.7375 734.462C30.7375 734.406 30.7375 734.35 30.7375 734.294C30.7375 734.238 30.7375 734.182 30.7375 734.126C30.7375 734.071 30.7375 734.015 30.7375 733.96C30.7375 733.904 30.7375 733.849 30.7375 733.794C30.7375 733.739 30.7375 733.684 30.7375 733.629C30.7375 733.574 30.7375 733.52 30.7375 733.465C30.7375 733.41 30.7375 733.356 30.7375 733.302C30.7375 733.247 30.7375 733.193 30.7375 733.139C30.7375 733.085 30.7375 733.031 30.7375 732.977C30.7375 732.923 30.7375 732.87 30.7375 732.816C30.7375 732.763 30.7375 732.709 30.7375 732.656C30.7375 732.603 30.7375 732.55 30.7375 732.497C30.7375 732.444 30.7375 732.391 30.7375 732.338C30.7375 732.285 30.7375 732.233 30.7375 732.18C30.7375 732.128 30.7375 732.075 30.7375 732.023C30.7375 731.971 30.7375 731.919 30.7375 731.867C30.7375 731.815 30.7375 731.763 30.7375 731.711C30.7375 731.66 30.7375 731.608 30.7375 731.557C30.7375 731.505 30.7375 731.454 30.7375 731.403C30.7375 731.352 30.7375 731.301 30.7375 731.25C30.7375 731.199 30.7375 731.148 30.7375 731.097C30.7375 731.047 30.7375 730.996 30.7375 730.946C30.7375 730.895 30.7375 730.845 30.7375 730.795C30.7375 730.745 30.7375 730.695 30.7375 730.645C30.7375 730.595 30.7375 730.545 30.7375 730.495C30.7375 730.446 30.7375 730.396 30.7375 730.347C30.7375 730.297 30.7375 730.248 30.7375 730.199C30.7375 730.15 30.7375 730.101 30.7375 730.052C30.7375 730.003 30.7375 729.954 30.7375 729.906C30.7375 729.857 30.7375 729.808 30.7375 729.76C30.7375 729.712 30.7375 729.663 30.7375 729.615C30.7375 729.567 30.7375 729.519 30.7375 729.471C30.7375 729.423 30.7375 729.376 30.7375 729.328C30.7375 729.28 30.7375 729.233 30.7375 729.185C30.7375 729.138 30.7375 729.091 30.7375 729.044C30.7375 728.996 30.7375 728.949 30.7375 728.902C30.7375 728.856 30.7375 728.809 30.7375 728.762C30.7375 728.715 30.7375 728.669 30.7375 728.623C30.7375 728.576 30.7375 728.53 30.7375 728.484C30.7375 728.438 30.7375 728.392 30.7375 728.346C30.7375 728.3 30.7375 728.254 30.7375 728.208C30.7375 728.163 30.7375 728.117 30.7375 728.072C30.7375 728.026 30.7375 727.981 30.7375 727.936C30.7375 727.89 30.7375 727.845 30.7375 727.8C30.7375 727.755 30.7375 727.711 30.7375 727.666C30.7375 727.621 30.7375 727.577 30.7375 727.532C30.7375 727.488 30.7375 727.443 30.7375 727.399C30.7375 727.355 30.7375 727.311 30.7375 727.267C30.7375 727.223 30.7375 727.179 30.7375 727.135C30.7375 727.091 30.7375 727.048 30.7375 727.004C30.7375 726.961 30.7375 726.917 30.7375 726.874C30.7375 726.831 30.7375 726.788 30.7375 726.745C30.7375 726.702 30.7375 726.659 30.7375 726.616C30.7375 726.573 30.7375 726.53 30.7375 726.488C30.7375 726.445 30.7375 726.403 30.7375 726.36C30.7375 726.318 30.7375 726.276 30.7375 726.234C30.7375 726.192 30.7375 726.15 30.7375 726.108C30.7375 726.066 30.7375 726.024 30.7375 725.983C30.7375 725.941 30.7375 725.899 30.7375 725.858C30.7375 725.817 30.7375 725.775 30.7375 725.734C30.7375 725.693 30.7375 725.652 30.7375 725.611C30.7375 725.57 30.7375 725.529 30.7375 725.489C30.7375 725.448 30.7375 725.407 30.7375 725.367C30.7375 725.326 30.7375 725.286 30.7375 725.246C30.7375 725.205 30.7375 725.165 30.7375 725.125C30.7375 725.085 30.7375 725.045 30.7375 725.006C30.7375 724.966 30.7375 724.926 30.7375 724.886C30.7375 724.847 30.7375 724.807 30.7375 724.768C30.7375 724.729 30.7375 724.69 30.7375 724.65C30.7375 724.611 30.7375 724.572 30.7375 724.533C30.7375 724.494 30.7375 724.456 30.7375 724.417C30.7375 724.378 30.7375 724.34 30.7375 724.301C30.7375 724.263 30.7375 724.225 30.7375 724.186C30.7375 724.148 30.7375 724.11 30.7375 724.072C30.7375 724.034 30.7375 723.996 30.7375 723.958C30.7375 723.921 30.7375 723.883 30.7375 723.845C30.7375 723.808 30.7375 723.77 30.7375 723.733C30.7375 723.696 30.7375 723.658 30.7375 723.621C30.7375 723.584 30.7375 723.547 30.7375 723.51C30.7375 723.473 30.7375 723.437 30.7375 723.4C30.7375 723.363 30.7375 723.327 30.7375 723.29C30.7375 723.254 30.7375 723.217 30.7375 723.181C30.7375 723.145 30.7375 723.109 30.7375 723.073C30.7375 723.037 30.7375 723.001 30.7375 722.965C30.7375 722.929 30.7375 722.893 30.7375 722.858C30.7375 722.822 30.7375 722.787 30.7375 722.751C30.7375 722.716 30.7375 722.681 30.7375 722.646C30.7375 722.61 30.7375 722.575 30.7375 722.54C30.7375 722.505 30.7375 722.47 30.7375 722.436C30.7375 722.401 30.7375 722.366 30.7375 722.332C30.7375 722.297 30.7375 722.263 30.7375 722.229C30.7375 722.194 30.7375 722.16 30.7375 722.126C30.7375 722.092 30.7375 722.058 30.7375 722.024C30.7375 721.99 30.7375 721.956 30.7375 721.922C30.7375 721.889 30.7375 721.855 30.7375 721.822C30.7375 721.788 30.7375 721.755 30.7375 721.722C30.7375 721.688 30.7375 721.655 30.7375 721.622C30.7375 721.589 30.7375 721.556 30.7375 721.523C30.7375 721.49 30.7375 721.458 30.7375 721.425C30.7375 721.392 30.7375 721.36 30.7375 721.327C30.7375 721.295 30.7375 721.262 30.7375 721.23C30.7375 721.198 30.7375 721.166 30.7375 721.134C30.7375 721.102 30.7375 721.07 30.7375 721.038C30.7375 721.006 30.7375 720.974 30.7375 720.943C30.7375 720.911 30.7375 720.88 30.7375 720.848C30.7375 720.817 30.7375 720.785 30.7375 720.754C30.7375 720.723 30.7375 720.692 30.7375 720.661C30.7375 720.63 30.7375 720.599 30.7375 720.568C30.7375 720.537 30.7375 720.506 30.7375 720.476C30.7375 720.445 30.7375 720.415 30.7375 720.384C30.7375 720.354 30.7375 720.323 30.7375 720.293C30.7375 720.263 30.7375 720.233 30.7375 720.203C30.7375 720.173 30.7375 720.143 30.7375 720.113C30.7375 720.083 30.7375 720.053 30.7375 720.024C30.7375 719.994 30.7375 719.964 30.7375 719.935C30.7375 719.906 30.7375 719.876 30.7375 719.847C30.7375 719.818 30.7375 719.789 30.7375 719.759C30.7375 719.73 30.7375 719.701 30.7375 719.673C30.7375 719.644 30.7375 719.615 30.7375 719.586C30.7375 719.558 30.7375 719.529 30.7375 719.501C30.7375 719.472 30.7375 719.444 30.7375 719.415C30.7375 719.387 30.7375 719.359 30.7375 719.331C30.7375 719.303 30.7375 719.275 30.7375 719.247C30.7375 719.219 30.7375 719.191 30.7375 719.163C30.7375 719.136 30.7375 719.108 30.7375 719.081C30.7375 719.053 30.7375 719.026 30.7375 718.998C30.7375 718.971 30.7375 718.944 30.7375 718.916C30.7375 718.889 30.7375 718.862 30.7375 718.835C30.7375 718.808 30.7375 718.781 30.7375 718.755C30.7375 718.728 30.7375 718.701 30.7375 718.675C30.7375 718.648 30.7375 718.622 30.7375 718.595C30.7375 718.569 30.7375 718.542 30.7375 718.516C30.7375 718.49 30.7375 718.464 30.7375 718.438C30.7375 718.412 30.7375 718.386 30.7375 718.36C30.7375 718.334 30.7375 718.308 30.7375 718.283C30.7375 718.257 30.7375 718.231 30.7375 718.206C30.7375 718.18 30.7375 718.155 30.7375 718.13C30.7375 718.104 30.7375 718.079 30.7375 718.054C30.7375 718.029 30.7375 718.004 30.7375 717.979C30.7375 717.954 30.7375 717.929 30.7375 717.904C30.7375 717.88 30.7375 717.855 30.7375 717.83C30.7375 717.806 30.7375 717.781 30.7375 717.757C30.7375 717.732 30.7375 717.708 30.7375 717.684C30.7375 717.66 30.7375 717.635 30.7375 717.611C30.7375 717.587 30.7375 717.563 30.7375 717.54C30.7375 717.516 30.7375 717.492 30.7375 717.468C30.7375 717.444 30.7375 717.421 30.7375 717.397C30.7375 717.374 30.7375 717.35 30.7375 717.327C30.7375 717.304 30.7375 717.28 30.7375 717.257C30.7375 717.234 30.7375 717.211 30.7375 717.188C30.7375 717.165 30.7375 717.142 30.7375 717.119C30.7375 717.096 30.7375 717.074 30.7375 717.051C30.7375 717.028 30.7375 717.006 30.7375 716.983C30.7375 716.961 30.7375 716.938 30.7375 716.916C30.7375 716.894 30.7375 716.871 30.7375 716.849C30.7375 716.827 30.7375 716.805 30.7375 716.783C30.7375 716.761 30.7375 716.739 30.7375 716.717C30.7375 716.695 30.7375 716.674 30.7375 716.652C30.7375 716.63 30.7375 716.609 30.7375 716.587C30.7375 716.566 30.7375 716.544 30.7375 716.523C30.7375 716.502 30.7375 716.481 30.7375 716.459C30.7375 716.438 30.7375 716.417 30.7375 716.396C30.7375 716.375 30.7375 716.354 30.7375 716.334C30.7375 716.313 30.7375 716.292 30.7375 716.271C30.7375 716.251 30.7375 716.23 30.7375 716.21C30.7375 716.189 30.7375 716.169 30.7375 716.148C30.7375 716.128 30.7375 716.108 30.7375 716.088C30.7375 716.067 30.7375 716.047 30.7375 716.027C30.7375 716.007 30.7375 715.987 30.7375 715.968C30.7375 715.948 30.7375 715.928 30.7375 715.908C30.7375 715.889 30.7375 715.869 30.7375 715.849C30.7375 715.83 30.7375 715.81 30.7375 715.791C30.7375 715.772 30.7375 715.752 30.7375 715.733C30.7375 715.714 30.7375 715.695 30.7375 715.676C30.7375 715.657 30.7375 715.638 30.7375 715.619C30.7375 715.6 30.7375 715.581 30.7375 715.562C30.7375 715.544 30.7375 715.525 30.7375 715.507C30.7375 715.488 30.7375 715.469 30.7375 715.451C30.7375 715.433 30.7375 715.414 30.7375 715.396C30.7375 715.378 30.7375 715.359 30.7375 715.341C30.7375 715.323 30.7375 715.305 30.7375 715.287C30.7375 715.269 30.7375 715.251 30.7375 715.234C30.7375 715.216 30.7375 715.198 30.7375 715.18C30.7375 715.163 30.7375 715.145 30.7375 715.128C30.7375 715.11 30.7375 715.093 30.7375 715.075C30.7375 715.058 30.7375 715.041 30.7375 715.023C30.7375 715.006 30.7375 714.989 30.7375 714.972C30.7375 714.955 30.7375 714.938 30.7375 714.921C30.7375 714.904 30.7375 714.887 30.7375 714.87C30.7375 714.854 30.7375 714.837 30.7375 714.82C30.7375 714.804 30.7375 714.787 30.7375 714.771C30.7375 714.754 30.7375 714.738 30.7375 714.721C30.7375 714.705 30.7375 714.689 30.7375 714.673C30.7375 714.657 30.7375 714.64 30.7375 714.624C30.7375 714.608 30.7375 714.592 30.7375 714.576C30.7375 714.561 30.7375 714.545 30.7375 714.529C30.7375 714.513 30.7375 714.498 30.7375 714.482C30.7375 714.466 30.7375 714.451 30.7375 714.435C30.7375 714.42 30.7375 714.404 30.7375 714.389C30.7375 714.374 30.7375 714.359 30.7375 714.343C30.7375 714.328 30.7375 714.313 30.7375 714.298C30.7375 714.283 30.7375 714.268 30.7375 714.253C30.7375 714.238 30.7375 714.223 30.7375 714.209C30.7375 714.194 30.7375 714.179 30.7375 714.164C30.7375 714.15 30.7375 714.135 30.7375 714.121C30.7375 714.106 30.7375 714.092 30.7375 714.077C30.7375 714.063 30.7375 714.049 30.7375 714.035C30.7375 714.02 30.7375 714.006 30.7375 713.992C30.7375 713.978 30.7375 713.964 30.7375 713.95C30.7375 713.936 30.7375 713.922 30.7375 713.908C30.7375 713.895 30.7375 713.881 30.7375 713.867C30.7375 713.854 30.7375 713.84 30.7375 713.826C30.7375 713.813 30.7375 713.799 30.7375 713.786C30.7375 713.772 30.7375 713.759 30.7375 713.746C30.7375 713.733 30.7375 713.719 30.7375 713.706C30.7375 713.693 30.7375 713.68 30.7375 713.667C30.7375 713.654 30.7375 713.641 30.7375 713.628C30.7375 713.615 30.7375 713.602 30.7375 713.59C30.7375 713.577 30.7375 713.564 30.7375 713.551C30.7375 713.539 30.7375 713.526 30.7375 713.514C30.7375 713.501 30.7375 713.489 30.7375 713.476C30.7375 713.464 30.7375 713.452 30.7375 713.439C30.7375 713.427 30.7375 713.415 30.7375 713.403C30.7375 713.391 30.7375 713.379 30.7375 713.367C30.7375 713.355 30.7375 713.343 30.7375 713.331C30.7375 713.319 30.7375 713.307 30.7375 713.295C30.7375 713.284 30.7375 713.272 30.7375 713.26C30.7375 713.249 30.7375 713.237 30.7375 713.225C30.7375 713.214 30.7375 713.203 30.7375 713.191C30.7375 713.18 30.7375 713.168 30.7375 713.157C30.7375 713.146 30.7375 713.135 30.7375 713.124C30.7375 713.112 30.7375 713.101 30.7375 713.09C30.7375 713.079 30.7375 713.068 30.7375 713.057C30.7375 713.046 30.7375 713.036 30.7375 713.025C30.7375 713.014 30.7375 713.003 30.7375 712.993C30.7375 712.982 30.7375 712.971 30.7375 712.961C30.7375 712.95 30.7375 712.94 30.7375 712.929C30.7375 712.919 30.7375 712.908 30.7375 712.898C30.7375 712.888 30.7375 712.878 30.7375 712.867C30.7375 712.857 30.7375 712.847 30.7375 712.837C30.7375 712.827 30.7375 712.817 30.7375 712.807C30.7375 712.797 30.7375 712.787 30.7375 712.777C30.7375 712.767 30.7375 712.757 30.7375 712.747C30.7375 712.738 30.7375 712.728 30.7375 712.718C30.7375 712.709 30.7375 712.699 30.7375 712.69C30.7375 712.68 30.7375 712.671 30.7375 712.661C30.7375 712.652 30.7375 712.642 30.7375 712.633C30.7375 712.624 30.7375 712.615 30.7375 712.605C30.7375 712.596 30.7375 712.587 30.7375 712.578C30.7375 712.569 30.7375 712.56 30.7375 712.551C30.7375 712.542 30.7375 712.533 30.7375 712.524C30.7375 712.515 30.7375 712.506 30.7375 712.498C30.7375 712.489 30.7375 712.48 30.7375 712.471C30.7375 712.463 30.7375 712.454 30.7375 712.446C30.7375 712.437 30.7375 712.429 30.7375 712.42C30.7375 712.412 30.7375 712.403 30.7375 712.395C30.7375 712.387 30.7375 712.378 30.7375 712.37C30.7375 712.362 30.7375 712.354 30.7375 712.345C30.7375 712.337 30.7375 712.329 30.7375 712.321C30.7375 712.313 30.7375 712.305 30.7375 712.297C30.7375 712.289 30.7375 712.281 30.7375 712.273C30.7375 712.266 30.7375 712.258 30.7375 712.25C30.7375 712.242 30.7375 712.235 30.7375 712.227C30.7375 712.219 30.7375 712.212 30.7375 712.204C30.7375 712.197 30.7375 712.189 30.7375 712.182C30.7375 712.174 30.7375 712.167 30.7375 712.16C30.7375 712.152 30.7375 712.145 30.7375 712.138C30.7375 712.131 30.7375 712.123 30.7375 712.116C30.7375 712.109 30.7375 712.102 30.7375 712.095C30.7375 712.088 30.7375 712.081 30.7375 712.074C30.7375 712.067 30.7375 712.06 30.7375 712.053C30.7375 712.046 30.7375 712.04 30.7375 712.033C30.7375 712.026 30.7375 712.019 30.7375 712.013C30.7375 712.006 30.7375 711.999 30.7375 711.993C30.7375 711.986 30.7375 711.98 30.7375 711.973C30.7375 711.967 30.7375 711.96 30.7375 711.954C30.7375 711.947 30.7375 711.941 30.7375 711.935C30.7375 711.928 30.7375 711.922 30.7375 711.916C30.7375 711.91 30.7375 711.904 30.7375 711.897C30.7375 711.891 30.7375 711.885 30.7375 711.879C30.7375 711.873 30.7375 711.867 30.7375 711.861C30.7375 711.855 30.7375 711.849 30.7375 711.843C30.7375 711.838 30.7375 711.832 30.7375 711.826C30.7375 711.82 30.7375 711.815 30.7375 711.809C30.7375 711.803 30.7375 711.797 30.7375 711.792C30.7375 711.786 30.7375 711.781 30.7375 711.775C30.7375 711.77 30.7375 711.764 30.7375 711.759C30.7375 711.753 30.7375 711.748 30.7375 711.743C30.7375 711.737 30.7375 711.732 30.7375 711.727C30.7375 711.721 30.7375 711.716 30.7375 711.711C30.7375 711.706 30.7375 711.701 30.7375 711.696C30.7375 711.69 30.7375 711.685 30.7375 711.68C30.7375 711.675 30.7375 711.67 30.7375 711.665C30.7375 711.66 30.7375 711.656 30.7375 711.651C30.7375 711.646 30.7375 711.641 30.7375 711.636C30.7375 711.631 30.7375 711.627 30.7375 711.622C30.7375 711.617 30.7375 711.613 30.7375 711.608C30.7375 711.603 30.7375 711.599 30.7375 711.594C30.7375 711.59 30.7375 711.585 30.7375 711.581C30.7375 711.576 30.7375 711.572 30.7375 711.567C30.7375 711.563 30.7375 711.559 30.7375 711.554C30.7375 711.55 30.7375 711.546 30.7375 711.541C30.7375 711.537 30.7375 711.533 30.7375 711.529C30.7375 711.525 30.7375 711.52 30.7375 711.516C30.7375 711.512 30.7375 711.508 30.7375 711.504C30.7375 711.5 30.7375 711.496 30.7375 711.492C30.7375 711.488 30.7375 711.484 30.7375 711.48C30.7375 711.477 30.7375 711.473 30.7375 711.469C30.7375 711.465 30.7375 711.461 30.7375 711.457C30.7375 711.454 30.7375 711.45 30.7375 711.446C30.7375 711.443 30.7375 711.439 30.7375 711.435C30.7375 711.432 30.7375 711.428 30.7375 711.425C30.7375 711.421 30.7375 711.418 30.7375 711.414C30.7375 711.411 30.7375 711.407 30.7375 711.404C30.7375 711.4 30.7375 711.397 30.7375 711.394C30.7375 711.39 30.7375 711.387 30.7375 711.384C30.7375 711.381 30.7375 711.377 30.7375 711.374C30.7375 711.371 30.7375 711.368 30.7375 711.365C30.7375 711.361 30.7375 711.358 30.7375 711.355C30.7375 711.352 30.7375 711.349 30.7375 711.346C30.7375 711.343 30.7375 711.34 30.7375 711.337C30.7375 711.334 30.7375 711.331 30.7375 711.328C30.7375 711.325 30.7375 711.323 30.7375 711.32C30.7375 711.317 30.7375 711.314 30.7375 711.311C30.7375 711.309 30.7375 711.306 30.7375 711.303C30.7375 711.3 30.7375 711.298 30.7375 711.295C30.7375 711.292 30.7375 711.29 30.7375 711.287C30.7375 711.285 30.7375 711.282 30.7375 711.279C30.7375 711.277 30.7375 711.274 30.7375 711.272C30.7375 711.269 30.7375 711.267 30.7375 711.265C30.7375 711.262 30.7375 711.26 30.7375 711.257C30.7375 711.255 30.7375 711.253 30.7375 711.25C30.7375 711.248 30.7375 711.246 30.7375 711.243C30.7375 711.241 30.7375 711.239 30.7375 711.237C30.7375 711.235 30.7375 711.232 30.7375 711.23C30.7375 711.228 30.7375 711.226 30.7375 711.224C30.7375 711.222 30.7375 711.22 30.7375 711.218C30.7375 711.216 30.7375 711.214 30.7375 711.212C30.7375 711.21 30.7375 711.208 30.7375 711.206C30.7375 711.204 30.7375 711.202 30.7375 711.2C30.7375 711.198 30.7375 711.196 30.7375 711.194C30.7375 711.192 30.7375 711.191 30.7375 711.189C30.7375 711.187 30.7375 711.185 30.7375 711.183C30.7375 711.182 30.7375 711.18 30.7375 711.178C30.7375 711.177 30.7375 711.175 30.7375 711.173C30.7375 711.172 30.7375 711.17 30.7375 711.168C30.7375 711.167 30.7375 711.165 30.7375 711.164C30.7375 711.162 30.7375 711.16 30.7375 711.159C30.7375 711.157 30.7375 711.156 30.7375 711.154C30.7375 711.153 30.7375 711.152 30.7375 711.15C30.7375 711.149 30.7375 711.147 30.7375 711.146C30.7375 711.144 30.7375 711.143 30.7375 711.142C30.7375 711.14 30.7375 711.139 30.7375 711.138C30.7375 711.136 30.7375 711.135 30.7375 711.134C30.7375 711.133 30.7375 711.131 30.7375 711.13C30.7375 711.129 30.7375 711.128 30.7375 711.127C30.7375 711.125 30.7375 711.124 30.7375 711.123C30.7375 711.122 30.7375 711.121 30.7375 711.12C30.7375 711.119 30.7375 711.117 30.7375 711.116C30.7375 711.115 30.7375 711.114 30.7375 711.113C30.7375 711.112 30.7375 711.111 30.7375 711.11C30.7375 711.109 30.7375 711.108 30.7375 711.107C30.7375 711.106 30.7375 711.105 30.7375 711.104C30.7375 711.103 30.7375 711.103 30.7375 711.102C30.7375 711.101 30.7375 711.1 30.7375 711.099C30.7375 711.098 30.7375 711.097 30.7375 711.096C30.7375 711.096 30.7375 711.095 30.7375 711.094C30.7375 711.093 30.7375 711.092 30.7375 711.092C30.7375 711.091 30.7375 711.09 30.7375 711.089C30.7375 711.089 30.7375 711.088 30.7375 711.087C30.7375 711.087 30.7375 711.086 30.7375 711.085C30.7375 711.085 30.7375 711.084 30.7375 711.083C30.7375 711.083 30.7375 711.082 30.7375 711.081C30.7375 711.081 30.7375 711.08 30.7375 711.08C30.7375 711.079 30.7375 711.078 30.7375 711.078C30.7375 711.077 30.7375 711.077 30.7375 711.076C30.7375 711.076 30.7375 711.075 30.7375 711.075C30.7375 711.074 30.7375 711.074 30.7375 711.073C30.7375 711.073 30.7375 711.072 30.7375 711.072C30.7375 711.071 30.7375 711.071 30.7375 711.07C30.7375 711.07 30.7375 711.07 30.7375 711.069C30.7375 711.069 30.7375 711.068 30.7375 711.068C30.7375 711.068 30.7375 711.067 30.7375 711.067C30.7375 711.067 30.7375 711.066 30.7375 711.066C30.7375 711.065 30.7375 711.065 30.7375 711.065C30.7375 711.065 30.7375 711.064 30.7375 711.064C30.7375 711.064 30.7375 711.063 30.7375 711.063C30.7375 711.063 30.7375 711.062 30.7375 711.062C30.7375 711.062 30.7375 711.062 30.7375 711.061C30.7375 711.061 30.7375 711.061 30.7375 711.061C30.7375 711.061 30.7375 711.06 30.7375 711.06C30.7375 711.06 30.7375 711.06 30.7375 711.059C30.7375 711.059 30.7375 711.059 30.7375 711.059C30.7375 711.059 30.7375 711.059 30.7375 711.058C30.7375 711.058 30.7375 711.058 30.7375 711.058C30.7375 711.058 30.7375 711.058 30.7375 711.057C30.7375 711.057 30.7375 711.057 30.7375 711.057C30.7375 711.057 30.7375 711.057 30.7375 711.057C30.7375 711.057 30.7375 711.057 30.7375 711.056C30.7375 711.056 30.7375 711.056 30.7375 711.056C30.7375 711.056 30.7375 711.056 30.7375 711.056C30.7375 711.056 30.7375 711.056 30.7375 711.056C30.7375 711.056 30.7375 711.056 30.7375 711.056C30.7375 711.055 30.7375 711.055 30.7375 711.055C30.7375 711.055 30.7375 711.055 30.7375 711.055C30.7375 711.055 30.7375 711.055 30.7375 711.055C30.7375 711.055 30.7375 711.055 30.7375 711.055C30.7375 711.055 30.7375 711.055 30.7375 711.055C30.7375 711.055 30.7375 711.055 30.7375 711.055C30.7375 711.055 30.7375 711.055 30.7375 711.055C30.7375 711.055 30.7375 711.055 30.7375 711.055C30.7375 711.055 30.7375 711.055 30.7375 711.055C30.1244 711.055 29.5112 711.055 29.5112 711.055C29.5112 711.055 29.5112 711.055 30.1244 711.055Z" fill="#E957DD"/>
<rect x="29.472" width="14.8096" height="14.8096" transform="rotate(45 29.472 0)" fill="#69E4FF"/>
<rect x="19" y="764.472" width="14.8096" height="14.8096" transform="rotate(-45 19 764.472)" fill="#69E4FF"/>
</svg>
