<svg width="256" height="345" viewBox="0 0 256 345" fill="none" xmlns="http://www.w3.org/2000/svg">
<path d="M256 68.3267V268.686L247.127 274.795V62.2192L256 68.3267Z" fill="#E957DD"/>
<path d="M116.567 344.704L14.118 344.704L10.994 335.831L119.689 335.831L116.567 344.704Z" fill="#E957DD"/>
<path d="M247.126 333.333C247.126 334.713 246.007 335.832 244.627 335.832H3.49897C2.11895 335.832 1.00021 334.713 1.00021 333.333V88.894C1.00021 88.1642 1.31926 87.4709 1.87355 86.9962L101.582 1.60091C102.035 1.21313 102.611 1 103.207 1H244.627C246.007 1 247.126 2.11873 247.126 3.49874V333.333Z" fill="black" fill-opacity="0.12"/>
<path d="M101.582 1.60091L102.232 2.36004L101.582 1.60091ZM1.87355 86.9962L1.22339 86.237L1.87355 86.9962ZM244.627 334.833H3.49897V336.832H244.627V334.833ZM1.99971 333.333V88.894H0.000716031V333.333H1.99971ZM2.52371 87.7553L102.232 2.36004L100.932 0.841774L1.22339 86.237L2.52371 87.7553ZM103.207 1.9995H244.627V0.000502408H103.207V1.9995ZM246.127 3.49874V333.333H248.126V3.49874H246.127ZM244.627 1.9995C245.455 1.9995 246.127 2.67073 246.127 3.49874H248.126C248.126 1.56672 246.559 0.000502408 244.627 0.000502408V1.9995ZM102.232 2.36004C102.504 2.12738 102.85 1.9995 103.207 1.9995V0.000502408C102.373 0.000502408 101.566 0.298884 100.932 0.841774L102.232 2.36004ZM1.99971 88.894C1.99971 88.4561 2.19114 88.0401 2.52371 87.7553L1.22339 86.237C0.447389 86.9016 0.000716031 87.8723 0.000716031 88.894H1.99971ZM3.49897 334.833C2.67095 334.833 1.99971 334.161 1.99971 333.333H0.000716031C0.000716031 335.265 1.56695 336.832 3.49897 336.832V334.833ZM244.627 336.832C246.559 336.832 248.126 335.265 248.126 333.333H246.127C246.127 334.161 245.455 334.833 244.627 334.833V336.832Z" fill="#E957DD"/>
<mask id="path-5-inside-1_193_224" fill="white">
<path d="M5.12271 63.1357C3.50121 64.522 1.00021 63.3697 1.00021 61.2364V3.49874C1.00021 2.11873 2.11894 1 3.49896 1H71.033C73.3545 1 74.4213 3.88948 72.6568 5.398L5.12271 63.1357Z"/>
</mask>
<path d="M5.12271 63.1357C3.50121 64.522 1.00021 63.3697 1.00021 61.2364V3.49874C1.00021 2.11873 2.11894 1 3.49896 1H71.033C73.3545 1 74.4213 3.88948 72.6568 5.398L5.12271 63.1357Z" fill="black" fill-opacity="0.12"/>
<path d="M5.12271 63.1357L3.82371 61.6163L3.82371 61.6163L5.12271 63.1357ZM2.99921 61.2364V3.49874H-0.998782V61.2364H2.99921ZM3.49896 2.999H71.033V-0.998995H3.49896V2.999ZM71.3578 3.87859L3.82371 61.6163L6.42171 64.6551L73.9558 6.9174L71.3578 3.87859ZM71.033 2.999C71.1823 2.999 71.2689 3.0404 71.327 3.08332C71.3957 3.134 71.4615 3.21644 71.5019 3.32566C71.5422 3.43487 71.5457 3.54032 71.5264 3.62347C71.5101 3.69387 71.4712 3.7816 71.3578 3.87859L73.9558 6.9174C77.1318 4.20206 75.2116 -0.998995 71.033 -0.998995V2.999ZM2.99921 3.49874C2.99921 3.22274 3.22295 2.999 3.49896 2.999V-0.998995C1.01492 -0.998995 -0.998782 1.01471 -0.998782 3.49874H2.99921ZM-0.998782 61.2364C-0.998782 65.0764 3.50301 67.1504 6.42171 64.6551L3.82371 61.6163C3.49941 61.8935 2.99921 61.6631 2.99921 61.2364H-0.998782Z" fill="#E957DD" mask="url(#path-5-inside-1_193_224)"/>
<path d="M237.132 163.069C237.132 164.337 236.104 165.365 234.836 165.365H13.291C12.0231 165.365 10.9952 164.337 10.9952 163.069V92.3015C10.9952 91.631 11.2884 90.9939 11.7977 90.5578L103.416 12.0988C103.832 11.7425 104.362 11.5468 104.909 11.5468H234.836C236.104 11.5468 237.132 12.5746 237.132 13.8426V163.069Z" fill="white"/>
<path d="M14.0532 42.8454C12.4317 44.2317 9.93066 43.0795 9.93066 40.9461V11.2964C9.93066 9.91633 11.0494 8.79761 12.4294 8.79761H47.11C49.4314 8.79761 50.4982 11.6871 48.7337 13.1956L14.0532 42.8454Z" fill="white"/>
</svg>
