<svg width="508" height="192" viewBox="0 0 508 192" fill="none" xmlns="http://www.w3.org/2000/svg">
<path d="M379.769 70.9453L379.856 70.8701V71.1777H508V191.785H75V35.5889H338.849L379.769 70.9453Z" fill="#D9D9D9" fill-opacity="0.2"/>
<mask id="mask0_5_21" style="mask-type:luminance" maskUnits="userSpaceOnUse" x="75" y="35" width="433" height="157">
<path d="M379.769 70.9453L379.856 70.8701V71.1777H508V191.785H75V35.5889H338.849L379.769 70.9453Z" fill="white"/>
</mask>
<g mask="url(#mask0_5_21)">
<path d="M379.769 70.9453L378.476 72.4414L379.77 73.559L381.062 72.4405L379.769 70.9453ZM379.856 70.8701H381.833V66.5451L378.562 69.3749L379.856 70.8701ZM379.856 71.1777H377.879V73.1549H379.856V71.1777ZM508 71.1777H509.977V69.2006H508V71.1777ZM508 191.785V193.762H509.977V191.785H508ZM75 191.785H73.0228V193.762H75V191.785ZM75 35.5889V33.6117H73.0228V35.5889H75ZM338.849 35.5889L340.142 34.0928L339.585 33.6117H338.849V35.5889ZM379.769 70.9453L381.062 72.4405L381.149 72.3653L379.856 70.8701L378.562 69.3749L378.475 69.4501L379.769 70.9453ZM379.856 70.8701H377.879V71.1777H379.856H381.833V70.8701H379.856ZM379.856 71.1777V73.1549H508V71.1777V69.2006H379.856V71.1777ZM508 71.1777H506.023V191.785H508H509.977V71.1777H508ZM508 191.785V189.808H75V191.785V193.762H508V191.785ZM75 191.785H76.9772V35.5889H75H73.0228V191.785H75ZM75 35.5889V37.566H338.849V35.5889V33.6117H75V35.5889ZM338.849 35.5889L337.556 37.0849L378.476 72.4414L379.769 70.9453L381.061 69.4492L340.142 34.0928L338.849 35.5889Z" fill="#E957DD"/>
</g>
<path d="M508 53.3838H387.912L343.243 14.7881V0H508V53.3838Z" fill="#D9D9D9" fill-opacity="0.2"/>
<mask id="mask1_5_21" style="mask-type:luminance" maskUnits="userSpaceOnUse" x="343" y="0" width="165" height="54">
<path d="M508 53.3838H387.912L343.243 14.7881V0H508V53.3838Z" fill="white"/>
</mask>
<g mask="url(#mask1_5_21)">
<path d="M508 53.3838V55.3609H509.978V53.3838H508ZM387.912 53.3838L386.619 54.8798L387.176 55.3609H387.912V53.3838ZM343.243 14.7881H341.266V15.6927L341.95 16.2841L343.243 14.7881ZM343.243 -7.27177e-06V-1.97717H341.266V-7.27177e-06H343.243ZM508 -7.27177e-06H509.978V-1.97717H508V-7.27177e-06ZM508 53.3838V51.4066H387.912V53.3838V55.3609H508V53.3838ZM387.912 53.3838L389.204 51.8877L344.535 13.292L343.243 14.7881L341.95 16.2841L386.619 54.8798L387.912 53.3838ZM343.243 14.7881H345.22V-7.27177e-06H343.243H341.266V14.7881H343.243ZM343.243 -7.27177e-06V1.97716H508V-7.27177e-06V-1.97717H343.243V-7.27177e-06ZM508 -7.27177e-06H506.023V53.3838H508H509.978V-7.27177e-06H508Z" fill="#69E4FF"/>
</g>
<g filter="url(#filter2_f_5_21)">
<path d="M28 114H75" stroke="#D9D9D9" stroke-opacity="0.47" stroke-width="2" stroke-linecap="round"/>
</g>
<g filter="url(#filter3_f_5_21)">
<path d="M16.8866 104L6 114.887L16.8866 125.773L27.7732 114.887L16.8866 104Z" fill="#69E4FF"/>
</g>
<defs>
<filter id="filter2_f_5_21" x="26.5" y="112.5" width="50" height="3" filterUnits="userSpaceOnUse" color-interpolation-filters="sRGB">
<feFlood flood-opacity="0" result="BackgroundImageFix"/>
<feBlend mode="normal" in="SourceGraphic" in2="BackgroundImageFix" result="shape"/>
<feGaussianBlur stdDeviation="0.25" result="effect1_foregroundBlur_5_21"/>
</filter>
<filter id="filter3_f_5_21" x="0.6" y="98.6" width="32.5732" height="32.5732" filterUnits="userSpaceOnUse" color-interpolation-filters="sRGB">
<feFlood flood-opacity="0" result="BackgroundImageFix"/>
<feBlend mode="normal" in="SourceGraphic" in2="BackgroundImageFix" result="shape"/>
<feGaussianBlur stdDeviation="2.7" result="effect1_foregroundBlur_5_21"/>
</filter>
</defs>
</svg>
