<svg width="604" height="135" viewBox="0 0 604 135" fill="none" xmlns="http://www.w3.org/2000/svg">
<g filter="url(#filter0_d_1004_1356)">
<mask id="path-1-inside-1_1004_1356" fill="white">
<path d="M557.257 52.1025H555.574L475.898 99.8633H437.963L397.857 126.999H203.281L163.176 99.8633H125.293L45.6172 52.1025H46.0557L4 0.830078V0H599.994L557.257 52.1025Z"/>
</mask>
<path d="M557.257 52.1025V53.7325H558.028L558.517 53.1363L557.257 52.1025ZM555.574 52.1025V50.4725H555.123L554.736 50.7045L555.574 52.1025ZM475.898 99.8633V101.493H476.35L476.736 101.261L475.898 99.8633ZM437.963 99.8633V98.2333H437.463L437.049 98.5133L437.963 99.8633ZM397.857 126.999V128.629H398.357L398.771 128.349L397.857 126.999ZM203.281 126.999L202.368 128.349L202.782 128.629H203.281V126.999ZM163.176 99.8633L164.089 98.5133L163.675 98.2333H163.176V99.8633ZM125.293 99.8633L124.455 101.261L124.842 101.493H125.293V99.8633ZM45.6172 52.1025V50.4725H39.7276L44.7791 53.5006L45.6172 52.1025ZM46.0557 52.1025V53.7325H49.5008L47.3159 51.0688L46.0557 52.1025ZM4 0.830078H2.37V1.41306L2.73972 1.86381L4 0.830078ZM4 0V-1.63H2.37V0H4ZM599.994 0L601.254 1.03374L603.439 -1.63L599.994 -1.63V0ZM557.257 52.1025V50.4725H555.574V52.1025V53.7325H557.257V52.1025ZM555.574 52.1025L554.736 50.7045L475.06 98.4652L475.898 99.8633L476.736 101.261L556.412 53.5006L555.574 52.1025ZM475.898 99.8633V98.2333H437.963V99.8633V101.493H475.898V99.8633ZM437.963 99.8633L437.049 98.5133L396.944 125.649L397.857 126.999L398.771 128.349L438.876 101.213L437.963 99.8633ZM397.857 126.999V125.369H203.281V126.999V128.629H397.857V126.999ZM203.281 126.999L204.195 125.649L164.089 98.5133L163.176 99.8633L162.262 101.213L202.368 128.349L203.281 126.999ZM163.176 99.8633V98.2333H125.293V99.8633V101.493H163.176V99.8633ZM125.293 99.8633L126.131 98.4652L46.4552 50.7045L45.6172 52.1025L44.7791 53.5006L124.455 101.261L125.293 99.8633ZM45.6172 52.1025V53.7325H46.0557V52.1025V50.4725H45.6172V52.1025ZM46.0557 52.1025L47.3159 51.0688L5.26028 -0.203652L4 0.830078L2.73972 1.86381L44.7954 53.1363L46.0557 52.1025ZM4 0.830078H5.63V0H4H2.37V0.830078H4ZM4 0V1.63H599.994V0V-1.63H4V0ZM599.994 0L598.734 -1.03374L555.997 51.0688L557.257 52.1025L558.517 53.1363L601.254 1.03374L599.994 0Z" fill="#E957DD" fill-opacity="0.54" mask="url(#path-1-inside-1_1004_1356)"/>
</g>
<defs>
<filter id="filter0_d_1004_1356" x="0" y="0" width="603.994" height="134.999" filterUnits="userSpaceOnUse" color-interpolation-filters="sRGB">
<feFlood flood-opacity="0" result="BackgroundImageFix"/>
<feColorMatrix in="SourceAlpha" type="matrix" values="0 0 0 0 0 0 0 0 0 0 0 0 0 0 0 0 0 0 127 0" result="hardAlpha"/>
<feOffset dy="4"/>
<feGaussianBlur stdDeviation="2"/>
<feComposite in2="hardAlpha" operator="out"/>
<feColorMatrix type="matrix" values="0 0 0 0 0 0 0 0 0 0 0 0 0 0 0 0 0 0 0.25 0"/>
<feBlend mode="normal" in2="BackgroundImageFix" result="effect1_dropShadow_1004_1356"/>
<feBlend mode="normal" in="SourceGraphic" in2="effect1_dropShadow_1004_1356" result="shape"/>
</filter>
</defs>
</svg>
