<svg width="1321" height="163" viewBox="0 0 1321 163" fill="none" xmlns="http://www.w3.org/2000/svg">
<g filter="url(#filter0_d_886_1411)">
<mask id="path-1-inside-1_886_1411" fill="white">
<path d="M1180.2 52.1025H915.564L835.889 99.8633H797.953L757.848 126.999H563.271L523.166 99.8633H485.283L405.607 52.1025H140.531L55 0.831055V0H1267.11L1180.2 52.1025Z"/>
</mask>
<path d="M1180.2 52.1025V53.7325H1180.65L1181.03 53.5006L1180.2 52.1025ZM915.564 52.1025V50.4725H915.113L914.726 50.7045L915.564 52.1025ZM835.889 99.8633V101.493H836.34L836.727 101.261L835.889 99.8633ZM797.953 99.8633V98.2333H797.453L797.04 98.5133L797.953 99.8633ZM757.848 126.999V128.629H758.347L758.761 128.349L757.848 126.999ZM563.271 126.999L562.358 128.349L562.772 128.629H563.271V126.999ZM523.166 99.8633L524.079 98.5133L523.666 98.2333H523.166V99.8633ZM485.283 99.8633L484.445 101.261L484.832 101.493H485.283V99.8633ZM405.607 52.1025L406.445 50.7045L406.059 50.4725H405.607V52.1025ZM140.531 52.1025L139.693 53.5006L140.08 53.7325H140.531V52.1025ZM55 0.831055H53.37V1.75438L54.1619 2.22911L55 0.831055ZM55 0V-1.63H53.37V0H55ZM1267.11 0L1267.95 1.39806L1273 -1.63L1267.11 -1.63V0ZM1180.2 52.1025V50.4725H915.564V52.1025V53.7325H1180.2V52.1025ZM915.564 52.1025L914.726 50.7045L835.051 98.4652L835.889 99.8633L836.727 101.261L916.403 53.5006L915.564 52.1025ZM835.889 99.8633V98.2333H797.953V99.8633V101.493H835.889V99.8633ZM797.953 99.8633L797.04 98.5133L756.934 125.649L757.848 126.999L758.761 128.349L798.867 101.213L797.953 99.8633ZM757.848 126.999V125.369H563.271V126.999V128.629H757.848V126.999ZM563.271 126.999L564.185 125.649L524.079 98.5133L523.166 99.8633L522.253 101.213L562.358 128.349L563.271 126.999ZM523.166 99.8633V98.2333H485.283V99.8633V101.493H523.166V99.8633ZM485.283 99.8633L486.121 98.4652L406.445 50.7045L405.607 52.1025L404.769 53.5006L484.445 101.261L485.283 99.8633ZM405.607 52.1025V50.4725H140.531V52.1025V53.7325H405.607V52.1025ZM140.531 52.1025L141.369 50.7045L55.8381 -0.567L55 0.831055L54.1619 2.22911L139.693 53.5006L140.531 52.1025ZM55 0.831055H56.63V0H55H53.37V0.831055H55ZM55 0V1.63H1267.11V0V-1.63H55V0ZM1267.11 0L1266.28 -1.39806L1179.36 50.7045L1180.2 52.1025L1181.03 53.5006L1267.95 1.39806L1267.11 0Z" fill="#E957DD" fill-opacity="0.54" mask="url(#path-1-inside-1_886_1411)"/>
</g>
<g filter="url(#filter1_d_886_1411)">
<mask id="path-3-inside-2_886_1411" fill="white">
<path d="M1222.85 55.3848H936.192L849.884 106.154H808.791L765.346 135H554.576L511.131 106.154H470.096L383.788 55.3848H96.6504L4 0.882812V0H1317L1222.85 55.3848Z"/>
</mask>
<path d="M1222.85 55.3848H936.192L849.884 106.154H808.791L765.346 135H554.576L511.131 106.154H470.096L383.788 55.3848H96.6504L4 0.882812V0H1317L1222.85 55.3848Z" fill="white" fill-opacity="0.18" shape-rendering="crispEdges"/>
<path d="M1222.85 55.3848V56.3848H1223.12L1223.35 56.2467L1222.85 55.3848ZM936.192 55.3848V54.3848H935.92L935.685 54.5228L936.192 55.3848ZM849.884 106.154V107.154H850.156L850.391 107.016L849.884 106.154ZM808.791 106.154V105.154H808.489L808.238 105.321L808.791 106.154ZM765.346 135V136H765.647L765.899 135.833L765.346 135ZM554.576 135L554.023 135.833L554.274 136H554.576V135ZM511.131 106.154L511.684 105.321L511.433 105.154H511.131V106.154ZM470.096 106.154L469.589 107.016L469.823 107.154H470.096V106.154ZM383.788 55.3848L384.295 54.5228L384.06 54.3848H383.788V55.3848ZM96.6504 55.3848L96.1434 56.2467L96.3781 56.3848H96.6504V55.3848ZM4 0.882812H3V1.45475L3.49297 1.74474L4 0.882812ZM4 0V-1H3V0H4ZM1317 0L1317.51 0.86193L1320.67 -1H1317V0ZM1222.85 55.3848V54.3848H936.192V55.3848V56.3848H1222.85V55.3848ZM936.192 55.3848L935.685 54.5228L849.377 105.292L849.884 106.154L850.391 107.016L936.699 56.2467L936.192 55.3848ZM849.884 106.154V105.154H808.791V106.154V107.154H849.884V106.154ZM808.791 106.154L808.238 105.321L764.793 134.167L765.346 135L765.899 135.833L809.344 106.987L808.791 106.154ZM765.346 135V134H554.576V135V136H765.346V135ZM554.576 135L555.129 134.167L511.684 105.321L511.131 106.154L510.578 106.987L554.023 135.833L554.576 135ZM511.131 106.154V105.154H470.096V106.154V107.154H511.131V106.154ZM470.096 106.154L470.603 105.292L384.295 54.5228L383.788 55.3848L383.281 56.2467L469.589 107.016L470.096 106.154ZM383.788 55.3848V54.3848H96.6504V55.3848V56.3848H383.788V55.3848ZM96.6504 55.3848L97.1574 54.5228L4.50703 0.0208853L4 0.882812L3.49297 1.74474L96.1434 56.2467L96.6504 55.3848ZM4 0.882812H5V0H4H3V0.882812H4ZM4 0V1H1317V0V-1H4V0ZM1317 0L1316.49 -0.86193L1222.34 54.5228L1222.85 55.3848L1223.35 56.2467L1317.51 0.86193L1317 0Z" fill="white" fill-opacity="0.43" mask="url(#path-3-inside-2_886_1411)"/>
</g>
<g filter="url(#filter2_d_886_1411)">
<mask id="path-5-inside-3_886_1411" fill="white">
<path d="M851.096 125.77H810.003L766.558 154.615H555.788L512.343 125.77H471.308L385 75H937.404L851.096 125.77Z"/>
</mask>
<path d="M851.096 125.77V126.77H851.368L851.603 126.631L851.096 125.77ZM810.003 125.77V124.77H809.701L809.45 124.936L810.003 125.77ZM766.558 154.615V155.615H766.859L767.111 155.448L766.558 154.615ZM555.788 154.615L555.235 155.448L555.486 155.615H555.788V154.615ZM512.343 125.77L512.896 124.936L512.645 124.77H512.343V125.77ZM471.308 125.77L470.801 126.631L471.035 126.77H471.308V125.77ZM385 75V74H381.328L384.493 75.8619L385 75ZM937.404 75L937.911 75.8619L941.077 74H937.404V75ZM851.096 125.77V124.77H810.003V125.77V126.77H851.096V125.77ZM810.003 125.77L809.45 124.936L766.004 153.782L766.558 154.615L767.111 155.448L810.556 126.603L810.003 125.77ZM766.558 154.615V153.615H555.788V154.615V155.615H766.558V154.615ZM555.788 154.615L556.341 153.782L512.896 124.936L512.343 125.77L511.79 126.603L555.235 155.448L555.788 154.615ZM512.343 125.77V124.77H471.308V125.77V126.77H512.343V125.77ZM471.308 125.77L471.815 124.908L385.507 74.1381L385 75L384.493 75.8619L470.801 126.631L471.308 125.77ZM385 75V76H937.404V75V74H385V75ZM937.404 75L936.897 74.1381L850.589 124.908L851.096 125.77L851.603 126.631L937.911 75.8619L937.404 75Z" fill="white" fill-opacity="0.52" mask="url(#path-5-inside-3_886_1411)"/>
</g>
<defs>
<filter id="filter0_d_886_1411" x="51" y="0" width="1220.11" height="134.999" filterUnits="userSpaceOnUse" color-interpolation-filters="sRGB">
<feFlood flood-opacity="0" result="BackgroundImageFix"/>
<feColorMatrix in="SourceAlpha" type="matrix" values="0 0 0 0 0 0 0 0 0 0 0 0 0 0 0 0 0 0 127 0" result="hardAlpha"/>
<feOffset dy="4"/>
<feGaussianBlur stdDeviation="2"/>
<feComposite in2="hardAlpha" operator="out"/>
<feColorMatrix type="matrix" values="0 0 0 0 0 0 0 0 0 0 0 0 0 0 0 0 0 0 0.25 0"/>
<feBlend mode="normal" in2="BackgroundImageFix" result="effect1_dropShadow_886_1411"/>
<feBlend mode="normal" in="SourceGraphic" in2="effect1_dropShadow_886_1411" result="shape"/>
</filter>
<filter id="filter1_d_886_1411" x="0" y="0" width="1321" height="143" filterUnits="userSpaceOnUse" color-interpolation-filters="sRGB">
<feFlood flood-opacity="0" result="BackgroundImageFix"/>
<feColorMatrix in="SourceAlpha" type="matrix" values="0 0 0 0 0 0 0 0 0 0 0 0 0 0 0 0 0 0 127 0" result="hardAlpha"/>
<feOffset dy="4"/>
<feGaussianBlur stdDeviation="2"/>
<feComposite in2="hardAlpha" operator="out"/>
<feColorMatrix type="matrix" values="0 0 0 0 0 0 0 0 0 0 0 0 0 0 0 0 0 0 0.25 0"/>
<feBlend mode="normal" in2="BackgroundImageFix" result="effect1_dropShadow_886_1411"/>
<feBlend mode="normal" in="SourceGraphic" in2="effect1_dropShadow_886_1411" result="shape"/>
</filter>
<filter id="filter2_d_886_1411" x="381" y="75" width="560.404" height="87.6152" filterUnits="userSpaceOnUse" color-interpolation-filters="sRGB">
<feFlood flood-opacity="0" result="BackgroundImageFix"/>
<feColorMatrix in="SourceAlpha" type="matrix" values="0 0 0 0 0 0 0 0 0 0 0 0 0 0 0 0 0 0 127 0" result="hardAlpha"/>
<feOffset dy="4"/>
<feGaussianBlur stdDeviation="2"/>
<feComposite in2="hardAlpha" operator="out"/>
<feColorMatrix type="matrix" values="0 0 0 0 0 0 0 0 0 0 0 0 0 0 0 0 0 0 0.25 0"/>
<feBlend mode="normal" in2="BackgroundImageFix" result="effect1_dropShadow_886_1411"/>
<feBlend mode="normal" in="SourceGraphic" in2="effect1_dropShadow_886_1411" result="shape"/>
</filter>
</defs>
</svg>
