<svg width="306" height="409" viewBox="0 0 306 409" fill="none" xmlns="http://www.w3.org/2000/svg">
<mask id="path-1-inside-1_998_1301" fill="white">
<path d="M234.616 21.1064H305.629V408.445H223.377L206.518 389.192H99.1104L82.251 408.445H0V21.1064H71.0117L92.1191 0H213.51L234.616 21.1064Z"/>
</mask>
<path d="M234.616 21.1064L232.95 22.7731L233.64 23.4635H234.616V21.1064ZM305.629 21.1064H307.986V18.7494H305.629V21.1064ZM305.629 408.445V410.802H307.986V408.445H305.629ZM223.377 408.445L221.604 409.998L222.308 410.802H223.377V408.445ZM206.518 389.192L208.291 387.64L207.587 386.835H206.518V389.192ZM99.1104 389.192V386.835H98.0414L97.3371 387.64L99.1104 389.192ZM82.251 408.445V410.802H83.32L84.0242 409.998L82.251 408.445ZM0 408.445H-2.35703V410.802H0V408.445ZM0 21.1064V18.7494H-2.35703V21.1064H0ZM71.0117 21.1064V23.4635H71.988L72.6784 22.7732L71.0117 21.1064ZM92.1191 0V-2.35703H91.1429L90.4525 -1.66671L92.1191 0ZM213.51 0L215.176 -1.66667L214.486 -2.35703H213.51V0ZM234.616 21.1064V23.4635H305.629V21.1064V18.7494H234.616V21.1064ZM305.629 21.1064H303.272V408.445H305.629H307.986V21.1064H305.629ZM305.629 408.445V406.088H223.377V408.445V410.802H305.629V408.445ZM223.377 408.445L225.15 406.893L208.291 387.64L206.518 389.192L204.744 390.745L221.604 409.998L223.377 408.445ZM206.518 389.192V386.835H99.1104V389.192V391.549H206.518V389.192ZM99.1104 389.192L97.3371 387.64L80.4777 406.893L82.251 408.445L84.0242 409.998L100.884 390.745L99.1104 389.192ZM82.251 408.445V406.088H0V408.445V410.802H82.251V408.445ZM0 408.445H2.35703V21.1064H0H-2.35703V408.445H0ZM0 21.1064V23.4635H71.0117V21.1064V18.7494H0V21.1064ZM71.0117 21.1064L72.6784 22.7732L93.7858 1.66671L92.1191 0L90.4525 -1.66671L69.3451 19.4397L71.0117 21.1064ZM92.1191 0V2.35703H213.51V0V-2.35703H92.1191V0ZM213.51 0L211.843 1.66667L232.95 22.7731L234.616 21.1064L236.283 19.4398L215.176 -1.66667L213.51 0Z" fill="#E957DD" mask="url(#path-1-inside-1_998_1301)"/>
</svg>
