<svg width="222" height="30" viewBox="0 0 222 30" fill="none" xmlns="http://www.w3.org/2000/svg">
<path d="M39.2898 30L10 9H219L189.71 30H39.2898Z" fill="#E957DD"/>
<path d="M61.0402 15.7654H68.0631C68.7369 15.7654 69.1906 16.0793 69.4241 16.7072C69.4662 16.8565 69.4873 16.9809 69.4873 17.0804V19.63C69.4873 20.3268 69.1312 20.8436 68.4192 21.1805L70.1936 23.9598V24H68.1665C68.1474 24 67.598 23.108 66.5184 21.324H62.694C62.6672 21.3279 62.6538 21.3413 62.6538 21.3642V23.9368C62.6538 23.9636 62.6385 23.977 62.6079 23.977H61.0402C61.0134 23.977 61 23.9636 61 23.9368V15.8056C61.0038 15.7788 61.0172 15.7654 61.0402 15.7654ZM62.6538 17.3561V17.3733C62.6538 17.7178 62.6462 18.4911 62.6308 19.6932H67.8334V17.3561H62.6538ZM72.146 15.7654H80.1107V17.1149C80.1107 17.1608 80.0877 17.1838 80.0418 17.1838H72.5192V19.2051H78.6579C78.7038 19.2128 78.7268 19.2357 78.7268 19.274V20.5603C78.7268 20.6024 78.7038 20.6235 78.6579 20.6235H72.5192V22.6161H80.1451C80.1911 22.6237 80.2141 22.6467 80.2141 22.685V23.9311C80.2141 23.977 80.1911 24 80.1451 24H72.347C71.6732 24 71.1908 23.7071 70.8999 23.1214C70.808 22.8228 70.7621 22.5759 70.7621 22.3806V17.1838C70.7621 16.6478 70.942 16.265 71.3019 16.0353C71.5966 15.8554 71.878 15.7654 72.146 15.7654ZM82.2526 15.7654H89.4938C89.5129 15.7692 89.5225 15.7788 89.5225 15.7941V17.0919C89.5225 17.111 89.5129 17.1206 89.4938 17.1206H82.2411V22.5529H88.2534V20.6177H85.566C85.5468 20.6177 85.5372 20.6082 85.5372 20.589V19.0903C85.5372 19.0711 85.5468 19.0615 85.566 19.0615H89.6775C89.6967 19.0654 89.7062 19.0749 89.7062 19.0903V22.5816C89.7062 23.3013 89.3808 23.7492 88.73 23.9253C88.4544 23.9828 88.2285 24.0115 88.0524 24.0115H82.2526C81.8468 24.0766 81.4946 23.9904 81.196 23.7531C80.9012 23.5157 80.7634 23.1501 80.7825 22.6563V16.9369C80.9012 16.4507 81.1462 16.1214 81.5176 15.9492C81.7932 15.8267 82.0382 15.7654 82.2526 15.7654ZM91.8252 15.7252V23.9885L90.3666 24.0057V15.7367L91.8252 15.7252ZM92.4224 19.1821C92.3879 18.9792 92.3745 18.7553 92.3822 18.5103V18.0164C92.3401 16.7033 92.9105 15.953 94.0934 15.7654L101.857 15.7597L101.851 17.2699H93.9901C93.9556 17.2699 93.9384 17.2871 93.9384 17.3216V19.0903C93.9384 19.1247 93.9556 19.1419 93.9901 19.1419L94.5758 19.1821L100.146 19.1879C101.023 19.3257 101.562 19.7717 101.765 20.5259L101.834 20.5948H101.782C101.844 20.8436 101.869 21.125 101.857 21.4389V21.9327C101.899 23.2152 101.381 23.91 100.301 24.0172H92.3994L92.3937 22.5644H100.249C100.284 22.5644 100.301 22.5472 100.301 22.5127V20.6866C100.301 20.6522 100.284 20.635 100.249 20.635L93.9384 20.5948C93.0847 20.5105 92.5813 20.0588 92.4281 19.2396L92.3764 19.1821H92.4224ZM102.518 15.7654H111.206C111.271 15.7769 111.303 15.8113 111.303 15.8688V17.1321C111.303 17.1972 111.271 17.2297 111.206 17.2297H107.668V23.8966C107.668 23.9655 107.634 24 107.565 24H106.256C106.187 24 106.152 23.9655 106.152 23.8966V17.2814H102.518C102.449 17.2814 102.414 17.2469 102.414 17.178V15.8688C102.426 15.7999 102.46 15.7654 102.518 15.7654ZM113.227 15.7654H121.192V17.1149C121.192 17.1608 121.169 17.1838 121.123 17.1838H113.6V19.2051H119.739C119.785 19.2128 119.808 19.2357 119.808 19.274V20.5603C119.808 20.6024 119.785 20.6235 119.739 20.6235H113.6V22.6161H121.226C121.272 22.6237 121.295 22.6467 121.295 22.685V23.9311C121.295 23.977 121.272 24 121.226 24H113.428C112.754 24 112.272 23.7071 111.981 23.1214C111.889 22.8228 111.843 22.5759 111.843 22.3806V17.1838C111.843 16.6478 112.023 16.265 112.383 16.0353C112.678 15.8554 112.959 15.7654 113.227 15.7654ZM121.921 15.7654H128.944C129.618 15.7654 130.071 16.0793 130.305 16.7072C130.347 16.8565 130.368 16.9809 130.368 17.0804V19.63C130.368 20.3268 130.012 20.8436 129.3 21.1805L131.074 23.9598V24H129.047C129.028 24 128.479 23.108 127.399 21.324H123.575C123.548 21.3279 123.535 21.3413 123.535 21.3642V23.9368C123.535 23.9636 123.519 23.977 123.489 23.977H121.921C121.894 23.977 121.881 23.9636 121.881 23.9368V15.8056C121.885 15.7788 121.898 15.7654 121.921 15.7654ZM123.535 17.3561V17.3733C123.535 17.7178 123.527 18.4911 123.512 19.6932H128.714V17.3561H123.535ZM141.893 15.7424H143.541C143.553 15.7424 143.558 15.7482 143.558 15.7597V23.9828C143.558 23.9943 143.553 24 143.541 24H140.837C140.779 23.9349 140.45 23.4526 139.849 22.5529L136.645 17.8327H136.248V23.9483C136.248 23.9598 136.243 23.9655 136.231 23.9655H134.577C134.566 23.9655 134.56 23.9598 134.56 23.9483V15.7941C134.56 15.7826 134.566 15.7769 134.577 15.7769H137.288C137.295 15.7807 138.658 17.8059 141.376 21.8523C141.415 21.9021 141.434 21.9327 141.434 21.9442H141.87V15.7597C141.874 15.7482 141.882 15.7424 141.893 15.7424ZM149.841 22.4496C150.239 22.4496 150.6 22.2237 150.926 21.772C151.014 21.5116 151.058 21.2188 151.058 20.8934V18.5332C151.058 17.9552 150.754 17.5494 150.145 17.3159C149.911 17.2508 149.676 17.2182 149.439 17.2182H147.429C147.191 17.2182 146.956 17.2508 146.722 17.3159C146.114 17.5494 145.809 17.9552 145.809 18.5332V20.8934C145.809 21.2188 145.853 21.5116 145.941 21.772C146.267 22.2237 146.629 22.4496 147.027 22.4496H149.841ZM146.045 24C144.739 23.5865 144.087 22.8439 144.087 21.772V18.0968C144.087 17.8059 144.177 17.4556 144.357 17.046C144.69 16.1923 145.432 15.7654 146.585 15.7654H150.283C151.435 15.7654 152.178 16.1923 152.511 17.046C152.691 17.4556 152.781 17.8059 152.781 18.0968V21.772C152.781 22.8439 152.128 23.5865 150.823 24H146.045ZM159.786 18.8835L158.437 24.0172L157.576 24.0057L156.714 24.0172L153.366 15.7597L154.992 15.7826L157.484 21.4217L158.977 15.7941L158.965 15.7597L159.786 15.7711L160.602 15.7597L160.59 15.7941L162.083 21.4217L164.576 15.7826L166.201 15.7597L162.853 24.0172L161.991 24.0057L161.13 24.0172L159.786 18.8835Z" fill="white"/>
</svg>
