<svg width="108" height="369" viewBox="0 0 108 369" fill="none" xmlns="http://www.w3.org/2000/svg">
<g filter="url(#filter0_d_922_354)">
<mask id="path-1-inside-1_922_354" fill="white">
<path d="M92.4873 341.61V258.312L104 249.292V111.572L92.4873 102.553V19.1543L4 0V361.001L92.4873 341.61Z"/>
</mask>
<path d="M92.4873 341.61V258.312L104 249.292V111.572L92.4873 102.553V19.1543L4 0V361.001L92.4873 341.61Z" fill="#F8F8F8" fill-opacity="0.02" shape-rendering="crispEdges"/>
<path d="M92.4873 341.61H93.4873V342.415L92.7014 342.587L92.4873 341.61ZM92.4873 258.312H91.4873V257.825L91.8706 257.524L92.4873 258.312ZM104 249.292H105V249.779L104.617 250.079L104 249.292ZM104 111.572L104.617 110.785L105 111.085V111.572H104ZM92.4873 102.553L91.8706 103.34L91.4873 103.04V102.553H92.4873ZM92.4873 19.1543L92.6989 18.1769L93.4873 18.3476V19.1543H92.4873ZM4 0H3V-1.23962L4.21156 -0.977364L4 0ZM4 361.001L4.21406 361.978L3 362.244V361.001H4ZM92.4873 341.61H91.4873V258.312H92.4873H93.4873V341.61H92.4873ZM92.4873 258.312L91.8706 257.524L103.383 248.505L104 249.292L104.617 250.079L93.104 259.099L92.4873 258.312ZM104 249.292H103V111.572H104H105V249.292H104ZM104 111.572L103.383 112.359L91.8706 103.34L92.4873 102.553L93.104 101.766L104.617 110.785L104 111.572ZM92.4873 102.553H91.4873V19.1543H92.4873H93.4873V102.553H92.4873ZM92.4873 19.1543L92.2757 20.1317L3.78844 0.977364L4 0L4.21156 -0.977364L92.6989 18.1769L92.4873 19.1543ZM4 0H5V361.001H4H3V0H4ZM4 361.001L3.78594 360.024L92.2732 340.634L92.4873 341.61L92.7014 342.587L4.21406 361.978L4 361.001Z" fill="white" fill-opacity="0.08" mask="url(#path-1-inside-1_922_354)"/>
</g>
<defs>
<filter id="filter0_d_922_354" x="0" y="0" width="108" height="369.001" filterUnits="userSpaceOnUse" color-interpolation-filters="sRGB">
<feFlood flood-opacity="0" result="BackgroundImageFix"/>
<feColorMatrix in="SourceAlpha" type="matrix" values="0 0 0 0 0 0 0 0 0 0 0 0 0 0 0 0 0 0 127 0" result="hardAlpha"/>
<feOffset dy="4"/>
<feGaussianBlur stdDeviation="2"/>
<feComposite in2="hardAlpha" operator="out"/>
<feColorMatrix type="matrix" values="0 0 0 0 0 0 0 0 0 0 0 0 0 0 0 0 0 0 0.25 0"/>
<feBlend mode="normal" in2="BackgroundImageFix" result="effect1_dropShadow_922_354"/>
<feBlend mode="normal" in="SourceGraphic" in2="effect1_dropShadow_922_354" result="shape"/>
</filter>
</defs>
</svg>
