<svg width="24" height="155" viewBox="0 0 24 155" fill="none" xmlns="http://www.w3.org/2000/svg">
<path d="M3 106L3 49.5L8.08929 45H16.9107L22 49.5L22 106L16.9107 110H8.08929L3 106Z" fill="white" fill-opacity="0.17"/>
<path d="M3.5 49.7256L8.2793 45.5H16.7197L21.5 49.7256L21.5 105.757L16.7363 109.5H8.2627L3.5 105.757L3.5 49.7256Z" stroke="white" stroke-opacity="0.27"/>
<path d="M11.9999 127L24 134.5V147.5L11.9999 155L0 147.5V134.5L11.9999 127Z" fill="white" fill-opacity="0.17"/>
<path d="M23.5 134.776V147.223L12 154.41L0.5 147.223V134.776L12 127.589L23.5 134.776Z" stroke="white" stroke-opacity="0.27"/>
<circle cx="12" cy="141" r="8" fill="white" fill-opacity="0.19"/>
<circle cx="12" cy="141" r="7.5" stroke="#E957DD" stroke-opacity="0.28"/>
<path d="M8.59242 143V142.364C8.59242 142.292 8.59642 142.246 8.60442 142.226C8.61642 142.202 8.65042 142.166 8.70642 142.118L10.6984 140.3C10.7504 140.256 10.7824 140.216 10.7944 140.18C10.8064 140.14 10.8124 140.08 10.8124 140V139.466C10.8124 139.406 10.8084 139.368 10.8004 139.352C10.7964 139.332 10.7764 139.308 10.7404 139.28C10.7044 139.252 10.6764 139.236 10.6564 139.232C10.6364 139.224 10.5904 139.22 10.5184 139.22H9.45042C9.37842 139.22 9.33242 139.224 9.31242 139.232C9.29242 139.236 9.26442 139.252 9.22842 139.28C9.19242 139.308 9.17042 139.332 9.16242 139.352C9.15842 139.368 9.15642 139.406 9.15642 139.466V139.58H8.65242V139.34C8.65242 139.22 8.70042 139.12 8.79642 139.04L8.94042 138.92C9.03642 138.84 9.13242 138.8 9.22842 138.8H10.7404C10.8364 138.8 10.9324 138.84 11.0284 138.92L11.1724 139.04C11.2684 139.12 11.3164 139.22 11.3164 139.34V140.186C11.3164 140.266 11.3104 140.326 11.2984 140.366C11.2864 140.402 11.2544 140.442 11.2024 140.486L9.21642 142.28C9.16042 142.332 9.12642 142.372 9.11442 142.4C9.10242 142.428 9.09642 142.48 9.09642 142.556V142.58H11.3164V143H8.59242ZM13.4135 140.24H14.7695C14.8655 140.24 14.9615 140.28 15.0575 140.36L15.2015 140.48C15.2975 140.56 15.3455 140.66 15.3455 140.78V142.46C15.3455 142.58 15.2975 142.68 15.2015 142.76L15.0575 142.88C14.9615 142.96 14.8655 143 14.7695 143H12.9695C12.8735 143 12.7775 142.96 12.6815 142.88L12.5375 142.76C12.4415 142.68 12.3935 142.58 12.3935 142.46V142.22H12.8975V142.334C12.8975 142.394 12.8995 142.434 12.9035 142.454C12.9115 142.47 12.9335 142.492 12.9695 142.52C13.0055 142.548 13.0335 142.566 13.0535 142.574C13.0735 142.578 13.1195 142.58 13.1915 142.58H14.5475C14.6195 142.58 14.6655 142.578 14.6855 142.574C14.7055 142.566 14.7335 142.548 14.7695 142.52C14.8055 142.492 14.8255 142.47 14.8295 142.454C14.8375 142.434 14.8415 142.394 14.8415 142.334V140.906C14.8415 140.846 14.8375 140.808 14.8295 140.792C14.8255 140.772 14.8055 140.748 14.7695 140.72C14.7335 140.692 14.7055 140.676 14.6855 140.672C14.6655 140.664 14.6195 140.66 14.5475 140.66H13.3895C13.2935 140.66 13.1975 140.7 13.1015 140.78C13.0055 140.86 12.9575 140.94 12.9575 141.02H12.4535V138.8H15.2735V139.22H12.9575V140.534H12.9815C12.9855 140.49 13.0295 140.436 13.1135 140.372C13.2335 140.284 13.3335 140.24 13.4135 140.24Z" fill="white"/>
<path d="M11.9999 0L24 7.5V20.5L11.9999 28L0 20.5V7.5L11.9999 0Z" fill="white" fill-opacity="0.17"/>
<path d="M23.5 7.77637V20.2227L12 27.4102L0.5 20.2227V7.77637L12 0.588867L23.5 7.77637Z" stroke="white" stroke-opacity="0.27"/>
<circle cx="12" cy="14" r="8" fill="white" fill-opacity="0.19"/>
<circle cx="12" cy="14" r="7.5" stroke="#E957DD" stroke-opacity="0.28"/>
<path d="M11.9859 16.504H12.0179C12.0179 16.472 12.0339 16.4027 12.0659 16.296L13.5859 11.4H14.2979L12.4419 17H11.5619L9.70594 11.4H10.4179L11.9379 16.296C11.9699 16.4027 11.9859 16.472 11.9859 16.504Z" fill="white"/>
<path d="M9.93555 63V56H13.6355C13.8089 56 13.9689 56.0667 14.1155 56.2L15.0755 57C15.2355 57.1333 15.3155 57.2667 15.3155 57.4V61.6C15.3155 61.7333 15.2355 61.8667 15.0755 62L14.1155 62.8C13.9689 62.9333 13.8089 63 13.6355 63H9.93555ZM14.4755 61.3V57.7C14.4755 57.5667 14.3955 57.4333 14.2355 57.3L13.7555 56.9C13.6089 56.7667 13.4489 56.7 13.2755 56.7H10.7755V62.3H13.2755C13.4489 62.3 13.6089 62.2333 13.7555 62.1L14.2355 61.7C14.3955 61.5667 14.4755 61.4333 14.4755 61.3ZM14.3179 68H15.1579V74.1C15.1579 74.3 15.0779 74.4667 14.9179 74.6L14.6779 74.8C14.5179 74.9333 14.3579 75 14.1979 75H10.7979C10.6379 75 10.4779 74.9333 10.3179 74.8L10.0779 74.6C9.91789 74.4667 9.83789 74.3 9.83789 74.1V68H10.6779V73.89C10.6779 73.99 10.6812 74.0567 10.6879 74.09C10.7012 74.1167 10.7379 74.1533 10.7979 74.2C10.8579 74.2467 10.9046 74.2767 10.9379 74.29C10.9712 74.2967 11.0479 74.3 11.1679 74.3H13.8279C13.9479 74.3 14.0246 74.2967 14.0579 74.29C14.0912 74.2767 14.1379 74.2467 14.1979 74.2C14.2579 74.1533 14.2912 74.1167 14.2979 74.09C14.3112 74.0567 14.3179 73.99 14.3179 73.89V68ZM10.6709 80H14.3309C14.4909 80 14.6509 80.0667 14.8109 80.2L15.0509 80.4C15.2109 80.5333 15.2909 80.7 15.2909 80.9V86.1C15.2909 86.3 15.2109 86.4667 15.0509 86.6L14.8109 86.8C14.6509 86.9333 14.4909 87 14.3309 87H10.6709C10.5109 87 10.3509 86.9333 10.1909 86.8L9.95094 86.6C9.79094 86.4667 9.71094 86.3 9.71094 86.1V80.9C9.71094 80.7 9.79094 80.5333 9.95094 80.4L10.1909 80.2C10.3509 80.0667 10.5109 80 10.6709 80ZM14.4509 85.89V81.11C14.4509 81.01 14.4443 80.9467 14.4309 80.92C14.4243 80.8867 14.3909 80.8467 14.3309 80.8C14.2709 80.7533 14.2243 80.7267 14.1909 80.72C14.1576 80.7067 14.0809 80.7 13.9609 80.7H11.0409C10.9209 80.7 10.8443 80.7067 10.8109 80.72C10.7776 80.7267 10.7309 80.7533 10.6709 80.8C10.6109 80.8467 10.5743 80.8867 10.5609 80.92C10.5543 80.9467 10.5509 81.01 10.5509 81.11V85.89C10.5509 85.99 10.5543 86.0567 10.5609 86.09C10.5743 86.1167 10.6109 86.1533 10.6709 86.2C10.7309 86.2467 10.7776 86.2767 10.8109 86.29C10.8443 86.2967 10.9209 86.3 11.0409 86.3H13.9609C14.0809 86.3 14.1576 86.2967 14.1909 86.29C14.2243 86.2767 14.2709 86.2467 14.3309 86.2C14.3909 86.1533 14.4243 86.1167 14.4309 86.09C14.4443 86.0567 14.4509 85.99 14.4509 85.89ZM9.85699 92H15.137V92.7H12.917V99H12.077V92.7H9.85699V92Z" fill="white" fill-opacity="0.32"/>
</svg>
