<svg width="104" height="339" viewBox="0 0 104 339" fill="none" xmlns="http://www.w3.org/2000/svg">
<g filter="url(#filter0_d_922_363)">
<mask id="path-1-inside-1_922_363" fill="white">
<path d="M88.5391 312.326V236.169L99.5381 227.922V102.009L88.5391 93.7617V17.5127L4 0V330.055L88.5391 312.326Z"/>
</mask>
<path d="M88.5391 312.326V236.169L99.5381 227.922V102.009L88.5391 93.7617V17.5127L4 0V330.055L88.5391 312.326Z" fill="white" fill-opacity="0.06" shape-rendering="crispEdges"/>
<path d="M88.5391 312.326H89.5391V313.138L88.7443 313.305L88.5391 312.326ZM88.5391 236.169H87.5391V235.669L87.9392 235.369L88.5391 236.169ZM99.5381 227.922H100.538V228.422L100.138 228.722L99.5381 227.922ZM99.5381 102.009L100.138 101.209L100.538 101.509V102.009H99.5381ZM88.5391 93.7617L87.9392 94.5618L87.5391 94.2618V93.7617H88.5391ZM88.5391 17.5127L88.7419 16.5335L89.5391 16.6986V17.5127H88.5391ZM4 0H3V-1.22839L4.20285 -0.97921L4 0ZM4 330.055L4.20524 331.033L3 331.286V330.055H4ZM88.5391 312.326H87.5391V236.169H88.5391H89.5391V312.326H88.5391ZM88.5391 236.169L87.9392 235.369L98.9382 227.122L99.5381 227.922L100.138 228.722L89.139 236.969L88.5391 236.169ZM99.5381 227.922H98.5381V102.009H99.5381H100.538V227.922H99.5381ZM99.5381 102.009L98.9382 102.809L87.9392 94.5618L88.5391 93.7617L89.139 92.9616L100.138 101.209L99.5381 102.009ZM88.5391 93.7617H87.5391V17.5127H88.5391H89.5391V93.7617H88.5391ZM88.5391 17.5127L88.3362 18.4919L3.79715 0.97921L4 0L4.20285 -0.97921L88.7419 16.5335L88.5391 17.5127ZM4 0H5V330.055H4H3V0H4ZM4 330.055L3.79476 329.076L88.3338 311.347L88.5391 312.326L88.7443 313.305L4.20524 331.033L4 330.055Z" fill="white" fill-opacity="0.08" mask="url(#path-1-inside-1_922_363)"/>
</g>
<defs>
<filter id="filter0_d_922_363" x="0" y="0" width="103.538" height="338.055" filterUnits="userSpaceOnUse" color-interpolation-filters="sRGB">
<feFlood flood-opacity="0" result="BackgroundImageFix"/>
<feColorMatrix in="SourceAlpha" type="matrix" values="0 0 0 0 0 0 0 0 0 0 0 0 0 0 0 0 0 0 127 0" result="hardAlpha"/>
<feOffset dy="4"/>
<feGaussianBlur stdDeviation="2"/>
<feComposite in2="hardAlpha" operator="out"/>
<feColorMatrix type="matrix" values="0 0 0 0 0 0 0 0 0 0 0 0 0 0 0 0 0 0 0.25 0"/>
<feBlend mode="normal" in2="BackgroundImageFix" result="effect1_dropShadow_922_363"/>
<feBlend mode="normal" in="SourceGraphic" in2="effect1_dropShadow_922_363" result="shape"/>
</filter>
</defs>
</svg>
