<svg width="104" height="339" viewBox="0 0 104 339" fill="none" xmlns="http://www.w3.org/2000/svg">
<g filter="url(#filter0_d_922_345)">
<mask id="path-1-inside-1_922_345" fill="white">
<path d="M88.5391 312.326V236.169L99.5381 227.922V102.009L88.5391 93.7617V17.5127L4 0V330.055L88.5391 312.326Z"/>
</mask>
<path d="M88.5391 312.326H90.1691V313.65L88.8736 313.921L88.5391 312.326ZM88.5391 236.169H86.9091V235.354L87.5612 234.865L88.5391 236.169ZM99.5381 227.922H101.168V228.737L100.516 229.226L99.5381 227.922ZM99.5381 102.009L100.516 100.705L101.168 101.194V102.009H99.5381ZM88.5391 93.7617L87.5612 95.0658L86.9091 94.5768V93.7617H88.5391ZM88.5391 17.5127L88.8697 15.9166L90.1691 16.1858V17.5127H88.5391ZM4 0H2.37V-2.00227L4.33064 -1.59611L4 0ZM4 330.055L4.33455 331.65L2.37 332.062L2.37 330.055H4ZM88.5391 312.326H86.9091V236.169H88.5391H90.1691V312.326H88.5391ZM88.5391 236.169L87.5612 234.865L98.5603 226.618L99.5381 227.922L100.516 229.226L89.5169 237.473L88.5391 236.169ZM99.5381 227.922H97.9081V102.009H99.5381H101.168V227.922H99.5381ZM99.5381 102.009L98.5603 103.313L87.5612 95.0658L88.5391 93.7617L89.5169 92.4576L100.516 100.705L99.5381 102.009ZM88.5391 93.7617H86.9091V17.5127H88.5391H90.1691V93.7617H88.5391ZM88.5391 17.5127L88.2084 19.1088L3.66936 1.59611L4 0L4.33064 -1.59611L88.8697 15.9166L88.5391 17.5127ZM4 0H5.63V330.055H4H2.37V0H4ZM4 330.055L3.66545 328.459L88.2045 310.731L88.5391 312.326L88.8736 313.921L4.33455 331.65L4 330.055Z" fill="#E957DD" fill-opacity="0.34" mask="url(#path-1-inside-1_922_345)"/>
</g>
<defs>
<filter id="filter0_d_922_345" x="0" y="0" width="103.538" height="338.055" filterUnits="userSpaceOnUse" color-interpolation-filters="sRGB">
<feFlood flood-opacity="0" result="BackgroundImageFix"/>
<feColorMatrix in="SourceAlpha" type="matrix" values="0 0 0 0 0 0 0 0 0 0 0 0 0 0 0 0 0 0 127 0" result="hardAlpha"/>
<feOffset dy="4"/>
<feGaussianBlur stdDeviation="2"/>
<feComposite in2="hardAlpha" operator="out"/>
<feColorMatrix type="matrix" values="0 0 0 0 0 0 0 0 0 0 0 0 0 0 0 0 0 0 0.25 0"/>
<feBlend mode="normal" in2="BackgroundImageFix" result="effect1_dropShadow_922_345"/>
<feBlend mode="normal" in="SourceGraphic" in2="effect1_dropShadow_922_345" result="shape"/>
</filter>
</defs>
</svg>
