<svg width="96" height="734" viewBox="0 0 96 734" fill="none" xmlns="http://www.w3.org/2000/svg">
<path d="M49 105L49.6992 105.715L50 105.421V105H49ZM3.5 149.5L2.80079 148.785L2.04387 149.525L2.82612 150.239L3.5 149.5ZM49 191H50V190.559L49.6739 190.261L49 191ZM49 240.5H48V240.936L48.3195 241.233L49 240.5ZM91 279.5L91.7194 280.195L92.4277 279.461L91.6805 278.767L91 279.5ZM49 323L48.2806 322.305L48 322.596V323H49ZM49 369.5L49.7034 370.211L50 369.917V369.5H49ZM1.5 416.5L0.796644 415.789L0.0624589 416.516L0.812255 417.226L1.5 416.5ZM49 461.5H50V461.07L49.6877 460.774L49 461.5ZM49 508H48V508.442L48.3265 508.739L49 508ZM94 549L94.7031 549.711L95.4522 548.97L94.6735 548.261L94 549ZM49 593.5L48.2969 592.789L48 593.083V593.5H49ZM48 732.5C48 733.052 48.4477 733.5 49 733.5C49.5523 733.5 50 733.052 50 732.5H48ZM49 0H48V78.5H49H50V0H49ZM49 78.5H48V105H49H50V78.5H49ZM49 105L48.3008 104.285L2.80079 148.785L3.5 149.5L4.19921 150.215L49.6992 105.715L49 105ZM3.5 149.5L2.82612 150.239L48.3261 191.739L49 191L49.6739 190.261L4.17388 148.761L3.5 149.5ZM49 191H48V240.5H49H50V191H49ZM49 240.5L48.3195 241.233L90.3195 280.233L91 279.5L91.6805 278.767L49.6805 239.767L49 240.5ZM91 279.5L90.2806 278.805L48.2806 322.305L49 323L49.7194 323.695L91.7194 280.195L91 279.5ZM49 323H48V369.5H49H50V323H49ZM49 369.5L48.2966 368.789L0.796644 415.789L1.5 416.5L2.20336 417.211L49.7034 370.211L49 369.5ZM1.5 416.5L0.812255 417.226L48.3123 462.226L49 461.5L49.6877 460.774L2.18774 415.774L1.5 416.5ZM49 461.5H48V508H49H50V461.5H49ZM49 508L48.3265 508.739L93.3265 549.739L94 549L94.6735 548.261L49.6735 507.261L49 508ZM94 549L93.2969 548.289L48.2969 592.789L49 593.5L49.7031 594.211L94.7031 549.711L94 549ZM49 593.5C48 593.5 48 593.5 48 593.501C48 593.501 48 593.502 48 593.503C48 593.504 48 593.505 48 593.507C48 593.509 48 593.51 48 593.513C48 593.515 48 593.517 48 593.52C48 593.522 48 593.525 48 593.528C48 593.531 48 593.535 48 593.538C48 593.542 48 593.546 48 593.55C48 593.554 48 593.558 48 593.563C48 593.568 48 593.573 48 593.578C48 593.583 48 593.589 48 593.594C48 593.6 48 593.606 48 593.612C48 593.618 48 593.625 48 593.631C48 593.638 48 593.645 48 593.652C48 593.66 48 593.667 48 593.675C48 593.682 48 593.69 48 593.699C48 593.707 48 593.715 48 593.724C48 593.733 48 593.742 48 593.751C48 593.76 48 593.77 48 593.78C48 593.789 48 593.799 48 593.81C48 593.82 48 593.83 48 593.841C48 593.852 48 593.863 48 593.874C48 593.885 48 593.897 48 593.909C48 593.92 48 593.932 48 593.945C48 593.957 48 593.97 48 593.982C48 593.995 48 594.008 48 594.021C48 594.035 48 594.048 48 594.062C48 594.076 48 594.09 48 594.104C48 594.118 48 594.133 48 594.147C48 594.162 48 594.177 48 594.192C48 594.207 48 594.223 48 594.239C48 594.254 48 594.27 48 594.287C48 594.303 48 594.319 48 594.336C48 594.353 48 594.37 48 594.387C48 594.404 48 594.422 48 594.439C48 594.457 48 594.475 48 594.493C48 594.511 48 594.53 48 594.548C48 594.567 48 594.586 48 594.605C48 594.624 48 594.643 48 594.663C48 594.683 48 594.703 48 594.723C48 594.743 48 594.763 48 594.784C48 594.804 48 594.825 48 594.846C48 594.867 48 594.889 48 594.91C48 594.932 48 594.954 48 594.976C48 594.998 48 595.02 48 595.042C48 595.065 48 595.088 48 595.111C48 595.134 48 595.157 48 595.18C48 595.204 48 595.228 48 595.252C48 595.276 48 595.3 48 595.324C48 595.349 48 595.373 48 595.398C48 595.423 48 595.448 48 595.474C48 595.499 48 595.524 48 595.55C48 595.576 48 595.602 48 595.629C48 595.655 48 595.681 48 595.708C48 595.735 48 595.762 48 595.789C48 595.816 48 595.844 48 595.872C48 595.899 48 595.927 48 595.956C48 595.984 48 596.012 48 596.041C48 596.069 48 596.098 48 596.127C48 596.157 48 596.186 48 596.215C48 596.245 48 596.275 48 596.305C48 596.335 48 596.365 48 596.396C48 596.426 48 596.457 48 596.488C48 596.519 48 596.55 48 596.581C48 596.613 48 596.645 48 596.676C48 596.708 48 596.74 48 596.773C48 596.805 48 596.838 48 596.87C48 596.903 48 596.936 48 596.97C48 597.003 48 597.036 48 597.07C48 597.104 48 597.138 48 597.172C48 597.206 48 597.24 48 597.275C48 597.31 48 597.344 48 597.379C48 597.414 48 597.45 48 597.485C48 597.521 48 597.557 48 597.593C48 597.628 48 597.665 48 597.701C48 597.737 48 597.774 48 597.811C48 597.848 48 597.885 48 597.922C48 597.96 48 597.997 48 598.035C48 598.073 48 598.111 48 598.149C48 598.187 48 598.225 48 598.264C48 598.303 48 598.342 48 598.381C48 598.42 48 598.459 48 598.499C48 598.538 48 598.578 48 598.618C48 598.658 48 598.698 48 598.738C48 598.779 48 598.819 48 598.86C48 598.901 48 598.942 48 598.983C48 599.025 48 599.066 48 599.108C48 599.15 48 599.192 48 599.234C48 599.276 48 599.318 48 599.361C48 599.404 48 599.446 48 599.489C48 599.532 48 599.576 48 599.619C48 599.663 48 599.706 48 599.75C48 599.794 48 599.838 48 599.882C48 599.927 48 599.971 48 600.016C48 600.061 48 600.106 48 600.151C48 600.196 48 600.242 48 600.287C48 600.333 48 600.379 48 600.425C48 600.471 48 600.517 48 600.563C48 600.61 48 600.656 48 600.703C48 600.75 48 600.797 48 600.845C48 600.892 48 600.94 48 600.987C48 601.035 48 601.083 48 601.131C48 601.179 48 601.228 48 601.276C48 601.325 48 601.374 48 601.423C48 601.472 48 601.521 48 601.57C48 601.62 48 601.669 48 601.719C48 601.769 48 601.819 48 601.869C48 601.919 48 601.97 48 602.021C48 602.071 48 602.122 48 602.173C48 602.224 48 602.276 48 602.327C48 602.379 48 602.43 48 602.482C48 602.534 48 602.586 48 602.639C48 602.691 48 602.743 48 602.796C48 602.849 48 602.902 48 602.955C48 603.008 48 603.061 48 603.115C48 603.169 48 603.222 48 603.276C48 603.33 48 603.384 48 603.439C48 603.493 48 603.548 48 603.603C48 603.657 48 603.712 48 603.767C48 603.823 48 603.878 48 603.934C48 603.989 48 604.045 48 604.101C48 604.157 48 604.213 48 604.27C48 604.326 48 604.383 48 604.439C48 604.496 48 604.553 48 604.61C48 604.667 48 604.725 48 604.782C48 604.84 48 604.898 48 604.956C48 605.014 48 605.072 48 605.13C48 605.189 48 605.247 48 605.306C48 605.365 48 605.424 48 605.483C48 605.542 48 605.602 48 605.661C48 605.721 48 605.781 48 605.841C48 605.901 48 605.961 48 606.021C48 606.081 48 606.142 48 606.203C48 606.263 48 606.324 48 606.385C48 606.447 48 606.508 48 606.57C48 606.631 48 606.693 48 606.755C48 606.817 48 606.879 48 606.941C48 607.003 48 607.066 48 607.129C48 607.191 48 607.254 48 607.317C48 607.38 48 607.444 48 607.507C48 607.57 48 607.634 48 607.698C48 607.762 48 607.826 48 607.89C48 607.954 48 608.019 48 608.083C48 608.148 48 608.213 48 608.278C48 608.343 48 608.408 48 608.473C48 608.539 48 608.604 48 608.67C48 608.736 48 608.802 48 608.868C48 608.934 48 609 48 609.067C48 609.133 48 609.2 48 609.267C48 609.334 48 609.401 48 609.468C48 609.535 48 609.603 48 609.67C48 609.738 48 609.806 48 609.874C48 609.942 48 610.01 48 610.078C48 610.147 48 610.215 48 610.284C48 610.353 48 610.422 48 610.491C48 610.56 48 610.629 48 610.698C48 610.768 48 610.838 48 610.907C48 610.977 48 611.047 48 611.118C48 611.188 48 611.258 48 611.329C48 611.399 48 611.47 48 611.541C48 611.612 48 611.683 48 611.754C48 611.826 48 611.897 48 611.969C48 612.041 48 612.112 48 612.184C48 612.256 48 612.329 48 612.401C48 612.473 48 612.546 48 612.619C48 612.691 48 612.764 48 612.838C48 612.911 48 612.984 48 613.057C48 613.131 48 613.204 48 613.278C48 613.352 48 613.426 48 613.5C48 613.574 48 613.649 48 613.723C48 613.798 48 613.873 48 613.948C48 614.022 48 614.097 48 614.173C48 614.248 48 614.323 48 614.399C48 614.475 48 614.55 48 614.626C48 614.702 48 614.778 48 614.855C48 614.931 48 615.007 48 615.084C48 615.161 48 615.237 48 615.314C48 615.391 48 615.469 48 615.546C48 615.623 48 615.701 48 615.778C48 615.856 48 615.934 48 616.012C48 616.09 48 616.168 48 616.247C48 616.325 48 616.403 48 616.482C48 616.561 48 616.64 48 616.719C48 616.798 48 616.877 48 616.956C48 617.036 48 617.115 48 617.195C48 617.275 48 617.355 48 617.435C48 617.515 48 617.595 48 617.676C48 617.756 48 617.837 48 617.917C48 617.998 48 618.079 48 618.16C48 618.241 48 618.322 48 618.404C48 618.485 48 618.567 48 618.649C48 618.73 48 618.812 48 618.894C48 618.976 48 619.059 48 619.141C48 619.224 48 619.306 48 619.389C48 619.472 48 619.555 48 619.638C48 619.721 48 619.804 48 619.887C48 619.971 48 620.054 48 620.138C48 620.222 48 620.306 48 620.39C48 620.474 48 620.558 48 620.642C48 620.727 48 620.811 48 620.896C48 620.981 48 621.066 48 621.151C48 621.236 48 621.321 48 621.406C48 621.492 48 621.577 48 621.663C48 621.748 48 621.834 48 621.92C48 622.006 48 622.092 48 622.179C48 622.265 48 622.352 48 622.438C48 622.525 48 622.612 48 622.699C48 622.786 48 622.873 48 622.96C48 623.047 48 623.135 48 623.222C48 623.31 48 623.398 48 623.485C48 623.573 48 623.661 48 623.75C48 623.838 48 623.926 48 624.015C48 624.103 48 624.192 48 624.281C48 624.37 48 624.459 48 624.548C48 624.637 48 624.726 48 624.816C48 624.905 48 624.995 48 625.085C48 625.174 48 625.264 48 625.354C48 625.445 48 625.535 48 625.625C48 625.716 48 625.806 48 625.897C48 625.987 48 626.078 48 626.169C48 626.26 48 626.352 48 626.443C48 626.534 48 626.626 48 626.717C48 626.809 48 626.901 48 626.992C48 627.084 48 627.176 48 627.269C48 627.361 48 627.453 48 627.546C48 627.638 48 627.731 48 627.824C48 627.917 48 628.009 48 628.103C48 628.196 48 628.289 48 628.382C48 628.476 48 628.569 48 628.663C48 628.757 48 628.851 48 628.945C48 629.039 48 629.133 48 629.227C48 629.321 48 629.416 48 629.51C48 629.605 48 629.7 48 629.794C48 629.889 48 629.984 48 630.08C48 630.175 48 630.27 48 630.365C48 630.461 48 630.557 48 630.652C48 630.748 48 630.844 48 630.94C48 631.036 48 631.132 48 631.229C48 631.325 48 631.421 48 631.518C48 631.615 48 631.711 48 631.808C48 631.905 48 632.002 48 632.099C48 632.196 48 632.294 48 632.391C48 632.489 48 632.586 48 632.684C48 632.782 48 632.88 48 632.978C48 633.076 48 633.174 48 633.272C48 633.37 48 633.469 48 633.568C48 633.666 48 633.765 48 633.864C48 633.963 48 634.062 48 634.161C48 634.26 48 634.359 48 634.459C48 634.558 48 634.657 48 634.757C48 634.857 48 634.957 48 635.057C48 635.157 48 635.257 48 635.357C48 635.457 48 635.558 48 635.658C48 635.759 48 635.859 48 635.96C48 636.061 48 636.162 48 636.263C48 636.364 48 636.465 48 636.566C48 636.668 48 636.769 48 636.871C48 636.972 48 637.074 48 637.176C48 637.278 48 637.38 48 637.482C48 637.584 48 637.686 48 637.789C48 637.891 48 637.994 48 638.096C48 638.199 48 638.302 48 638.405C48 638.508 48 638.611 48 638.714C48 638.817 48 638.92 48 639.024C48 639.127 48 639.231 48 639.334C48 639.438 48 639.542 48 639.646C48 639.75 48 639.854 48 639.958C48 640.062 48 640.167 48 640.271C48 640.376 48 640.48 48 640.585C48 640.69 48 640.795 48 640.9C48 641.005 48 641.11 48 641.215C48 641.32 48 641.426 48 641.531C48 641.637 48 641.742 48 641.848C48 641.954 48 642.06 48 642.166C48 642.272 48 642.378 48 642.484C48 642.59 48 642.697 48 642.803C48 642.91 48 643.016 48 643.123C48 643.23 48 643.337 48 643.444C48 643.551 48 643.658 48 643.765C48 643.872 48 643.98 48 644.087C48 644.195 48 644.302 48 644.41C48 644.518 48 644.626 48 644.734C48 644.842 48 644.95 48 645.058C48 645.166 48 645.274 48 645.383C48 645.491 48 645.6 48 645.709C48 645.817 48 645.926 48 646.035C48 646.144 48 646.253 48 646.362C48 646.471 48 646.581 48 646.69C48 646.8 48 646.909 48 647.019C48 647.128 48 647.238 48 647.348C48 647.458 48 647.568 48 647.678C48 647.788 48 647.899 48 648.009C48 648.119 48 648.23 48 648.34C48 648.451 48 648.562 48 648.672C48 648.783 48 648.894 48 649.005C48 649.116 48 649.228 48 649.339C48 649.45 48 649.562 48 649.673C48 649.785 48 649.896 48 650.008C48 650.12 48 650.232 48 650.344C48 650.455 48 650.568 48 650.68C48 650.792 48 650.904 48 651.017C48 651.129 48 651.242 48 651.354C48 651.467 48 651.58 48 651.693C48 651.805 48 651.918 48 652.031C48 652.145 48 652.258 48 652.371C48 652.484 48 652.598 48 652.711C48 652.825 48 652.938 48 653.052C48 653.166 48 653.28 48 653.394C48 653.508 48 653.622 48 653.736C48 653.85 48 653.964 48 654.079C48 654.193 48 654.308 48 654.422C48 654.537 48 654.652 48 654.767C48 654.881 48 654.996 48 655.111C48 655.226 48 655.342 48 655.457C48 655.572 48 655.687 48 655.803C48 655.918 48 656.034 48 656.15C48 656.265 48 656.381 48 656.497C48 656.613 48 656.729 48 656.845C48 656.961 48 657.077 48 657.193C48 657.31 48 657.426 48 657.543C48 657.659 48 657.776 48 657.892C48 658.009 48 658.126 48 658.243C48 658.36 48 658.477 48 658.594C48 658.711 48 658.828 48 658.946C48 659.063 48 659.18 48 659.298C48 659.415 48 659.533 48 659.651C48 659.768 48 659.886 48 660.004C48 660.122 48 660.24 48 660.358C48 660.476 48 660.594 48 660.713C48 660.831 48 660.95 48 661.068C48 661.187 48 661.305 48 661.424C48 661.543 48 661.661 48 661.78C48 661.899 48 662.018 48 662.137C48 662.256 48 662.375 48 662.495C48 662.614 48 662.733 48 662.853C48 662.972 48 663.092 48 663.212C48 663.331 48 663.451 48 663.571C48 663.691 48 663.811 48 663.931C48 664.051 48 664.171 48 664.291C48 664.411 48 664.532 48 664.652C48 664.773 48 664.893 48 665.014C48 665.134 48 665.255 48 665.376C48 665.496 48 665.617 48 665.738C48 665.859 48 665.98 48 666.101C48 666.223 48 666.344 48 666.465C48 666.586 48 666.708 48 666.829C48 666.951 48 667.073 48 667.194C48 667.316 48 667.438 48 667.56C48 667.681 48 667.803 48 667.925C48 668.047 48 668.17 48 668.292C48 668.414 48 668.536 48 668.659C48 668.781 48 668.904 48 669.026C48 669.149 48 669.271 48 669.394C48 669.517 48 669.64 48 669.763C48 669.886 48 670.009 48 670.132C48 670.255 48 670.378 48 670.501C48 670.624 48 670.748 48 670.871C48 670.995 48 671.118 48 671.242C48 671.365 48 671.489 48 671.613C48 671.737 48 671.86 48 671.984C48 672.108 48 672.232 48 672.356C48 672.48 48 672.605 48 672.729C48 672.853 48 672.977 48 673.102C48 673.226 48 673.351 48 673.475C48 673.6 48 673.725 48 673.849C48 673.974 48 674.099 48 674.224C48 674.349 48 674.474 48 674.599C48 674.724 48 674.849 48 674.974C48 675.099 48 675.225 48 675.35C48 675.475 48 675.601 48 675.727C48 675.852 48 675.978 48 676.103C48 676.229 48 676.355 48 676.481C48 676.606 48 676.732 48 676.858C48 676.984 48 677.11 48 677.237C48 677.363 48 677.489 48 677.615C48 677.742 48 677.868 48 677.994C48 678.121 48 678.247 48 678.374C48 678.501 48 678.627 48 678.754C48 678.881 48 679.008 48 679.135C48 679.261 48 679.388 48 679.515C48 679.642 48 679.77 48 679.897C48 680.024 48 680.151 48 680.279C48 680.406 48 680.533 48 680.661C48 680.788 48 680.916 48 681.043C48 681.171 48 681.299 48 681.427C48 681.554 48 681.682 48 681.81C48 681.938 48 682.066 48 682.194C48 682.322 48 682.45 48 682.578C48 682.706 48 682.835 48 682.963C48 683.091 48 683.22 48 683.348C48 683.477 48 683.605 48 683.734C48 683.862 48 683.991 48 684.12C48 684.248 48 684.377 48 684.506C48 684.635 48 684.764 48 684.893C48 685.022 48 685.151 48 685.28C48 685.409 48 685.538 48 685.668C48 685.797 48 685.926 48 686.056C48 686.185 48 686.314 48 686.444C48 686.573 48 686.703 48 686.833C48 686.962 48 687.092 48 687.222C48 687.352 48 687.481 48 687.611C48 687.741 48 687.871 48 688.001C48 688.131 48 688.261 48 688.391C48 688.521 48 688.652 48 688.782C48 688.912 48 689.042 48 689.173C48 689.303 48 689.434 48 689.564C48 689.695 48 689.825 48 689.956C48 690.087 48 690.217 48 690.348C48 690.479 48 690.609 48 690.74C48 690.871 48 691.002 48 691.133C48 691.264 48 691.395 48 691.526C48 691.657 48 691.788 48 691.92C48 692.051 48 692.182 48 692.313C48 692.445 48 692.576 48 692.708C48 692.839 48 692.971 48 693.102C48 693.234 48 693.365 48 693.497C48 693.629 48 693.76 48 693.892C48 694.024 48 694.156 48 694.287C48 694.419 48 694.551 48 694.683C48 694.815 48 694.947 48 695.079C48 695.211 48 695.344 48 695.476C48 695.608 48 695.74 48 695.873C48 696.005 48 696.137 48 696.27C48 696.402 48 696.534 48 696.667C48 696.799 48 696.932 48 697.065C48 697.197 48 697.33 48 697.463C48 697.595 48 697.728 48 697.861C48 697.994 48 698.127 48 698.26C48 698.392 48 698.525 48 698.658C48 698.791 48 698.924 48 699.058C48 699.191 48 699.324 48 699.457C48 699.59 48 699.723 48 699.857C48 699.99 48 700.123 48 700.257C48 700.39 48 700.524 48 700.657C48 700.791 48 700.924 48 701.058C48 701.191 48 701.325 48 701.458C48 701.592 48 701.726 48 701.86C48 701.993 48 702.127 48 702.261C48 702.395 48 702.529 48 702.663C48 702.797 48 702.931 48 703.065C48 703.199 48 703.333 48 703.467C48 703.601 48 703.735 48 703.869C48 704.003 48 704.138 48 704.272C48 704.406 48 704.541 48 704.675C48 704.809 48 704.944 48 705.078C48 705.213 48 705.347 48 705.482C48 705.616 48 705.751 48 705.885C48 706.02 48 706.154 48 706.289C48 706.424 48 706.559 48 706.693C48 706.828 48 706.963 48 707.098C48 707.232 48 707.367 48 707.502C48 707.637 48 707.772 48 707.907C48 708.042 48 708.177 48 708.312C48 708.447 48 708.582 48 708.717C48 708.853 48 708.988 48 709.123C48 709.258 48 709.393 48 709.529C48 709.664 48 709.799 48 709.935C48 710.07 48 710.205 48 710.341C48 710.476 48 710.612 48 710.747C48 710.883 48 711.018 48 711.154C48 711.289 48 711.425 48 711.56C48 711.696 48 711.832 48 711.967C48 712.103 48 712.239 48 712.374C48 712.51 48 712.646 48 712.782C48 712.918 48 713.053 48 713.189C48 713.325 48 713.461 48 713.597C48 713.733 48 713.869 48 714.005C48 714.141 48 714.277 48 714.413C48 714.549 48 714.685 48 714.821C48 714.957 48 715.093 48 715.23C48 715.366 48 715.502 48 715.638C48 715.774 48 715.911 48 716.047C48 716.183 48 716.32 48 716.456C48 716.592 48 716.729 48 716.865C48 717.001 48 717.138 48 717.274C48 717.411 48 717.547 48 717.684C48 717.82 48 717.957 48 718.093C48 718.23 48 718.366 48 718.503C48 718.639 48 718.776 48 718.913C48 719.049 48 719.186 48 719.323C48 719.459 48 719.596 48 719.733C48 719.87 48 720.006 48 720.143C48 720.28 48 720.417 48 720.553C48 720.69 48 720.827 48 720.964C48 721.101 48 721.238 48 721.375C48 721.511 48 721.648 48 721.785C48 721.922 48 722.059 48 722.196C48 722.333 48 722.47 48 722.607C48 722.744 48 722.881 48 723.018C48 723.156 48 723.293 48 723.43C48 723.567 48 723.704 48 723.841C48 723.978 48 724.115 48 724.253C48 724.39 48 724.527 48 724.664C48 724.801 48 724.939 48 725.076C48 725.213 48 725.35 48 725.488C48 725.625 48 725.762 48 725.899C48 726.037 48 726.174 48 726.311C48 726.449 48 726.586 48 726.723C48 726.861 48 726.998 48 727.136C48 727.273 48 727.41 48 727.548C48 727.685 48 727.823 48 727.96C48 728.098 48 728.235 48 728.372C48 728.51 48 728.647 48 728.785C48 728.922 48 729.06 48 729.198C48 729.335 48 729.473 48 729.61C48 729.748 48 729.885 48 730.023C48 730.16 48 730.298 48 730.435C48 730.573 48 730.711 48 730.848C48 730.986 48 731.124 48 731.261C48 731.399 48 731.536 48 731.674C48 731.812 48 731.949 48 732.087C48 732.225 48 732.362 48 732.5H49H50C50 732.362 50 732.225 50 732.087C50 731.949 50 731.812 50 731.674C50 731.536 50 731.399 50 731.261C50 731.124 50 730.986 50 730.848C50 730.711 50 730.573 50 730.435C50 730.298 50 730.16 50 730.023C50 729.885 50 729.748 50 729.61C50 729.473 50 729.335 50 729.198C50 729.06 50 728.922 50 728.785C50 728.647 50 728.51 50 728.372C50 728.235 50 728.098 50 727.96C50 727.823 50 727.685 50 727.548C50 727.41 50 727.273 50 727.136C50 726.998 50 726.861 50 726.723C50 726.586 50 726.449 50 726.311C50 726.174 50 726.037 50 725.899C50 725.762 50 725.625 50 725.488C50 725.35 50 725.213 50 725.076C50 724.939 50 724.801 50 724.664C50 724.527 50 724.39 50 724.253C50 724.115 50 723.978 50 723.841C50 723.704 50 723.567 50 723.43C50 723.293 50 723.156 50 723.018C50 722.881 50 722.744 50 722.607C50 722.47 50 722.333 50 722.196C50 722.059 50 721.922 50 721.785C50 721.648 50 721.511 50 721.375C50 721.238 50 721.101 50 720.964C50 720.827 50 720.69 50 720.553C50 720.417 50 720.28 50 720.143C50 720.006 50 719.87 50 719.733C50 719.596 50 719.459 50 719.323C50 719.186 50 719.049 50 718.913C50 718.776 50 718.639 50 718.503C50 718.366 50 718.23 50 718.093C50 717.957 50 717.82 50 717.684C50 717.547 50 717.411 50 717.274C50 717.138 50 717.001 50 716.865C50 716.729 50 716.592 50 716.456C50 716.32 50 716.183 50 716.047C50 715.911 50 715.774 50 715.638C50 715.502 50 715.366 50 715.23C50 715.093 50 714.957 50 714.821C50 714.685 50 714.549 50 714.413C50 714.277 50 714.141 50 714.005C50 713.869 50 713.733 50 713.597C50 713.461 50 713.325 50 713.189C50 713.053 50 712.918 50 712.782C50 712.646 50 712.51 50 712.374C50 712.239 50 712.103 50 711.967C50 711.832 50 711.696 50 711.56C50 711.425 50 711.289 50 711.154C50 711.018 50 710.883 50 710.747C50 710.612 50 710.476 50 710.341C50 710.205 50 710.07 50 709.935C50 709.799 50 709.664 50 709.529C50 709.393 50 709.258 50 709.123C50 708.988 50 708.853 50 708.717C50 708.582 50 708.447 50 708.312C50 708.177 50 708.042 50 707.907C50 707.772 50 707.637 50 707.502C50 707.367 50 707.232 50 707.098C50 706.963 50 706.828 50 706.693C50 706.559 50 706.424 50 706.289C50 706.154 50 706.02 50 705.885C50 705.751 50 705.616 50 705.482C50 705.347 50 705.213 50 705.078C50 704.944 50 704.809 50 704.675C50 704.541 50 704.406 50 704.272C50 704.138 50 704.003 50 703.869C50 703.735 50 703.601 50 703.467C50 703.333 50 703.199 50 703.065C50 702.931 50 702.797 50 702.663C50 702.529 50 702.395 50 702.261C50 702.127 50 701.993 50 701.86C50 701.726 50 701.592 50 701.458C50 701.325 50 701.191 50 701.058C50 700.924 50 700.791 50 700.657C50 700.524 50 700.39 50 700.257C50 700.123 50 699.99 50 699.857C50 699.723 50 699.59 50 699.457C50 699.324 50 699.191 50 699.058C50 698.924 50 698.791 50 698.658C50 698.525 50 698.392 50 698.26C50 698.127 50 697.994 50 697.861C50 697.728 50 697.595 50 697.463C50 697.33 50 697.197 50 697.065C50 696.932 50 696.799 50 696.667C50 696.534 50 696.402 50 696.27C50 696.137 50 696.005 50 695.873C50 695.74 50 695.608 50 695.476C50 695.344 50 695.211 50 695.079C50 694.947 50 694.815 50 694.683C50 694.551 50 694.419 50 694.287C50 694.156 50 694.024 50 693.892C50 693.76 50 693.629 50 693.497C50 693.365 50 693.234 50 693.102C50 692.971 50 692.839 50 692.708C50 692.576 50 692.445 50 692.313C50 692.182 50 692.051 50 691.92C50 691.788 50 691.657 50 691.526C50 691.395 50 691.264 50 691.133C50 691.002 50 690.871 50 690.74C50 690.609 50 690.479 50 690.348C50 690.217 50 690.087 50 689.956C50 689.825 50 689.695 50 689.564C50 689.434 50 689.303 50 689.173C50 689.042 50 688.912 50 688.782C50 688.652 50 688.521 50 688.391C50 688.261 50 688.131 50 688.001C50 687.871 50 687.741 50 687.611C50 687.481 50 687.352 50 687.222C50 687.092 50 686.962 50 686.833C50 686.703 50 686.573 50 686.444C50 686.314 50 686.185 50 686.056C50 685.926 50 685.797 50 685.668C50 685.538 50 685.409 50 685.28C50 685.151 50 685.022 50 684.893C50 684.764 50 684.635 50 684.506C50 684.377 50 684.248 50 684.12C50 683.991 50 683.862 50 683.734C50 683.605 50 683.477 50 683.348C50 683.22 50 683.091 50 682.963C50 682.835 50 682.706 50 682.578C50 682.45 50 682.322 50 682.194C50 682.066 50 681.938 50 681.81C50 681.682 50 681.554 50 681.427C50 681.299 50 681.171 50 681.043C50 680.916 50 680.788 50 680.661C50 680.533 50 680.406 50 680.279C50 680.151 50 680.024 50 679.897C50 679.77 50 679.642 50 679.515C50 679.388 50 679.261 50 679.135C50 679.008 50 678.881 50 678.754C50 678.627 50 678.501 50 678.374C50 678.247 50 678.121 50 677.994C50 677.868 50 677.742 50 677.615C50 677.489 50 677.363 50 677.237C50 677.11 50 676.984 50 676.858C50 676.732 50 676.606 50 676.481C50 676.355 50 676.229 50 676.103C50 675.978 50 675.852 50 675.727C50 675.601 50 675.475 50 675.35C50 675.225 50 675.099 50 674.974C50 674.849 50 674.724 50 674.599C50 674.474 50 674.349 50 674.224C50 674.099 50 673.974 50 673.849C50 673.725 50 673.6 50 673.475C50 673.351 50 673.226 50 673.102C50 672.977 50 672.853 50 672.729C50 672.605 50 672.48 50 672.356C50 672.232 50 672.108 50 671.984C50 671.86 50 671.737 50 671.613C50 671.489 50 671.365 50 671.242C50 671.118 50 670.995 50 670.871C50 670.748 50 670.624 50 670.501C50 670.378 50 670.255 50 670.132C50 670.009 50 669.886 50 669.763C50 669.64 50 669.517 50 669.394C50 669.271 50 669.149 50 669.026C50 668.904 50 668.781 50 668.659C50 668.536 50 668.414 50 668.292C50 668.17 50 668.047 50 667.925C50 667.803 50 667.681 50 667.56C50 667.438 50 667.316 50 667.194C50 667.073 50 666.951 50 666.829C50 666.708 50 666.586 50 666.465C50 666.344 50 666.223 50 666.101C50 665.98 50 665.859 50 665.738C50 665.617 50 665.496 50 665.376C50 665.255 50 665.134 50 665.014C50 664.893 50 664.773 50 664.652C50 664.532 50 664.411 50 664.291C50 664.171 50 664.051 50 663.931C50 663.811 50 663.691 50 663.571C50 663.451 50 663.331 50 663.212C50 663.092 50 662.972 50 662.853C50 662.733 50 662.614 50 662.495C50 662.375 50 662.256 50 662.137C50 662.018 50 661.899 50 661.78C50 661.661 50 661.543 50 661.424C50 661.305 50 661.187 50 661.068C50 660.95 50 660.831 50 660.713C50 660.594 50 660.476 50 660.358C50 660.24 50 660.122 50 660.004C50 659.886 50 659.768 50 659.651C50 659.533 50 659.415 50 659.298C50 659.18 50 659.063 50 658.946C50 658.828 50 658.711 50 658.594C50 658.477 50 658.36 50 658.243C50 658.126 50 658.009 50 657.892C50 657.776 50 657.659 50 657.543C50 657.426 50 657.31 50 657.193C50 657.077 50 656.961 50 656.845C50 656.729 50 656.613 50 656.497C50 656.381 50 656.265 50 656.15C50 656.034 50 655.918 50 655.803C50 655.687 50 655.572 50 655.457C50 655.342 50 655.226 50 655.111C50 654.996 50 654.881 50 654.767C50 654.652 50 654.537 50 654.422C50 654.308 50 654.193 50 654.079C50 653.964 50 653.85 50 653.736C50 653.622 50 653.508 50 653.394C50 653.28 50 653.166 50 653.052C50 652.938 50 652.825 50 652.711C50 652.598 50 652.484 50 652.371C50 652.258 50 652.145 50 652.031C50 651.918 50 651.805 50 651.693C50 651.58 50 651.467 50 651.354C50 651.242 50 651.129 50 651.017C50 650.904 50 650.792 50 650.68C50 650.568 50 650.455 50 650.344C50 650.232 50 650.12 50 650.008C50 649.896 50 649.785 50 649.673C50 649.562 50 649.45 50 649.339C50 649.228 50 649.116 50 649.005C50 648.894 50 648.783 50 648.672C50 648.562 50 648.451 50 648.34C50 648.23 50 648.119 50 648.009C50 647.899 50 647.788 50 647.678C50 647.568 50 647.458 50 647.348C50 647.238 50 647.128 50 647.019C50 646.909 50 646.8 50 646.69C50 646.581 50 646.471 50 646.362C50 646.253 50 646.144 50 646.035C50 645.926 50 645.817 50 645.709C50 645.6 50 645.491 50 645.383C50 645.274 50 645.166 50 645.058C50 644.95 50 644.842 50 644.734C50 644.626 50 644.518 50 644.41C50 644.302 50 644.195 50 644.087C50 643.98 50 643.872 50 643.765C50 643.658 50 643.551 50 643.444C50 643.337 50 643.23 50 643.123C50 643.016 50 642.91 50 642.803C50 642.697 50 642.59 50 642.484C50 642.378 50 642.272 50 642.166C50 642.06 50 641.954 50 641.848C50 641.742 50 641.637 50 641.531C50 641.426 50 641.32 50 641.215C50 641.11 50 641.005 50 640.9C50 640.795 50 640.69 50 640.585C50 640.48 50 640.376 50 640.271C50 640.167 50 640.062 50 639.958C50 639.854 50 639.75 50 639.646C50 639.542 50 639.438 50 639.334C50 639.231 50 639.127 50 639.024C50 638.92 50 638.817 50 638.714C50 638.611 50 638.508 50 638.405C50 638.302 50 638.199 50 638.096C50 637.994 50 637.891 50 637.789C50 637.686 50 637.584 50 637.482C50 637.38 50 637.278 50 637.176C50 637.074 50 636.972 50 636.871C50 636.769 50 636.668 50 636.566C50 636.465 50 636.364 50 636.263C50 636.162 50 636.061 50 635.96C50 635.859 50 635.759 50 635.658C50 635.558 50 635.457 50 635.357C50 635.257 50 635.157 50 635.057C50 634.957 50 634.857 50 634.757C50 634.657 50 634.558 50 634.459C50 634.359 50 634.26 50 634.161C50 634.062 50 633.963 50 633.864C50 633.765 50 633.666 50 633.568C50 633.469 50 633.37 50 633.272C50 633.174 50 633.076 50 632.978C50 632.88 50 632.782 50 632.684C50 632.586 50 632.489 50 632.391C50 632.294 50 632.196 50 632.099C50 632.002 50 631.905 50 631.808C50 631.711 50 631.615 50 631.518C50 631.421 50 631.325 50 631.229C50 631.132 50 631.036 50 630.94C50 630.844 50 630.748 50 630.652C50 630.557 50 630.461 50 630.365C50 630.27 50 630.175 50 630.08C50 629.984 50 629.889 50 629.794C50 629.7 50 629.605 50 629.51C50 629.416 50 629.321 50 629.227C50 629.133 50 629.039 50 628.945C50 628.851 50 628.757 50 628.663C50 628.569 50 628.476 50 628.382C50 628.289 50 628.196 50 628.103C50 628.009 50 627.917 50 627.824C50 627.731 50 627.638 50 627.546C50 627.453 50 627.361 50 627.269C50 627.176 50 627.084 50 626.992C50 626.901 50 626.809 50 626.717C50 626.626 50 626.534 50 626.443C50 626.352 50 626.26 50 626.169C50 626.078 50 625.987 50 625.897C50 625.806 50 625.716 50 625.625C50 625.535 50 625.445 50 625.354C50 625.264 50 625.174 50 625.085C50 624.995 50 624.905 50 624.816C50 624.726 50 624.637 50 624.548C50 624.459 50 624.37 50 624.281C50 624.192 50 624.103 50 624.015C50 623.926 50 623.838 50 623.75C50 623.661 50 623.573 50 623.485C50 623.398 50 623.31 50 623.222C50 623.135 50 623.047 50 622.96C50 622.873 50 622.786 50 622.699C50 622.612 50 622.525 50 622.438C50 622.352 50 622.265 50 622.179C50 622.092 50 622.006 50 621.92C50 621.834 50 621.748 50 621.663C50 621.577 50 621.492 50 621.406C50 621.321 50 621.236 50 621.151C50 621.066 50 620.981 50 620.896C50 620.811 50 620.727 50 620.642C50 620.558 50 620.474 50 620.39C50 620.306 50 620.222 50 620.138C50 620.054 50 619.971 50 619.887C50 619.804 50 619.721 50 619.638C50 619.555 50 619.472 50 619.389C50 619.306 50 619.224 50 619.141C50 619.059 50 618.976 50 618.894C50 618.812 50 618.73 50 618.649C50 618.567 50 618.485 50 618.404C50 618.322 50 618.241 50 618.16C50 618.079 50 617.998 50 617.917C50 617.837 50 617.756 50 617.676C50 617.595 50 617.515 50 617.435C50 617.355 50 617.275 50 617.195C50 617.115 50 617.036 50 616.956C50 616.877 50 616.798 50 616.719C50 616.64 50 616.561 50 616.482C50 616.403 50 616.325 50 616.247C50 616.168 50 616.09 50 616.012C50 615.934 50 615.856 50 615.778C50 615.701 50 615.623 50 615.546C50 615.469 50 615.391 50 615.314C50 615.237 50 615.161 50 615.084C50 615.007 50 614.931 50 614.855C50 614.778 50 614.702 50 614.626C50 614.55 50 614.475 50 614.399C50 614.323 50 614.248 50 614.173C50 614.097 50 614.022 50 613.948C50 613.873 50 613.798 50 613.723C50 613.649 50 613.574 50 613.5C50 613.426 50 613.352 50 613.278C50 613.204 50 613.131 50 613.057C50 612.984 50 612.911 50 612.838C50 612.764 50 612.691 50 612.619C50 612.546 50 612.473 50 612.401C50 612.329 50 612.256 50 612.184C50 612.112 50 612.041 50 611.969C50 611.897 50 611.826 50 611.754C50 611.683 50 611.612 50 611.541C50 611.47 50 611.399 50 611.329C50 611.258 50 611.188 50 611.118C50 611.047 50 610.977 50 610.907C50 610.838 50 610.768 50 610.698C50 610.629 50 610.56 50 610.491C50 610.422 50 610.353 50 610.284C50 610.215 50 610.147 50 610.078C50 610.01 50 609.942 50 609.874C50 609.806 50 609.738 50 609.67C50 609.603 50 609.535 50 609.468C50 609.401 50 609.334 50 609.267C50 609.2 50 609.133 50 609.067C50 609 50 608.934 50 608.868C50 608.802 50 608.736 50 608.67C50 608.604 50 608.539 50 608.473C50 608.408 50 608.343 50 608.278C50 608.213 50 608.148 50 608.083C50 608.019 50 607.954 50 607.89C50 607.826 50 607.762 50 607.698C50 607.634 50 607.57 50 607.507C50 607.444 50 607.38 50 607.317C50 607.254 50 607.191 50 607.129C50 607.066 50 607.003 50 606.941C50 606.879 50 606.817 50 606.755C50 606.693 50 606.631 50 606.57C50 606.508 50 606.447 50 606.385C50 606.324 50 606.263 50 606.203C50 606.142 50 606.081 50 606.021C50 605.961 50 605.901 50 605.841C50 605.781 50 605.721 50 605.661C50 605.602 50 605.542 50 605.483C50 605.424 50 605.365 50 605.306C50 605.247 50 605.189 50 605.13C50 605.072 50 605.014 50 604.956C50 604.898 50 604.84 50 604.782C50 604.725 50 604.667 50 604.61C50 604.553 50 604.496 50 604.439C50 604.383 50 604.326 50 604.27C50 604.213 50 604.157 50 604.101C50 604.045 50 603.989 50 603.934C50 603.878 50 603.823 50 603.767C50 603.712 50 603.657 50 603.603C50 603.548 50 603.493 50 603.439C50 603.384 50 603.33 50 603.276C50 603.222 50 603.169 50 603.115C50 603.061 50 603.008 50 602.955C50 602.902 50 602.849 50 602.796C50 602.743 50 602.691 50 602.639C50 602.586 50 602.534 50 602.482C50 602.43 50 602.379 50 602.327C50 602.276 50 602.224 50 602.173C50 602.122 50 602.071 50 602.021C50 601.97 50 601.919 50 601.869C50 601.819 50 601.769 50 601.719C50 601.669 50 601.62 50 601.57C50 601.521 50 601.472 50 601.423C50 601.374 50 601.325 50 601.276C50 601.228 50 601.179 50 601.131C50 601.083 50 601.035 50 600.987C50 600.94 50 600.892 50 600.845C50 600.797 50 600.75 50 600.703C50 600.656 50 600.61 50 600.563C50 600.517 50 600.471 50 600.425C50 600.379 50 600.333 50 600.287C50 600.242 50 600.196 50 600.151C50 600.106 50 600.061 50 600.016C50 599.971 50 599.927 50 599.882C50 599.838 50 599.794 50 599.75C50 599.706 50 599.663 50 599.619C50 599.576 50 599.532 50 599.489C50 599.446 50 599.404 50 599.361C50 599.318 50 599.276 50 599.234C50 599.192 50 599.15 50 599.108C50 599.066 50 599.025 50 598.983C50 598.942 50 598.901 50 598.86C50 598.819 50 598.779 50 598.738C50 598.698 50 598.658 50 598.618C50 598.578 50 598.538 50 598.499C50 598.459 50 598.42 50 598.381C50 598.342 50 598.303 50 598.264C50 598.225 50 598.187 50 598.149C50 598.111 50 598.073 50 598.035C50 597.997 50 597.96 50 597.922C50 597.885 50 597.848 50 597.811C50 597.774 50 597.737 50 597.701C50 597.665 50 597.628 50 597.593C50 597.557 50 597.521 50 597.485C50 597.45 50 597.414 50 597.379C50 597.344 50 597.31 50 597.275C50 597.24 50 597.206 50 597.172C50 597.138 50 597.104 50 597.07C50 597.036 50 597.003 50 596.97C50 596.936 50 596.903 50 596.87C50 596.838 50 596.805 50 596.773C50 596.74 50 596.708 50 596.676C50 596.645 50 596.613 50 596.581C50 596.55 50 596.519 50 596.488C50 596.457 50 596.426 50 596.396C50 596.365 50 596.335 50 596.305C50 596.275 50 596.245 50 596.215C50 596.186 50 596.157 50 596.127C50 596.098 50 596.069 50 596.041C50 596.012 50 595.984 50 595.956C50 595.927 50 595.899 50 595.872C50 595.844 50 595.816 50 595.789C50 595.762 50 595.735 50 595.708C50 595.681 50 595.655 50 595.629C50 595.602 50 595.576 50 595.55C50 595.524 50 595.499 50 595.474C50 595.448 50 595.423 50 595.398C50 595.373 50 595.349 50 595.324C50 595.3 50 595.276 50 595.252C50 595.228 50 595.204 50 595.18C50 595.157 50 595.134 50 595.111C50 595.088 50 595.065 50 595.042C50 595.02 50 594.998 50 594.976C50 594.954 50 594.932 50 594.91C50 594.889 50 594.867 50 594.846C50 594.825 50 594.804 50 594.784C50 594.763 50 594.743 50 594.723C50 594.703 50 594.683 50 594.663C50 594.643 50 594.624 50 594.605C50 594.586 50 594.567 50 594.548C50 594.53 50 594.511 50 594.493C50 594.475 50 594.457 50 594.439C50 594.422 50 594.404 50 594.387C50 594.37 50 594.353 50 594.336C50 594.319 50 594.303 50 594.287C50 594.27 50 594.254 50 594.239C50 594.223 50 594.207 50 594.192C50 594.177 50 594.162 50 594.147C50 594.133 50 594.118 50 594.104C50 594.09 50 594.076 50 594.062C50 594.048 50 594.035 50 594.021C50 594.008 50 593.995 50 593.982C50 593.97 50 593.957 50 593.945C50 593.932 50 593.92 50 593.909C50 593.897 50 593.885 50 593.874C50 593.863 50 593.852 50 593.841C50 593.83 50 593.82 50 593.81C50 593.799 50 593.789 50 593.78C50 593.77 50 593.76 50 593.751C50 593.742 50 593.733 50 593.724C50 593.715 50 593.707 50 593.699C50 593.69 50 593.682 50 593.675C50 593.667 50 593.66 50 593.652C50 593.645 50 593.638 50 593.631C50 593.625 50 593.618 50 593.612C50 593.606 50 593.6 50 593.594C50 593.589 50 593.583 50 593.578C50 593.573 50 593.568 50 593.563C50 593.558 50 593.554 50 593.55C50 593.546 50 593.542 50 593.538C50 593.535 50 593.531 50 593.528C50 593.525 50 593.522 50 593.52C50 593.517 50 593.515 50 593.513C50 593.51 50 593.509 50 593.507C50 593.505 50 593.504 50 593.503C50 593.502 50 593.501 50 593.501C50 593.5 50 593.5 49 593.5Z" fill="#E957DD"/>
</svg>
