<svg width="96" height="803" viewBox="0 0 96 803" fill="none" xmlns="http://www.w3.org/2000/svg">
<path d="M48.9375 139L49.6367 139.715L49.9375 139.421V139H48.9375ZM3.43754 183.5L2.73833 182.785L1.98141 183.525L2.76366 184.239L3.43754 183.5ZM48.9375 225H49.9375V224.559L49.6114 224.261L48.9375 225ZM48.9375 274.5H47.9375V274.936L48.257 275.233L48.9375 274.5ZM90.9375 313.5L91.6569 314.195L92.3652 313.461L91.618 312.767L90.9375 313.5ZM48.9375 357L48.2181 356.305L47.9375 356.596V357H48.9375ZM48.9375 403.5L49.6409 404.211L49.9375 403.917V403.5H48.9375ZM1.43754 450.5L0.734185 449.789L0 450.516L0.749796 451.226L1.43754 450.5ZM48.9375 495.5H49.9375V495.07L49.6252 494.774L48.9375 495.5ZM48.9375 542H47.9375V542.442L48.264 542.739L48.9375 542ZM93.9375 583L94.6406 583.711L95.3897 582.97L94.611 582.261L93.9375 583ZM48.9375 627.5L48.2344 626.789L47.9375 627.083V627.5H48.9375ZM47.9375 766.5C47.9375 767.052 48.3852 767.5 48.9375 767.5C49.4898 767.5 49.9375 767.052 49.9375 766.5H47.9375ZM48.9375 34H47.9375V112.5H48.9375H49.9375V34H48.9375ZM48.9375 112.5H47.9375V139H48.9375H49.9375V112.5H48.9375ZM48.9375 139L48.2383 138.285L2.73833 182.785L3.43754 183.5L4.13675 184.215L49.6367 139.715L48.9375 139ZM3.43754 183.5L2.76366 184.239L48.2636 225.739L48.9375 225L49.6114 224.261L4.11142 182.761L3.43754 183.5ZM48.9375 225H47.9375V274.5H48.9375H49.9375V225H48.9375ZM48.9375 274.5L48.257 275.233L90.257 314.233L90.9375 313.5L91.618 312.767L49.618 273.767L48.9375 274.5ZM90.9375 313.5L90.2181 312.805L48.2181 356.305L48.9375 357L49.6569 357.695L91.6569 314.195L90.9375 313.5ZM48.9375 357H47.9375V403.5H48.9375H49.9375V357H48.9375ZM48.9375 403.5L48.2341 402.789L0.734185 449.789L1.43754 450.5L2.1409 451.211L49.6409 404.211L48.9375 403.5ZM1.43754 450.5L0.749796 451.226L48.2498 496.226L48.9375 495.5L49.6252 494.774L2.12528 449.774L1.43754 450.5ZM48.9375 495.5H47.9375V542H48.9375H49.9375V495.5H48.9375ZM48.9375 542L48.264 542.739L93.264 583.739L93.9375 583L94.611 582.261L49.611 541.261L48.9375 542ZM93.9375 583L93.2344 582.289L48.2344 626.789L48.9375 627.5L49.6406 628.211L94.6406 583.711L93.9375 583ZM48.9375 627.5C47.9375 627.5 47.9375 627.499 47.9375 627.5C47.9375 627.5 47.9375 627.502 47.9375 627.503C47.9375 627.504 47.9375 627.505 47.9375 627.507C47.9375 627.509 47.9375 627.51 47.9375 627.513C47.9375 627.515 47.9375 627.517 47.9375 627.52C47.9375 627.522 47.9375 627.525 47.9375 627.528C47.9375 627.531 47.9375 627.535 47.9375 627.538C47.9375 627.542 47.9375 627.546 47.9375 627.55C47.9375 627.554 47.9375 627.558 47.9375 627.563C47.9375 627.568 47.9375 627.573 47.9375 627.578C47.9375 627.583 47.9375 627.589 47.9375 627.594C47.9375 627.6 47.9375 627.606 47.9375 627.612C47.9375 627.618 47.9375 627.625 47.9375 627.631C47.9375 627.638 47.9375 627.645 47.9375 627.652C47.9375 627.66 47.9375 627.667 47.9375 627.675C47.9375 627.682 47.9375 627.69 47.9375 627.699C47.9375 627.707 47.9375 627.715 47.9375 627.724C47.9375 627.733 47.9375 627.742 47.9375 627.751C47.9375 627.76 47.9375 627.77 47.9375 627.78C47.9375 627.789 47.9375 627.799 47.9375 627.81C47.9375 627.82 47.9375 627.83 47.9375 627.841C47.9375 627.852 47.9375 627.863 47.9375 627.874C47.9375 627.885 47.9375 627.897 47.9375 627.909C47.9375 627.92 47.9375 627.932 47.9375 627.945C47.9375 627.957 47.9375 627.97 47.9375 627.982C47.9375 627.995 47.9375 628.008 47.9375 628.021C47.9375 628.035 47.9375 628.048 47.9375 628.062C47.9375 628.076 47.9375 628.09 47.9375 628.104C47.9375 628.118 47.9375 628.133 47.9375 628.147C47.9375 628.162 47.9375 628.177 47.9375 628.192C47.9375 628.207 47.9375 628.223 47.9375 628.239C47.9375 628.254 47.9375 628.27 47.9375 628.287C47.9375 628.303 47.9375 628.319 47.9375 628.336C47.9375 628.353 47.9375 628.37 47.9375 628.387C47.9375 628.404 47.9375 628.422 47.9375 628.439C47.9375 628.457 47.9375 628.475 47.9375 628.493C47.9375 628.511 47.9375 628.53 47.9375 628.548C47.9375 628.567 47.9375 628.586 47.9375 628.605C47.9375 628.624 47.9375 628.643 47.9375 628.663C47.9375 628.683 47.9375 628.703 47.9375 628.723C47.9375 628.743 47.9375 628.763 47.9375 628.784C47.9375 628.804 47.9375 628.825 47.9375 628.846C47.9375 628.867 47.9375 628.889 47.9375 628.91C47.9375 628.932 47.9375 628.954 47.9375 628.976C47.9375 628.998 47.9375 629.02 47.9375 629.042C47.9375 629.065 47.9375 629.088 47.9375 629.111C47.9375 629.134 47.9375 629.157 47.9375 629.18C47.9375 629.204 47.9375 629.228 47.9375 629.252C47.9375 629.276 47.9375 629.3 47.9375 629.324C47.9375 629.349 47.9375 629.373 47.9375 629.398C47.9375 629.423 47.9375 629.448 47.9375 629.474C47.9375 629.499 47.9375 629.524 47.9375 629.55C47.9375 629.576 47.9375 629.602 47.9375 629.629C47.9375 629.655 47.9375 629.681 47.9375 629.708C47.9375 629.735 47.9375 629.762 47.9375 629.789C47.9375 629.816 47.9375 629.844 47.9375 629.872C47.9375 629.899 47.9375 629.927 47.9375 629.956C47.9375 629.984 47.9375 630.012 47.9375 630.041C47.9375 630.069 47.9375 630.098 47.9375 630.127C47.9375 630.157 47.9375 630.186 47.9375 630.215C47.9375 630.245 47.9375 630.275 47.9375 630.305C47.9375 630.335 47.9375 630.365 47.9375 630.396C47.9375 630.426 47.9375 630.457 47.9375 630.488C47.9375 630.519 47.9375 630.55 47.9375 630.581C47.9375 630.613 47.9375 630.645 47.9375 630.676C47.9375 630.708 47.9375 630.74 47.9375 630.773C47.9375 630.805 47.9375 630.838 47.9375 630.87C47.9375 630.903 47.9375 630.936 47.9375 630.97C47.9375 631.003 47.9375 631.036 47.9375 631.07C47.9375 631.104 47.9375 631.138 47.9375 631.172C47.9375 631.206 47.9375 631.24 47.9375 631.275C47.9375 631.31 47.9375 631.344 47.9375 631.379C47.9375 631.414 47.9375 631.45 47.9375 631.485C47.9375 631.521 47.9375 631.557 47.9375 631.593C47.9375 631.628 47.9375 631.665 47.9375 631.701C47.9375 631.737 47.9375 631.774 47.9375 631.811C47.9375 631.848 47.9375 631.885 47.9375 631.922C47.9375 631.96 47.9375 631.997 47.9375 632.035C47.9375 632.073 47.9375 632.111 47.9375 632.149C47.9375 632.187 47.9375 632.225 47.9375 632.264C47.9375 632.303 47.9375 632.342 47.9375 632.381C47.9375 632.42 47.9375 632.459 47.9375 632.499C47.9375 632.538 47.9375 632.578 47.9375 632.618C47.9375 632.658 47.9375 632.698 47.9375 632.738C47.9375 632.779 47.9375 632.819 47.9375 632.86C47.9375 632.901 47.9375 632.942 47.9375 632.983C47.9375 633.025 47.9375 633.066 47.9375 633.108C47.9375 633.15 47.9375 633.192 47.9375 633.234C47.9375 633.276 47.9375 633.318 47.9375 633.361C47.9375 633.404 47.9375 633.446 47.9375 633.489C47.9375 633.532 47.9375 633.576 47.9375 633.619C47.9375 633.663 47.9375 633.706 47.9375 633.75C47.9375 633.794 47.9375 633.838 47.9375 633.882C47.9375 633.927 47.9375 633.971 47.9375 634.016C47.9375 634.061 47.9375 634.106 47.9375 634.151C47.9375 634.196 47.9375 634.242 47.9375 634.287C47.9375 634.333 47.9375 634.379 47.9375 634.425C47.9375 634.471 47.9375 634.517 47.9375 634.563C47.9375 634.61 47.9375 634.656 47.9375 634.703C47.9375 634.75 47.9375 634.797 47.9375 634.845C47.9375 634.892 47.9375 634.94 47.9375 634.987C47.9375 635.035 47.9375 635.083 47.9375 635.131C47.9375 635.179 47.9375 635.228 47.9375 635.276C47.9375 635.325 47.9375 635.374 47.9375 635.423C47.9375 635.472 47.9375 635.521 47.9375 635.57C47.9375 635.62 47.9375 635.669 47.9375 635.719C47.9375 635.769 47.9375 635.819 47.9375 635.869C47.9375 635.919 47.9375 635.97 47.9375 636.021C47.9375 636.071 47.9375 636.122 47.9375 636.173C47.9375 636.224 47.9375 636.276 47.9375 636.327C47.9375 636.379 47.9375 636.43 47.9375 636.482C47.9375 636.534 47.9375 636.586 47.9375 636.639C47.9375 636.691 47.9375 636.743 47.9375 636.796C47.9375 636.849 47.9375 636.902 47.9375 636.955C47.9375 637.008 47.9375 637.061 47.9375 637.115C47.9375 637.169 47.9375 637.222 47.9375 637.276C47.9375 637.33 47.9375 637.384 47.9375 637.439C47.9375 637.493 47.9375 637.548 47.9375 637.603C47.9375 637.657 47.9375 637.712 47.9375 637.767C47.9375 637.823 47.9375 637.878 47.9375 637.934C47.9375 637.989 47.9375 638.045 47.9375 638.101C47.9375 638.157 47.9375 638.213 47.9375 638.27C47.9375 638.326 47.9375 638.383 47.9375 638.439C47.9375 638.496 47.9375 638.553 47.9375 638.61C47.9375 638.667 47.9375 638.725 47.9375 638.782C47.9375 638.84 47.9375 638.898 47.9375 638.956C47.9375 639.014 47.9375 639.072 47.9375 639.13C47.9375 639.189 47.9375 639.247 47.9375 639.306C47.9375 639.365 47.9375 639.424 47.9375 639.483C47.9375 639.542 47.9375 639.602 47.9375 639.661C47.9375 639.721 47.9375 639.781 47.9375 639.841C47.9375 639.901 47.9375 639.961 47.9375 640.021C47.9375 640.081 47.9375 640.142 47.9375 640.203C47.9375 640.263 47.9375 640.324 47.9375 640.385C47.9375 640.447 47.9375 640.508 47.9375 640.57C47.9375 640.631 47.9375 640.693 47.9375 640.755C47.9375 640.817 47.9375 640.879 47.9375 640.941C47.9375 641.003 47.9375 641.066 47.9375 641.129C47.9375 641.191 47.9375 641.254 47.9375 641.317C47.9375 641.38 47.9375 641.444 47.9375 641.507C47.9375 641.57 47.9375 641.634 47.9375 641.698C47.9375 641.762 47.9375 641.826 47.9375 641.89C47.9375 641.954 47.9375 642.019 47.9375 642.083C47.9375 642.148 47.9375 642.213 47.9375 642.278C47.9375 642.343 47.9375 642.408 47.9375 642.473C47.9375 642.539 47.9375 642.604 47.9375 642.67C47.9375 642.736 47.9375 642.802 47.9375 642.868C47.9375 642.934 47.9375 643 47.9375 643.067C47.9375 643.133 47.9375 643.2 47.9375 643.267C47.9375 643.334 47.9375 643.401 47.9375 643.468C47.9375 643.535 47.9375 643.603 47.9375 643.67C47.9375 643.738 47.9375 643.806 47.9375 643.874C47.9375 643.942 47.9375 644.01 47.9375 644.078C47.9375 644.147 47.9375 644.215 47.9375 644.284C47.9375 644.353 47.9375 644.422 47.9375 644.491C47.9375 644.56 47.9375 644.629 47.9375 644.698C47.9375 644.768 47.9375 644.838 47.9375 644.907C47.9375 644.977 47.9375 645.047 47.9375 645.118C47.9375 645.188 47.9375 645.258 47.9375 645.329C47.9375 645.399 47.9375 645.47 47.9375 645.541C47.9375 645.612 47.9375 645.683 47.9375 645.754C47.9375 645.826 47.9375 645.897 47.9375 645.969C47.9375 646.041 47.9375 646.112 47.9375 646.184C47.9375 646.256 47.9375 646.329 47.9375 646.401C47.9375 646.473 47.9375 646.546 47.9375 646.619C47.9375 646.691 47.9375 646.764 47.9375 646.838C47.9375 646.911 47.9375 646.984 47.9375 647.057C47.9375 647.131 47.9375 647.204 47.9375 647.278C47.9375 647.352 47.9375 647.426 47.9375 647.5C47.9375 647.574 47.9375 647.649 47.9375 647.723C47.9375 647.798 47.9375 647.873 47.9375 647.948C47.9375 648.022 47.9375 648.097 47.9375 648.173C47.9375 648.248 47.9375 648.323 47.9375 648.399C47.9375 648.475 47.9375 648.55 47.9375 648.626C47.9375 648.702 47.9375 648.778 47.9375 648.855C47.9375 648.931 47.9375 649.007 47.9375 649.084C47.9375 649.161 47.9375 649.237 47.9375 649.314C47.9375 649.391 47.9375 649.469 47.9375 649.546C47.9375 649.623 47.9375 649.701 47.9375 649.778C47.9375 649.856 47.9375 649.934 47.9375 650.012C47.9375 650.09 47.9375 650.168 47.9375 650.247C47.9375 650.325 47.9375 650.403 47.9375 650.482C47.9375 650.561 47.9375 650.64 47.9375 650.719C47.9375 650.798 47.9375 650.877 47.9375 650.956C47.9375 651.036 47.9375 651.115 47.9375 651.195C47.9375 651.275 47.9375 651.355 47.9375 651.435C47.9375 651.515 47.9375 651.595 47.9375 651.676C47.9375 651.756 47.9375 651.837 47.9375 651.917C47.9375 651.998 47.9375 652.079 47.9375 652.16C47.9375 652.241 47.9375 652.322 47.9375 652.404C47.9375 652.485 47.9375 652.567 47.9375 652.649C47.9375 652.73 47.9375 652.812 47.9375 652.894C47.9375 652.976 47.9375 653.059 47.9375 653.141C47.9375 653.224 47.9375 653.306 47.9375 653.389C47.9375 653.472 47.9375 653.555 47.9375 653.638C47.9375 653.721 47.9375 653.804 47.9375 653.887C47.9375 653.971 47.9375 654.054 47.9375 654.138C47.9375 654.222 47.9375 654.306 47.9375 654.39C47.9375 654.474 47.9375 654.558 47.9375 654.642C47.9375 654.727 47.9375 654.811 47.9375 654.896C47.9375 654.981 47.9375 655.066 47.9375 655.151C47.9375 655.236 47.9375 655.321 47.9375 655.406C47.9375 655.492 47.9375 655.577 47.9375 655.663C47.9375 655.748 47.9375 655.834 47.9375 655.92C47.9375 656.006 47.9375 656.092 47.9375 656.179C47.9375 656.265 47.9375 656.352 47.9375 656.438C47.9375 656.525 47.9375 656.612 47.9375 656.699C47.9375 656.786 47.9375 656.873 47.9375 656.96C47.9375 657.047 47.9375 657.135 47.9375 657.222C47.9375 657.31 47.9375 657.398 47.9375 657.485C47.9375 657.573 47.9375 657.661 47.9375 657.75C47.9375 657.838 47.9375 657.926 47.9375 658.015C47.9375 658.103 47.9375 658.192 47.9375 658.281C47.9375 658.37 47.9375 658.459 47.9375 658.548C47.9375 658.637 47.9375 658.726 47.9375 658.816C47.9375 658.905 47.9375 658.995 47.9375 659.085C47.9375 659.174 47.9375 659.264 47.9375 659.354C47.9375 659.445 47.9375 659.535 47.9375 659.625C47.9375 659.716 47.9375 659.806 47.9375 659.897C47.9375 659.987 47.9375 660.078 47.9375 660.169C47.9375 660.26 47.9375 660.352 47.9375 660.443C47.9375 660.534 47.9375 660.626 47.9375 660.717C47.9375 660.809 47.9375 660.901 47.9375 660.992C47.9375 661.084 47.9375 661.176 47.9375 661.269C47.9375 661.361 47.9375 661.453 47.9375 661.546C47.9375 661.638 47.9375 661.731 47.9375 661.824C47.9375 661.917 47.9375 662.009 47.9375 662.103C47.9375 662.196 47.9375 662.289 47.9375 662.382C47.9375 662.476 47.9375 662.569 47.9375 662.663C47.9375 662.757 47.9375 662.851 47.9375 662.945C47.9375 663.039 47.9375 663.133 47.9375 663.227C47.9375 663.321 47.9375 663.416 47.9375 663.51C47.9375 663.605 47.9375 663.7 47.9375 663.794C47.9375 663.889 47.9375 663.984 47.9375 664.08C47.9375 664.175 47.9375 664.27 47.9375 664.365C47.9375 664.461 47.9375 664.557 47.9375 664.652C47.9375 664.748 47.9375 664.844 47.9375 664.94C47.9375 665.036 47.9375 665.132 47.9375 665.229C47.9375 665.325 47.9375 665.421 47.9375 665.518C47.9375 665.615 47.9375 665.711 47.9375 665.808C47.9375 665.905 47.9375 666.002 47.9375 666.099C47.9375 666.196 47.9375 666.294 47.9375 666.391C47.9375 666.489 47.9375 666.586 47.9375 666.684C47.9375 666.782 47.9375 666.88 47.9375 666.978C47.9375 667.076 47.9375 667.174 47.9375 667.272C47.9375 667.37 47.9375 667.469 47.9375 667.568C47.9375 667.666 47.9375 667.765 47.9375 667.864C47.9375 667.963 47.9375 668.062 47.9375 668.161C47.9375 668.26 47.9375 668.359 47.9375 668.459C47.9375 668.558 47.9375 668.657 47.9375 668.757C47.9375 668.857 47.9375 668.957 47.9375 669.057C47.9375 669.157 47.9375 669.257 47.9375 669.357C47.9375 669.457 47.9375 669.558 47.9375 669.658C47.9375 669.759 47.9375 669.859 47.9375 669.96C47.9375 670.061 47.9375 670.162 47.9375 670.263C47.9375 670.364 47.9375 670.465 47.9375 670.566C47.9375 670.668 47.9375 670.769 47.9375 670.871C47.9375 670.972 47.9375 671.074 47.9375 671.176C47.9375 671.278 47.9375 671.38 47.9375 671.482C47.9375 671.584 47.9375 671.686 47.9375 671.789C47.9375 671.891 47.9375 671.994 47.9375 672.096C47.9375 672.199 47.9375 672.302 47.9375 672.405C47.9375 672.508 47.9375 672.611 47.9375 672.714C47.9375 672.817 47.9375 672.92 47.9375 673.024C47.9375 673.127 47.9375 673.231 47.9375 673.334C47.9375 673.438 47.9375 673.542 47.9375 673.646C47.9375 673.75 47.9375 673.854 47.9375 673.958C47.9375 674.062 47.9375 674.167 47.9375 674.271C47.9375 674.376 47.9375 674.48 47.9375 674.585C47.9375 674.69 47.9375 674.795 47.9375 674.9C47.9375 675.005 47.9375 675.11 47.9375 675.215C47.9375 675.32 47.9375 675.426 47.9375 675.531C47.9375 675.637 47.9375 675.742 47.9375 675.848C47.9375 675.954 47.9375 676.06 47.9375 676.166C47.9375 676.272 47.9375 676.378 47.9375 676.484C47.9375 676.59 47.9375 676.697 47.9375 676.803C47.9375 676.91 47.9375 677.016 47.9375 677.123C47.9375 677.23 47.9375 677.337 47.9375 677.444C47.9375 677.551 47.9375 677.658 47.9375 677.765C47.9375 677.872 47.9375 677.98 47.9375 678.087C47.9375 678.195 47.9375 678.302 47.9375 678.41C47.9375 678.518 47.9375 678.626 47.9375 678.734C47.9375 678.842 47.9375 678.95 47.9375 679.058C47.9375 679.166 47.9375 679.274 47.9375 679.383C47.9375 679.491 47.9375 679.6 47.9375 679.709C47.9375 679.817 47.9375 679.926 47.9375 680.035C47.9375 680.144 47.9375 680.253 47.9375 680.362C47.9375 680.471 47.9375 680.581 47.9375 680.69C47.9375 680.8 47.9375 680.909 47.9375 681.019C47.9375 681.128 47.9375 681.238 47.9375 681.348C47.9375 681.458 47.9375 681.568 47.9375 681.678C47.9375 681.788 47.9375 681.899 47.9375 682.009C47.9375 682.119 47.9375 682.23 47.9375 682.34C47.9375 682.451 47.9375 682.562 47.9375 682.672C47.9375 682.783 47.9375 682.894 47.9375 683.005C47.9375 683.116 47.9375 683.228 47.9375 683.339C47.9375 683.45 47.9375 683.562 47.9375 683.673C47.9375 683.785 47.9375 683.896 47.9375 684.008C47.9375 684.12 47.9375 684.232 47.9375 684.344C47.9375 684.455 47.9375 684.568 47.9375 684.68C47.9375 684.792 47.9375 684.904 47.9375 685.017C47.9375 685.129 47.9375 685.242 47.9375 685.354C47.9375 685.467 47.9375 685.58 47.9375 685.693C47.9375 685.805 47.9375 685.918 47.9375 686.031C47.9375 686.145 47.9375 686.258 47.9375 686.371C47.9375 686.484 47.9375 686.598 47.9375 686.711C47.9375 686.825 47.9375 686.938 47.9375 687.052C47.9375 687.166 47.9375 687.28 47.9375 687.394C47.9375 687.508 47.9375 687.622 47.9375 687.736C47.9375 687.85 47.9375 687.964 47.9375 688.079C47.9375 688.193 47.9375 688.308 47.9375 688.422C47.9375 688.537 47.9375 688.652 47.9375 688.767C47.9375 688.881 47.9375 688.996 47.9375 689.111C47.9375 689.226 47.9375 689.342 47.9375 689.457C47.9375 689.572 47.9375 689.687 47.9375 689.803C47.9375 689.918 47.9375 690.034 47.9375 690.15C47.9375 690.265 47.9375 690.381 47.9375 690.497C47.9375 690.613 47.9375 690.729 47.9375 690.845C47.9375 690.961 47.9375 691.077 47.9375 691.193C47.9375 691.31 47.9375 691.426 47.9375 691.543C47.9375 691.659 47.9375 691.776 47.9375 691.892C47.9375 692.009 47.9375 692.126 47.9375 692.243C47.9375 692.36 47.9375 692.477 47.9375 692.594C47.9375 692.711 47.9375 692.828 47.9375 692.946C47.9375 693.063 47.9375 693.18 47.9375 693.298C47.9375 693.415 47.9375 693.533 47.9375 693.651C47.9375 693.768 47.9375 693.886 47.9375 694.004C47.9375 694.122 47.9375 694.24 47.9375 694.358C47.9375 694.476 47.9375 694.594 47.9375 694.713C47.9375 694.831 47.9375 694.95 47.9375 695.068C47.9375 695.187 47.9375 695.305 47.9375 695.424C47.9375 695.543 47.9375 695.661 47.9375 695.78C47.9375 695.899 47.9375 696.018 47.9375 696.137C47.9375 696.256 47.9375 696.375 47.9375 696.495C47.9375 696.614 47.9375 696.733 47.9375 696.853C47.9375 696.972 47.9375 697.092 47.9375 697.212C47.9375 697.331 47.9375 697.451 47.9375 697.571C47.9375 697.691 47.9375 697.811 47.9375 697.931C47.9375 698.051 47.9375 698.171 47.9375 698.291C47.9375 698.411 47.9375 698.532 47.9375 698.652C47.9375 698.773 47.9375 698.893 47.9375 699.014C47.9375 699.134 47.9375 699.255 47.9375 699.376C47.9375 699.496 47.9375 699.617 47.9375 699.738C47.9375 699.859 47.9375 699.98 47.9375 700.101C47.9375 700.223 47.9375 700.344 47.9375 700.465C47.9375 700.586 47.9375 700.708 47.9375 700.829C47.9375 700.951 47.9375 701.073 47.9375 701.194C47.9375 701.316 47.9375 701.438 47.9375 701.56C47.9375 701.681 47.9375 701.803 47.9375 701.925C47.9375 702.047 47.9375 702.17 47.9375 702.292C47.9375 702.414 47.9375 702.536 47.9375 702.659C47.9375 702.781 47.9375 702.904 47.9375 703.026C47.9375 703.149 47.9375 703.271 47.9375 703.394C47.9375 703.517 47.9375 703.64 47.9375 703.763C47.9375 703.886 47.9375 704.009 47.9375 704.132C47.9375 704.255 47.9375 704.378 47.9375 704.501C47.9375 704.624 47.9375 704.748 47.9375 704.871C47.9375 704.995 47.9375 705.118 47.9375 705.242C47.9375 705.365 47.9375 705.489 47.9375 705.613C47.9375 705.737 47.9375 705.86 47.9375 705.984C47.9375 706.108 47.9375 706.232 47.9375 706.356C47.9375 706.48 47.9375 706.605 47.9375 706.729C47.9375 706.853 47.9375 706.977 47.9375 707.102C47.9375 707.226 47.9375 707.351 47.9375 707.475C47.9375 707.6 47.9375 707.725 47.9375 707.849C47.9375 707.974 47.9375 708.099 47.9375 708.224C47.9375 708.349 47.9375 708.474 47.9375 708.599C47.9375 708.724 47.9375 708.849 47.9375 708.974C47.9375 709.099 47.9375 709.225 47.9375 709.35C47.9375 709.475 47.9375 709.601 47.9375 709.727C47.9375 709.852 47.9375 709.978 47.9375 710.103C47.9375 710.229 47.9375 710.355 47.9375 710.481C47.9375 710.606 47.9375 710.732 47.9375 710.858C47.9375 710.984 47.9375 711.11 47.9375 711.237C47.9375 711.363 47.9375 711.489 47.9375 711.615C47.9375 711.742 47.9375 711.868 47.9375 711.994C47.9375 712.121 47.9375 712.247 47.9375 712.374C47.9375 712.501 47.9375 712.627 47.9375 712.754C47.9375 712.881 47.9375 713.008 47.9375 713.135C47.9375 713.261 47.9375 713.388 47.9375 713.515C47.9375 713.642 47.9375 713.77 47.9375 713.897C47.9375 714.024 47.9375 714.151 47.9375 714.279C47.9375 714.406 47.9375 714.533 47.9375 714.661C47.9375 714.788 47.9375 714.916 47.9375 715.043C47.9375 715.171 47.9375 715.299 47.9375 715.427C47.9375 715.554 47.9375 715.682 47.9375 715.81C47.9375 715.938 47.9375 716.066 47.9375 716.194C47.9375 716.322 47.9375 716.45 47.9375 716.578C47.9375 716.706 47.9375 716.835 47.9375 716.963C47.9375 717.091 47.9375 717.22 47.9375 717.348C47.9375 717.477 47.9375 717.605 47.9375 717.734C47.9375 717.862 47.9375 717.991 47.9375 718.12C47.9375 718.248 47.9375 718.377 47.9375 718.506C47.9375 718.635 47.9375 718.764 47.9375 718.893C47.9375 719.022 47.9375 719.151 47.9375 719.28C47.9375 719.409 47.9375 719.538 47.9375 719.668C47.9375 719.797 47.9375 719.926 47.9375 720.056C47.9375 720.185 47.9375 720.314 47.9375 720.444C47.9375 720.573 47.9375 720.703 47.9375 720.833C47.9375 720.962 47.9375 721.092 47.9375 721.222C47.9375 721.352 47.9375 721.481 47.9375 721.611C47.9375 721.741 47.9375 721.871 47.9375 722.001C47.9375 722.131 47.9375 722.261 47.9375 722.391C47.9375 722.521 47.9375 722.652 47.9375 722.782C47.9375 722.912 47.9375 723.042 47.9375 723.173C47.9375 723.303 47.9375 723.434 47.9375 723.564C47.9375 723.695 47.9375 723.825 47.9375 723.956C47.9375 724.087 47.9375 724.217 47.9375 724.348C47.9375 724.479 47.9375 724.609 47.9375 724.74C47.9375 724.871 47.9375 725.002 47.9375 725.133C47.9375 725.264 47.9375 725.395 47.9375 725.526C47.9375 725.657 47.9375 725.788 47.9375 725.92C47.9375 726.051 47.9375 726.182 47.9375 726.313C47.9375 726.445 47.9375 726.576 47.9375 726.708C47.9375 726.839 47.9375 726.971 47.9375 727.102C47.9375 727.234 47.9375 727.365 47.9375 727.497C47.9375 727.629 47.9375 727.76 47.9375 727.892C47.9375 728.024 47.9375 728.156 47.9375 728.287C47.9375 728.419 47.9375 728.551 47.9375 728.683C47.9375 728.815 47.9375 728.947 47.9375 729.079C47.9375 729.211 47.9375 729.344 47.9375 729.476C47.9375 729.608 47.9375 729.74 47.9375 729.873C47.9375 730.005 47.9375 730.137 47.9375 730.27C47.9375 730.402 47.9375 730.534 47.9375 730.667C47.9375 730.799 47.9375 730.932 47.9375 731.065C47.9375 731.197 47.9375 731.33 47.9375 731.463C47.9375 731.595 47.9375 731.728 47.9375 731.861C47.9375 731.994 47.9375 732.127 47.9375 732.26C47.9375 732.392 47.9375 732.525 47.9375 732.658C47.9375 732.791 47.9375 732.924 47.9375 733.058C47.9375 733.191 47.9375 733.324 47.9375 733.457C47.9375 733.59 47.9375 733.723 47.9375 733.857C47.9375 733.99 47.9375 734.123 47.9375 734.257C47.9375 734.39 47.9375 734.524 47.9375 734.657C47.9375 734.791 47.9375 734.924 47.9375 735.058C47.9375 735.191 47.9375 735.325 47.9375 735.458C47.9375 735.592 47.9375 735.726 47.9375 735.86C47.9375 735.993 47.9375 736.127 47.9375 736.261C47.9375 736.395 47.9375 736.529 47.9375 736.663C47.9375 736.797 47.9375 736.931 47.9375 737.065C47.9375 737.199 47.9375 737.333 47.9375 737.467C47.9375 737.601 47.9375 737.735 47.9375 737.869C47.9375 738.003 47.9375 738.138 47.9375 738.272C47.9375 738.406 47.9375 738.541 47.9375 738.675C47.9375 738.809 47.9375 738.944 47.9375 739.078C47.9375 739.213 47.9375 739.347 47.9375 739.482C47.9375 739.616 47.9375 739.751 47.9375 739.885C47.9375 740.02 47.9375 740.154 47.9375 740.289C47.9375 740.424 47.9375 740.559 47.9375 740.693C47.9375 740.828 47.9375 740.963 47.9375 741.098C47.9375 741.232 47.9375 741.367 47.9375 741.502C47.9375 741.637 47.9375 741.772 47.9375 741.907C47.9375 742.042 47.9375 742.177 47.9375 742.312C47.9375 742.447 47.9375 742.582 47.9375 742.717C47.9375 742.853 47.9375 742.988 47.9375 743.123C47.9375 743.258 47.9375 743.393 47.9375 743.529C47.9375 743.664 47.9375 743.799 47.9375 743.935C47.9375 744.07 47.9375 744.205 47.9375 744.341C47.9375 744.476 47.9375 744.612 47.9375 744.747C47.9375 744.883 47.9375 745.018 47.9375 745.154C47.9375 745.289 47.9375 745.425 47.9375 745.56C47.9375 745.696 47.9375 745.832 47.9375 745.967C47.9375 746.103 47.9375 746.239 47.9375 746.374C47.9375 746.51 47.9375 746.646 47.9375 746.782C47.9375 746.918 47.9375 747.053 47.9375 747.189C47.9375 747.325 47.9375 747.461 47.9375 747.597C47.9375 747.733 47.9375 747.869 47.9375 748.005C47.9375 748.141 47.9375 748.277 47.9375 748.413C47.9375 748.549 47.9375 748.685 47.9375 748.821C47.9375 748.957 47.9375 749.093 47.9375 749.23C47.9375 749.366 47.9375 749.502 47.9375 749.638C47.9375 749.774 47.9375 749.911 47.9375 750.047C47.9375 750.183 47.9375 750.32 47.9375 750.456C47.9375 750.592 47.9375 750.729 47.9375 750.865C47.9375 751.001 47.9375 751.138 47.9375 751.274C47.9375 751.411 47.9375 751.547 47.9375 751.684C47.9375 751.82 47.9375 751.957 47.9375 752.093C47.9375 752.23 47.9375 752.366 47.9375 752.503C47.9375 752.639 47.9375 752.776 47.9375 752.913C47.9375 753.049 47.9375 753.186 47.9375 753.323C47.9375 753.459 47.9375 753.596 47.9375 753.733C47.9375 753.87 47.9375 754.006 47.9375 754.143C47.9375 754.28 47.9375 754.417 47.9375 754.553C47.9375 754.69 47.9375 754.827 47.9375 754.964C47.9375 755.101 47.9375 755.238 47.9375 755.375C47.9375 755.511 47.9375 755.648 47.9375 755.785C47.9375 755.922 47.9375 756.059 47.9375 756.196C47.9375 756.333 47.9375 756.47 47.9375 756.607C47.9375 756.744 47.9375 756.881 47.9375 757.018C47.9375 757.156 47.9375 757.293 47.9375 757.43C47.9375 757.567 47.9375 757.704 47.9375 757.841C47.9375 757.978 47.9375 758.115 47.9375 758.253C47.9375 758.39 47.9375 758.527 47.9375 758.664C47.9375 758.801 47.9375 758.939 47.9375 759.076C47.9375 759.213 47.9375 759.35 47.9375 759.488C47.9375 759.625 47.9375 759.762 47.9375 759.899C47.9375 760.037 47.9375 760.174 47.9375 760.311C47.9375 760.449 47.9375 760.586 47.9375 760.723C47.9375 760.861 47.9375 760.998 47.9375 761.136C47.9375 761.273 47.9375 761.41 47.9375 761.548C47.9375 761.685 47.9375 761.823 47.9375 761.96C47.9375 762.098 47.9375 762.235 47.9375 762.372C47.9375 762.51 47.9375 762.647 47.9375 762.785C47.9375 762.922 47.9375 763.06 47.9375 763.198C47.9375 763.335 47.9375 763.473 47.9375 763.61C47.9375 763.748 47.9375 763.885 47.9375 764.023C47.9375 764.16 47.9375 764.298 47.9375 764.435C47.9375 764.573 47.9375 764.711 47.9375 764.848C47.9375 764.986 47.9375 765.124 47.9375 765.261C47.9375 765.399 47.9375 765.536 47.9375 765.674C47.9375 765.812 47.9375 765.949 47.9375 766.087C47.9375 766.225 47.9375 766.362 47.9375 766.5H48.9375H49.9375C49.9375 766.362 49.9375 766.225 49.9375 766.087C49.9375 765.949 49.9375 765.812 49.9375 765.674C49.9375 765.536 49.9375 765.399 49.9375 765.261C49.9375 765.124 49.9375 764.986 49.9375 764.848C49.9375 764.711 49.9375 764.573 49.9375 764.435C49.9375 764.298 49.9375 764.16 49.9375 764.023C49.9375 763.885 49.9375 763.748 49.9375 763.61C49.9375 763.473 49.9375 763.335 49.9375 763.198C49.9375 763.06 49.9375 762.922 49.9375 762.785C49.9375 762.647 49.9375 762.51 49.9375 762.372C49.9375 762.235 49.9375 762.098 49.9375 761.96C49.9375 761.823 49.9375 761.685 49.9375 761.548C49.9375 761.41 49.9375 761.273 49.9375 761.136C49.9375 760.998 49.9375 760.861 49.9375 760.723C49.9375 760.586 49.9375 760.449 49.9375 760.311C49.9375 760.174 49.9375 760.037 49.9375 759.899C49.9375 759.762 49.9375 759.625 49.9375 759.488C49.9375 759.35 49.9375 759.213 49.9375 759.076C49.9375 758.939 49.9375 758.801 49.9375 758.664C49.9375 758.527 49.9375 758.39 49.9375 758.253C49.9375 758.115 49.9375 757.978 49.9375 757.841C49.9375 757.704 49.9375 757.567 49.9375 757.43C49.9375 757.293 49.9375 757.156 49.9375 757.018C49.9375 756.881 49.9375 756.744 49.9375 756.607C49.9375 756.47 49.9375 756.333 49.9375 756.196C49.9375 756.059 49.9375 755.922 49.9375 755.785C49.9375 755.648 49.9375 755.511 49.9375 755.375C49.9375 755.238 49.9375 755.101 49.9375 754.964C49.9375 754.827 49.9375 754.69 49.9375 754.553C49.9375 754.417 49.9375 754.28 49.9375 754.143C49.9375 754.006 49.9375 753.87 49.9375 753.733C49.9375 753.596 49.9375 753.459 49.9375 753.323C49.9375 753.186 49.9375 753.049 49.9375 752.913C49.9375 752.776 49.9375 752.639 49.9375 752.503C49.9375 752.366 49.9375 752.23 49.9375 752.093C49.9375 751.957 49.9375 751.82 49.9375 751.684C49.9375 751.547 49.9375 751.411 49.9375 751.274C49.9375 751.138 49.9375 751.001 49.9375 750.865C49.9375 750.729 49.9375 750.592 49.9375 750.456C49.9375 750.32 49.9375 750.183 49.9375 750.047C49.9375 749.911 49.9375 749.774 49.9375 749.638C49.9375 749.502 49.9375 749.366 49.9375 749.23C49.9375 749.093 49.9375 748.957 49.9375 748.821C49.9375 748.685 49.9375 748.549 49.9375 748.413C49.9375 748.277 49.9375 748.141 49.9375 748.005C49.9375 747.869 49.9375 747.733 49.9375 747.597C49.9375 747.461 49.9375 747.325 49.9375 747.189C49.9375 747.053 49.9375 746.918 49.9375 746.782C49.9375 746.646 49.9375 746.51 49.9375 746.374C49.9375 746.239 49.9375 746.103 49.9375 745.967C49.9375 745.832 49.9375 745.696 49.9375 745.56C49.9375 745.425 49.9375 745.289 49.9375 745.154C49.9375 745.018 49.9375 744.883 49.9375 744.747C49.9375 744.612 49.9375 744.476 49.9375 744.341C49.9375 744.205 49.9375 744.07 49.9375 743.935C49.9375 743.799 49.9375 743.664 49.9375 743.529C49.9375 743.393 49.9375 743.258 49.9375 743.123C49.9375 742.988 49.9375 742.853 49.9375 742.717C49.9375 742.582 49.9375 742.447 49.9375 742.312C49.9375 742.177 49.9375 742.042 49.9375 741.907C49.9375 741.772 49.9375 741.637 49.9375 741.502C49.9375 741.367 49.9375 741.232 49.9375 741.098C49.9375 740.963 49.9375 740.828 49.9375 740.693C49.9375 740.559 49.9375 740.424 49.9375 740.289C49.9375 740.154 49.9375 740.02 49.9375 739.885C49.9375 739.751 49.9375 739.616 49.9375 739.482C49.9375 739.347 49.9375 739.213 49.9375 739.078C49.9375 738.944 49.9375 738.809 49.9375 738.675C49.9375 738.541 49.9375 738.406 49.9375 738.272C49.9375 738.138 49.9375 738.003 49.9375 737.869C49.9375 737.735 49.9375 737.601 49.9375 737.467C49.9375 737.333 49.9375 737.199 49.9375 737.065C49.9375 736.931 49.9375 736.797 49.9375 736.663C49.9375 736.529 49.9375 736.395 49.9375 736.261C49.9375 736.127 49.9375 735.993 49.9375 735.86C49.9375 735.726 49.9375 735.592 49.9375 735.458C49.9375 735.325 49.9375 735.191 49.9375 735.058C49.9375 734.924 49.9375 734.791 49.9375 734.657C49.9375 734.524 49.9375 734.39 49.9375 734.257C49.9375 734.123 49.9375 733.99 49.9375 733.857C49.9375 733.723 49.9375 733.59 49.9375 733.457C49.9375 733.324 49.9375 733.191 49.9375 733.058C49.9375 732.924 49.9375 732.791 49.9375 732.658C49.9375 732.525 49.9375 732.392 49.9375 732.26C49.9375 732.127 49.9375 731.994 49.9375 731.861C49.9375 731.728 49.9375 731.595 49.9375 731.463C49.9375 731.33 49.9375 731.197 49.9375 731.065C49.9375 730.932 49.9375 730.799 49.9375 730.667C49.9375 730.534 49.9375 730.402 49.9375 730.27C49.9375 730.137 49.9375 730.005 49.9375 729.873C49.9375 729.74 49.9375 729.608 49.9375 729.476C49.9375 729.344 49.9375 729.211 49.9375 729.079C49.9375 728.947 49.9375 728.815 49.9375 728.683C49.9375 728.551 49.9375 728.419 49.9375 728.287C49.9375 728.156 49.9375 728.024 49.9375 727.892C49.9375 727.76 49.9375 727.629 49.9375 727.497C49.9375 727.365 49.9375 727.234 49.9375 727.102C49.9375 726.971 49.9375 726.839 49.9375 726.708C49.9375 726.576 49.9375 726.445 49.9375 726.313C49.9375 726.182 49.9375 726.051 49.9375 725.92C49.9375 725.788 49.9375 725.657 49.9375 725.526C49.9375 725.395 49.9375 725.264 49.9375 725.133C49.9375 725.002 49.9375 724.871 49.9375 724.74C49.9375 724.609 49.9375 724.479 49.9375 724.348C49.9375 724.217 49.9375 724.087 49.9375 723.956C49.9375 723.825 49.9375 723.695 49.9375 723.564C49.9375 723.434 49.9375 723.303 49.9375 723.173C49.9375 723.042 49.9375 722.912 49.9375 722.782C49.9375 722.652 49.9375 722.521 49.9375 722.391C49.9375 722.261 49.9375 722.131 49.9375 722.001C49.9375 721.871 49.9375 721.741 49.9375 721.611C49.9375 721.481 49.9375 721.352 49.9375 721.222C49.9375 721.092 49.9375 720.962 49.9375 720.833C49.9375 720.703 49.9375 720.573 49.9375 720.444C49.9375 720.314 49.9375 720.185 49.9375 720.056C49.9375 719.926 49.9375 719.797 49.9375 719.668C49.9375 719.538 49.9375 719.409 49.9375 719.28C49.9375 719.151 49.9375 719.022 49.9375 718.893C49.9375 718.764 49.9375 718.635 49.9375 718.506C49.9375 718.377 49.9375 718.248 49.9375 718.12C49.9375 717.991 49.9375 717.862 49.9375 717.734C49.9375 717.605 49.9375 717.477 49.9375 717.348C49.9375 717.22 49.9375 717.091 49.9375 716.963C49.9375 716.835 49.9375 716.706 49.9375 716.578C49.9375 716.45 49.9375 716.322 49.9375 716.194C49.9375 716.066 49.9375 715.938 49.9375 715.81C49.9375 715.682 49.9375 715.554 49.9375 715.427C49.9375 715.299 49.9375 715.171 49.9375 715.043C49.9375 714.916 49.9375 714.788 49.9375 714.661C49.9375 714.533 49.9375 714.406 49.9375 714.279C49.9375 714.151 49.9375 714.024 49.9375 713.897C49.9375 713.77 49.9375 713.642 49.9375 713.515C49.9375 713.388 49.9375 713.261 49.9375 713.135C49.9375 713.008 49.9375 712.881 49.9375 712.754C49.9375 712.627 49.9375 712.501 49.9375 712.374C49.9375 712.247 49.9375 712.121 49.9375 711.994C49.9375 711.868 49.9375 711.742 49.9375 711.615C49.9375 711.489 49.9375 711.363 49.9375 711.237C49.9375 711.11 49.9375 710.984 49.9375 710.858C49.9375 710.732 49.9375 710.606 49.9375 710.481C49.9375 710.355 49.9375 710.229 49.9375 710.103C49.9375 709.978 49.9375 709.852 49.9375 709.727C49.9375 709.601 49.9375 709.475 49.9375 709.35C49.9375 709.225 49.9375 709.099 49.9375 708.974C49.9375 708.849 49.9375 708.724 49.9375 708.599C49.9375 708.474 49.9375 708.349 49.9375 708.224C49.9375 708.099 49.9375 707.974 49.9375 707.849C49.9375 707.725 49.9375 707.6 49.9375 707.475C49.9375 707.351 49.9375 707.226 49.9375 707.102C49.9375 706.977 49.9375 706.853 49.9375 706.729C49.9375 706.605 49.9375 706.48 49.9375 706.356C49.9375 706.232 49.9375 706.108 49.9375 705.984C49.9375 705.86 49.9375 705.737 49.9375 705.613C49.9375 705.489 49.9375 705.365 49.9375 705.242C49.9375 705.118 49.9375 704.995 49.9375 704.871C49.9375 704.748 49.9375 704.624 49.9375 704.501C49.9375 704.378 49.9375 704.255 49.9375 704.132C49.9375 704.009 49.9375 703.886 49.9375 703.763C49.9375 703.64 49.9375 703.517 49.9375 703.394C49.9375 703.271 49.9375 703.149 49.9375 703.026C49.9375 702.904 49.9375 702.781 49.9375 702.659C49.9375 702.536 49.9375 702.414 49.9375 702.292C49.9375 702.17 49.9375 702.047 49.9375 701.925C49.9375 701.803 49.9375 701.681 49.9375 701.56C49.9375 701.438 49.9375 701.316 49.9375 701.194C49.9375 701.073 49.9375 700.951 49.9375 700.829C49.9375 700.708 49.9375 700.586 49.9375 700.465C49.9375 700.344 49.9375 700.223 49.9375 700.101C49.9375 699.98 49.9375 699.859 49.9375 699.738C49.9375 699.617 49.9375 699.496 49.9375 699.376C49.9375 699.255 49.9375 699.134 49.9375 699.014C49.9375 698.893 49.9375 698.773 49.9375 698.652C49.9375 698.532 49.9375 698.411 49.9375 698.291C49.9375 698.171 49.9375 698.051 49.9375 697.931C49.9375 697.811 49.9375 697.691 49.9375 697.571C49.9375 697.451 49.9375 697.331 49.9375 697.212C49.9375 697.092 49.9375 696.972 49.9375 696.853C49.9375 696.733 49.9375 696.614 49.9375 696.495C49.9375 696.375 49.9375 696.256 49.9375 696.137C49.9375 696.018 49.9375 695.899 49.9375 695.78C49.9375 695.661 49.9375 695.543 49.9375 695.424C49.9375 695.305 49.9375 695.187 49.9375 695.068C49.9375 694.95 49.9375 694.831 49.9375 694.713C49.9375 694.594 49.9375 694.476 49.9375 694.358C49.9375 694.24 49.9375 694.122 49.9375 694.004C49.9375 693.886 49.9375 693.768 49.9375 693.651C49.9375 693.533 49.9375 693.415 49.9375 693.298C49.9375 693.18 49.9375 693.063 49.9375 692.946C49.9375 692.828 49.9375 692.711 49.9375 692.594C49.9375 692.477 49.9375 692.36 49.9375 692.243C49.9375 692.126 49.9375 692.009 49.9375 691.892C49.9375 691.776 49.9375 691.659 49.9375 691.543C49.9375 691.426 49.9375 691.31 49.9375 691.193C49.9375 691.077 49.9375 690.961 49.9375 690.845C49.9375 690.729 49.9375 690.613 49.9375 690.497C49.9375 690.381 49.9375 690.265 49.9375 690.15C49.9375 690.034 49.9375 689.918 49.9375 689.803C49.9375 689.687 49.9375 689.572 49.9375 689.457C49.9375 689.342 49.9375 689.226 49.9375 689.111C49.9375 688.996 49.9375 688.881 49.9375 688.767C49.9375 688.652 49.9375 688.537 49.9375 688.422C49.9375 688.308 49.9375 688.193 49.9375 688.079C49.9375 687.964 49.9375 687.85 49.9375 687.736C49.9375 687.622 49.9375 687.508 49.9375 687.394C49.9375 687.28 49.9375 687.166 49.9375 687.052C49.9375 686.938 49.9375 686.825 49.9375 686.711C49.9375 686.598 49.9375 686.484 49.9375 686.371C49.9375 686.258 49.9375 686.145 49.9375 686.031C49.9375 685.918 49.9375 685.805 49.9375 685.693C49.9375 685.58 49.9375 685.467 49.9375 685.354C49.9375 685.242 49.9375 685.129 49.9375 685.017C49.9375 684.904 49.9375 684.792 49.9375 684.68C49.9375 684.568 49.9375 684.455 49.9375 684.344C49.9375 684.232 49.9375 684.12 49.9375 684.008C49.9375 683.896 49.9375 683.785 49.9375 683.673C49.9375 683.562 49.9375 683.45 49.9375 683.339C49.9375 683.228 49.9375 683.116 49.9375 683.005C49.9375 682.894 49.9375 682.783 49.9375 682.672C49.9375 682.562 49.9375 682.451 49.9375 682.34C49.9375 682.23 49.9375 682.119 49.9375 682.009C49.9375 681.899 49.9375 681.788 49.9375 681.678C49.9375 681.568 49.9375 681.458 49.9375 681.348C49.9375 681.238 49.9375 681.128 49.9375 681.019C49.9375 680.909 49.9375 680.8 49.9375 680.69C49.9375 680.581 49.9375 680.471 49.9375 680.362C49.9375 680.253 49.9375 680.144 49.9375 680.035C49.9375 679.926 49.9375 679.817 49.9375 679.709C49.9375 679.6 49.9375 679.491 49.9375 679.383C49.9375 679.274 49.9375 679.166 49.9375 679.058C49.9375 678.95 49.9375 678.842 49.9375 678.734C49.9375 678.626 49.9375 678.518 49.9375 678.41C49.9375 678.302 49.9375 678.195 49.9375 678.087C49.9375 677.98 49.9375 677.872 49.9375 677.765C49.9375 677.658 49.9375 677.551 49.9375 677.444C49.9375 677.337 49.9375 677.23 49.9375 677.123C49.9375 677.016 49.9375 676.91 49.9375 676.803C49.9375 676.697 49.9375 676.59 49.9375 676.484C49.9375 676.378 49.9375 676.272 49.9375 676.166C49.9375 676.06 49.9375 675.954 49.9375 675.848C49.9375 675.742 49.9375 675.637 49.9375 675.531C49.9375 675.426 49.9375 675.32 49.9375 675.215C49.9375 675.11 49.9375 675.005 49.9375 674.9C49.9375 674.795 49.9375 674.69 49.9375 674.585C49.9375 674.48 49.9375 674.376 49.9375 674.271C49.9375 674.167 49.9375 674.062 49.9375 673.958C49.9375 673.854 49.9375 673.75 49.9375 673.646C49.9375 673.542 49.9375 673.438 49.9375 673.334C49.9375 673.231 49.9375 673.127 49.9375 673.024C49.9375 672.92 49.9375 672.817 49.9375 672.714C49.9375 672.611 49.9375 672.508 49.9375 672.405C49.9375 672.302 49.9375 672.199 49.9375 672.096C49.9375 671.994 49.9375 671.891 49.9375 671.789C49.9375 671.686 49.9375 671.584 49.9375 671.482C49.9375 671.38 49.9375 671.278 49.9375 671.176C49.9375 671.074 49.9375 670.972 49.9375 670.871C49.9375 670.769 49.9375 670.668 49.9375 670.566C49.9375 670.465 49.9375 670.364 49.9375 670.263C49.9375 670.162 49.9375 670.061 49.9375 669.96C49.9375 669.859 49.9375 669.759 49.9375 669.658C49.9375 669.558 49.9375 669.457 49.9375 669.357C49.9375 669.257 49.9375 669.157 49.9375 669.057C49.9375 668.957 49.9375 668.857 49.9375 668.757C49.9375 668.657 49.9375 668.558 49.9375 668.459C49.9375 668.359 49.9375 668.26 49.9375 668.161C49.9375 668.062 49.9375 667.963 49.9375 667.864C49.9375 667.765 49.9375 667.666 49.9375 667.568C49.9375 667.469 49.9375 667.37 49.9375 667.272C49.9375 667.174 49.9375 667.076 49.9375 666.978C49.9375 666.88 49.9375 666.782 49.9375 666.684C49.9375 666.586 49.9375 666.489 49.9375 666.391C49.9375 666.294 49.9375 666.196 49.9375 666.099C49.9375 666.002 49.9375 665.905 49.9375 665.808C49.9375 665.711 49.9375 665.615 49.9375 665.518C49.9375 665.421 49.9375 665.325 49.9375 665.229C49.9375 665.132 49.9375 665.036 49.9375 664.94C49.9375 664.844 49.9375 664.748 49.9375 664.652C49.9375 664.557 49.9375 664.461 49.9375 664.365C49.9375 664.27 49.9375 664.175 49.9375 664.08C49.9375 663.984 49.9375 663.889 49.9375 663.794C49.9375 663.7 49.9375 663.605 49.9375 663.51C49.9375 663.416 49.9375 663.321 49.9375 663.227C49.9375 663.133 49.9375 663.039 49.9375 662.945C49.9375 662.851 49.9375 662.757 49.9375 662.663C49.9375 662.569 49.9375 662.476 49.9375 662.382C49.9375 662.289 49.9375 662.196 49.9375 662.103C49.9375 662.009 49.9375 661.917 49.9375 661.824C49.9375 661.731 49.9375 661.638 49.9375 661.546C49.9375 661.453 49.9375 661.361 49.9375 661.269C49.9375 661.176 49.9375 661.084 49.9375 660.992C49.9375 660.901 49.9375 660.809 49.9375 660.717C49.9375 660.626 49.9375 660.534 49.9375 660.443C49.9375 660.352 49.9375 660.26 49.9375 660.169C49.9375 660.078 49.9375 659.987 49.9375 659.897C49.9375 659.806 49.9375 659.716 49.9375 659.625C49.9375 659.535 49.9375 659.445 49.9375 659.354C49.9375 659.264 49.9375 659.174 49.9375 659.085C49.9375 658.995 49.9375 658.905 49.9375 658.816C49.9375 658.726 49.9375 658.637 49.9375 658.548C49.9375 658.459 49.9375 658.37 49.9375 658.281C49.9375 658.192 49.9375 658.103 49.9375 658.015C49.9375 657.926 49.9375 657.838 49.9375 657.75C49.9375 657.661 49.9375 657.573 49.9375 657.485C49.9375 657.398 49.9375 657.31 49.9375 657.222C49.9375 657.135 49.9375 657.047 49.9375 656.96C49.9375 656.873 49.9375 656.786 49.9375 656.699C49.9375 656.612 49.9375 656.525 49.9375 656.438C49.9375 656.352 49.9375 656.265 49.9375 656.179C49.9375 656.092 49.9375 656.006 49.9375 655.92C49.9375 655.834 49.9375 655.748 49.9375 655.663C49.9375 655.577 49.9375 655.492 49.9375 655.406C49.9375 655.321 49.9375 655.236 49.9375 655.151C49.9375 655.066 49.9375 654.981 49.9375 654.896C49.9375 654.811 49.9375 654.727 49.9375 654.642C49.9375 654.558 49.9375 654.474 49.9375 654.39C49.9375 654.306 49.9375 654.222 49.9375 654.138C49.9375 654.054 49.9375 653.971 49.9375 653.887C49.9375 653.804 49.9375 653.721 49.9375 653.638C49.9375 653.555 49.9375 653.472 49.9375 653.389C49.9375 653.306 49.9375 653.224 49.9375 653.141C49.9375 653.059 49.9375 652.976 49.9375 652.894C49.9375 652.812 49.9375 652.73 49.9375 652.649C49.9375 652.567 49.9375 652.485 49.9375 652.404C49.9375 652.322 49.9375 652.241 49.9375 652.16C49.9375 652.079 49.9375 651.998 49.9375 651.917C49.9375 651.837 49.9375 651.756 49.9375 651.676C49.9375 651.595 49.9375 651.515 49.9375 651.435C49.9375 651.355 49.9375 651.275 49.9375 651.195C49.9375 651.115 49.9375 651.036 49.9375 650.956C49.9375 650.877 49.9375 650.798 49.9375 650.719C49.9375 650.64 49.9375 650.561 49.9375 650.482C49.9375 650.403 49.9375 650.325 49.9375 650.247C49.9375 650.168 49.9375 650.09 49.9375 650.012C49.9375 649.934 49.9375 649.856 49.9375 649.778C49.9375 649.701 49.9375 649.623 49.9375 649.546C49.9375 649.469 49.9375 649.391 49.9375 649.314C49.9375 649.237 49.9375 649.161 49.9375 649.084C49.9375 649.007 49.9375 648.931 49.9375 648.855C49.9375 648.778 49.9375 648.702 49.9375 648.626C49.9375 648.55 49.9375 648.475 49.9375 648.399C49.9375 648.323 49.9375 648.248 49.9375 648.173C49.9375 648.097 49.9375 648.022 49.9375 647.948C49.9375 647.873 49.9375 647.798 49.9375 647.723C49.9375 647.649 49.9375 647.574 49.9375 647.5C49.9375 647.426 49.9375 647.352 49.9375 647.278C49.9375 647.204 49.9375 647.131 49.9375 647.057C49.9375 646.984 49.9375 646.911 49.9375 646.838C49.9375 646.764 49.9375 646.691 49.9375 646.619C49.9375 646.546 49.9375 646.473 49.9375 646.401C49.9375 646.329 49.9375 646.256 49.9375 646.184C49.9375 646.112 49.9375 646.041 49.9375 645.969C49.9375 645.897 49.9375 645.826 49.9375 645.754C49.9375 645.683 49.9375 645.612 49.9375 645.541C49.9375 645.47 49.9375 645.399 49.9375 645.329C49.9375 645.258 49.9375 645.188 49.9375 645.118C49.9375 645.047 49.9375 644.977 49.9375 644.907C49.9375 644.838 49.9375 644.768 49.9375 644.698C49.9375 644.629 49.9375 644.56 49.9375 644.491C49.9375 644.422 49.9375 644.353 49.9375 644.284C49.9375 644.215 49.9375 644.147 49.9375 644.078C49.9375 644.01 49.9375 643.942 49.9375 643.874C49.9375 643.806 49.9375 643.738 49.9375 643.67C49.9375 643.603 49.9375 643.535 49.9375 643.468C49.9375 643.401 49.9375 643.334 49.9375 643.267C49.9375 643.2 49.9375 643.133 49.9375 643.067C49.9375 643 49.9375 642.934 49.9375 642.868C49.9375 642.802 49.9375 642.736 49.9375 642.67C49.9375 642.604 49.9375 642.539 49.9375 642.473C49.9375 642.408 49.9375 642.343 49.9375 642.278C49.9375 642.213 49.9375 642.148 49.9375 642.083C49.9375 642.019 49.9375 641.954 49.9375 641.89C49.9375 641.826 49.9375 641.762 49.9375 641.698C49.9375 641.634 49.9375 641.57 49.9375 641.507C49.9375 641.444 49.9375 641.38 49.9375 641.317C49.9375 641.254 49.9375 641.191 49.9375 641.129C49.9375 641.066 49.9375 641.003 49.9375 640.941C49.9375 640.879 49.9375 640.817 49.9375 640.755C49.9375 640.693 49.9375 640.631 49.9375 640.57C49.9375 640.508 49.9375 640.447 49.9375 640.385C49.9375 640.324 49.9375 640.263 49.9375 640.203C49.9375 640.142 49.9375 640.081 49.9375 640.021C49.9375 639.961 49.9375 639.901 49.9375 639.841C49.9375 639.781 49.9375 639.721 49.9375 639.661C49.9375 639.602 49.9375 639.542 49.9375 639.483C49.9375 639.424 49.9375 639.365 49.9375 639.306C49.9375 639.247 49.9375 639.189 49.9375 639.13C49.9375 639.072 49.9375 639.014 49.9375 638.956C49.9375 638.898 49.9375 638.84 49.9375 638.782C49.9375 638.725 49.9375 638.667 49.9375 638.61C49.9375 638.553 49.9375 638.496 49.9375 638.439C49.9375 638.383 49.9375 638.326 49.9375 638.27C49.9375 638.213 49.9375 638.157 49.9375 638.101C49.9375 638.045 49.9375 637.989 49.9375 637.934C49.9375 637.878 49.9375 637.823 49.9375 637.767C49.9375 637.712 49.9375 637.657 49.9375 637.603C49.9375 637.548 49.9375 637.493 49.9375 637.439C49.9375 637.384 49.9375 637.33 49.9375 637.276C49.9375 637.222 49.9375 637.169 49.9375 637.115C49.9375 637.061 49.9375 637.008 49.9375 636.955C49.9375 636.902 49.9375 636.849 49.9375 636.796C49.9375 636.743 49.9375 636.691 49.9375 636.639C49.9375 636.586 49.9375 636.534 49.9375 636.482C49.9375 636.43 49.9375 636.379 49.9375 636.327C49.9375 636.276 49.9375 636.224 49.9375 636.173C49.9375 636.122 49.9375 636.071 49.9375 636.021C49.9375 635.97 49.9375 635.919 49.9375 635.869C49.9375 635.819 49.9375 635.769 49.9375 635.719C49.9375 635.669 49.9375 635.62 49.9375 635.57C49.9375 635.521 49.9375 635.472 49.9375 635.423C49.9375 635.374 49.9375 635.325 49.9375 635.276C49.9375 635.228 49.9375 635.179 49.9375 635.131C49.9375 635.083 49.9375 635.035 49.9375 634.987C49.9375 634.94 49.9375 634.892 49.9375 634.845C49.9375 634.797 49.9375 634.75 49.9375 634.703C49.9375 634.656 49.9375 634.61 49.9375 634.563C49.9375 634.517 49.9375 634.471 49.9375 634.425C49.9375 634.379 49.9375 634.333 49.9375 634.287C49.9375 634.242 49.9375 634.196 49.9375 634.151C49.9375 634.106 49.9375 634.061 49.9375 634.016C49.9375 633.971 49.9375 633.927 49.9375 633.882C49.9375 633.838 49.9375 633.794 49.9375 633.75C49.9375 633.706 49.9375 633.663 49.9375 633.619C49.9375 633.576 49.9375 633.532 49.9375 633.489C49.9375 633.446 49.9375 633.404 49.9375 633.361C49.9375 633.318 49.9375 633.276 49.9375 633.234C49.9375 633.192 49.9375 633.15 49.9375 633.108C49.9375 633.066 49.9375 633.025 49.9375 632.983C49.9375 632.942 49.9375 632.901 49.9375 632.86C49.9375 632.819 49.9375 632.779 49.9375 632.738C49.9375 632.698 49.9375 632.658 49.9375 632.618C49.9375 632.578 49.9375 632.538 49.9375 632.499C49.9375 632.459 49.9375 632.42 49.9375 632.381C49.9375 632.342 49.9375 632.303 49.9375 632.264C49.9375 632.225 49.9375 632.187 49.9375 632.149C49.9375 632.111 49.9375 632.073 49.9375 632.035C49.9375 631.997 49.9375 631.96 49.9375 631.922C49.9375 631.885 49.9375 631.848 49.9375 631.811C49.9375 631.774 49.9375 631.737 49.9375 631.701C49.9375 631.665 49.9375 631.628 49.9375 631.593C49.9375 631.557 49.9375 631.521 49.9375 631.485C49.9375 631.45 49.9375 631.414 49.9375 631.379C49.9375 631.344 49.9375 631.31 49.9375 631.275C49.9375 631.24 49.9375 631.206 49.9375 631.172C49.9375 631.138 49.9375 631.104 49.9375 631.07C49.9375 631.036 49.9375 631.003 49.9375 630.97C49.9375 630.936 49.9375 630.903 49.9375 630.87C49.9375 630.838 49.9375 630.805 49.9375 630.773C49.9375 630.74 49.9375 630.708 49.9375 630.676C49.9375 630.645 49.9375 630.613 49.9375 630.581C49.9375 630.55 49.9375 630.519 49.9375 630.488C49.9375 630.457 49.9375 630.426 49.9375 630.396C49.9375 630.365 49.9375 630.335 49.9375 630.305C49.9375 630.275 49.9375 630.245 49.9375 630.215C49.9375 630.186 49.9375 630.157 49.9375 630.127C49.9375 630.098 49.9375 630.069 49.9375 630.041C49.9375 630.012 49.9375 629.984 49.9375 629.956C49.9375 629.927 49.9375 629.899 49.9375 629.872C49.9375 629.844 49.9375 629.816 49.9375 629.789C49.9375 629.762 49.9375 629.735 49.9375 629.708C49.9375 629.681 49.9375 629.655 49.9375 629.629C49.9375 629.602 49.9375 629.576 49.9375 629.55C49.9375 629.524 49.9375 629.499 49.9375 629.474C49.9375 629.448 49.9375 629.423 49.9375 629.398C49.9375 629.373 49.9375 629.349 49.9375 629.324C49.9375 629.3 49.9375 629.276 49.9375 629.252C49.9375 629.228 49.9375 629.204 49.9375 629.18C49.9375 629.157 49.9375 629.134 49.9375 629.111C49.9375 629.088 49.9375 629.065 49.9375 629.042C49.9375 629.02 49.9375 628.998 49.9375 628.976C49.9375 628.954 49.9375 628.932 49.9375 628.91C49.9375 628.889 49.9375 628.867 49.9375 628.846C49.9375 628.825 49.9375 628.804 49.9375 628.784C49.9375 628.763 49.9375 628.743 49.9375 628.723C49.9375 628.703 49.9375 628.683 49.9375 628.663C49.9375 628.643 49.9375 628.624 49.9375 628.605C49.9375 628.586 49.9375 628.567 49.9375 628.548C49.9375 628.53 49.9375 628.511 49.9375 628.493C49.9375 628.475 49.9375 628.457 49.9375 628.439C49.9375 628.422 49.9375 628.404 49.9375 628.387C49.9375 628.37 49.9375 628.353 49.9375 628.336C49.9375 628.319 49.9375 628.303 49.9375 628.287C49.9375 628.27 49.9375 628.254 49.9375 628.239C49.9375 628.223 49.9375 628.207 49.9375 628.192C49.9375 628.177 49.9375 628.162 49.9375 628.147C49.9375 628.133 49.9375 628.118 49.9375 628.104C49.9375 628.09 49.9375 628.076 49.9375 628.062C49.9375 628.048 49.9375 628.035 49.9375 628.021C49.9375 628.008 49.9375 627.995 49.9375 627.982C49.9375 627.97 49.9375 627.957 49.9375 627.945C49.9375 627.932 49.9375 627.92 49.9375 627.909C49.9375 627.897 49.9375 627.885 49.9375 627.874C49.9375 627.863 49.9375 627.852 49.9375 627.841C49.9375 627.83 49.9375 627.82 49.9375 627.81C49.9375 627.799 49.9375 627.789 49.9375 627.78C49.9375 627.77 49.9375 627.76 49.9375 627.751C49.9375 627.742 49.9375 627.733 49.9375 627.724C49.9375 627.715 49.9375 627.707 49.9375 627.699C49.9375 627.69 49.9375 627.682 49.9375 627.675C49.9375 627.667 49.9375 627.66 49.9375 627.652C49.9375 627.645 49.9375 627.638 49.9375 627.631C49.9375 627.625 49.9375 627.618 49.9375 627.612C49.9375 627.606 49.9375 627.6 49.9375 627.594C49.9375 627.589 49.9375 627.583 49.9375 627.578C49.9375 627.573 49.9375 627.568 49.9375 627.563C49.9375 627.558 49.9375 627.554 49.9375 627.55C49.9375 627.546 49.9375 627.542 49.9375 627.538C49.9375 627.535 49.9375 627.531 49.9375 627.528C49.9375 627.525 49.9375 627.522 49.9375 627.52C49.9375 627.517 49.9375 627.515 49.9375 627.513C49.9375 627.51 49.9375 627.509 49.9375 627.507C49.9375 627.505 49.9375 627.504 49.9375 627.503C49.9375 627.502 49.9375 627.501 49.9375 627.501C49.9375 627.5 49.9375 627.5 48.9375 627.5Z" fill="#E957DD"/>
<path d="M48.0792 768L31 785.079L48.0792 802.158L65.1583 785.079L48.0792 768Z" fill="#69E4FF"/>
<path d="M48.0792 -1.195e-05L31 17.0792L48.0792 34.1583L65.1583 17.0792L48.0792 -1.195e-05Z" fill="#69E4FF"/>
</svg>
