<svg width="261" height="234" viewBox="0 0 261 234" fill="none" xmlns="http://www.w3.org/2000/svg">
<path d="M246 0.325195C246 0.422497 246.118 0.471226 246.187 0.402423C246.23 0.359771 246.299 0.359771 246.341 0.402423L259.926 13.9873C259.934 13.9954 259.945 14 259.957 14C259.981 14 260 14.0195 260 14.0435C260 14.055 260.005 14.0661 260.013 14.0743L260.087 14.1482C260.203 14.2637 260.203 14.4511 260.087 14.5667C260.032 14.6221 260 14.6974 260 14.7759V232C260 233.105 259.105 234 258 234H62.1892C62.085 234 62.0005 233.916 62.0005 233.811C62.0005 233.707 61.9162 233.623 61.8122 233.623L1.99652 233.504C0.893504 233.502 0.000488281 232.607 0.000488281 231.504V25.2527C0.000488281 25.1131 0.113642 25 0.253224 25C0.320253 25 0.384538 24.9734 0.431935 24.926L10.9265 14.4314C10.9739 14.384 11.0005 14.3198 11.0005 14.2527C11.0005 14.1132 11.1136 14 11.2532 14H34.5295C35.0599 14 35.5686 13.7893 35.9437 13.4142L48.9265 0.431446C48.9739 0.384049 49.0005 0.319765 49.0005 0.252735C49.0005 0.113154 49.1136 0 49.2532 0H245.828C245.923 0 246 0.0772198 246 0.172475V0.325195Z" fill="white"/>
</svg>
