<svg width="173" height="73" viewBox="0 0 173 73" fill="none" xmlns="http://www.w3.org/2000/svg">
<mask id="path-1-inside-1_717_1059" fill="white">
<path d="M98.1152 2.85156H138.575L142.91 0H162.462L172.688 9.60938V52.9248L152.131 72.2441H68.0596L63.7246 69.3926H23.2646L18.9297 72.2441H2.83105L0 69.583V18.2559L19.4268 0H93.7812L98.1152 2.85156Z"/>
</mask>
<path d="M98.1152 2.85156L97.0159 4.52235L97.5163 4.85156H98.1152V2.85156ZM138.575 2.85156V4.85156H139.174L139.674 4.52246L138.575 2.85156ZM142.91 0V-2H142.311L141.811 -1.6709L142.91 0ZM162.462 0L163.832 -1.45745L163.254 -2H162.462V0ZM172.688 9.60938H174.688V8.74432L174.057 8.15193L172.688 9.60938ZM172.688 52.9248L174.057 54.3822L174.688 53.7898V52.9248H172.688ZM152.131 72.2441V74.2441H152.923L153.501 73.7015L152.131 72.2441ZM68.0596 72.2441L66.9604 73.915L67.4607 74.2441H68.0596V72.2441ZM63.7246 69.3926L64.8237 67.7217L64.3234 67.3926H63.7246V69.3926ZM23.2646 69.3926V67.3926H22.6658L22.1655 67.7217L23.2646 69.3926ZM18.9297 72.2441V74.2441H19.5285L20.0288 73.915L18.9297 72.2441ZM2.83105 72.2441L1.46125 73.7014L2.03864 74.2441H2.83105V72.2441ZM0 69.583H-2V70.4479L-1.3698 71.0403L0 69.583ZM0 18.2559L-1.36961 16.7984L-2 17.3908V18.2559H0ZM19.4268 0V-2H18.6345L18.0571 -1.45745L19.4268 0ZM93.7812 0L94.8806 -1.67079L94.3802 -2H93.7812V0ZM98.1152 2.85156V4.85156H138.575V2.85156V0.851562H98.1152V2.85156ZM138.575 2.85156L139.674 4.52246L144.009 1.6709L142.91 0L141.811 -1.6709L137.476 1.18066L138.575 2.85156ZM142.91 0V2H162.462V0V-2H142.91V0ZM162.462 0L161.092 1.45745L171.318 11.0668L172.688 9.60938L174.057 8.15193L163.832 -1.45745L162.462 0ZM172.688 9.60938H170.688V52.9248H172.688H174.688V9.60938H172.688ZM172.688 52.9248L171.318 51.4674L150.761 70.7867L152.131 72.2441L153.501 73.7015L174.057 54.3822L172.688 52.9248ZM152.131 72.2441V70.2441H68.0596V72.2441V74.2441H152.131V72.2441ZM68.0596 72.2441L69.1587 70.5732L64.8237 67.7217L63.7246 69.3926L62.6255 71.0635L66.9604 73.915L68.0596 72.2441ZM63.7246 69.3926V67.3926H23.2646V69.3926V71.3926H63.7246V69.3926ZM23.2646 69.3926L22.1655 67.7217L17.8306 70.5732L18.9297 72.2441L20.0288 73.915L24.3638 71.0635L23.2646 69.3926ZM18.9297 72.2441V70.2441H2.83105V72.2441V74.2441H18.9297V72.2441ZM2.83105 72.2441L4.20086 70.7869L1.3698 68.1257L0 69.583L-1.3698 71.0403L1.46125 73.7014L2.83105 72.2441ZM0 69.583H2V18.2559H0H-2V69.583H0ZM0 18.2559L1.36961 19.7133L20.7964 1.45745L19.4268 0L18.0571 -1.45745L-1.36961 16.7984L0 18.2559ZM19.4268 0V2H93.7812V0V-2H19.4268V0ZM93.7812 0L92.6819 1.67079L97.0159 4.52235L98.1152 2.85156L99.2145 1.18077L94.8806 -1.67079L93.7812 0Z" fill="#E957DD" fill-opacity="0.5" mask="url(#path-1-inside-1_717_1059)"/>
</svg>
