<svg width="1221" height="135" viewBox="0 0 1221 135" fill="none" xmlns="http://www.w3.org/2000/svg">
<g filter="url(#filter0_d_886_1221)">
<mask id="path-1-inside-1_886_1221" fill="white">
<path d="M1129.2 52.1025H864.564L784.889 99.8633H746.953L706.848 126.999H512.271L472.166 99.8633H434.283L354.607 52.1025H89.5312L4 0.831055V0H1216.11L1129.2 52.1025Z"/>
</mask>
<path d="M1129.2 52.1025V53.7325H1129.65L1130.03 53.5006L1129.2 52.1025ZM864.564 52.1025V50.4725H864.113L863.726 50.7045L864.564 52.1025ZM784.889 99.8633V101.493H785.34L785.727 101.261L784.889 99.8633ZM746.953 99.8633V98.2333H746.453L746.04 98.5133L746.953 99.8633ZM706.848 126.999V128.629H707.347L707.761 128.349L706.848 126.999ZM512.271 126.999L511.358 128.349L511.772 128.629H512.271V126.999ZM472.166 99.8633L473.079 98.5133L472.666 98.2333H472.166V99.8633ZM434.283 99.8633L433.445 101.261L433.832 101.493H434.283V99.8633ZM354.607 52.1025L355.445 50.7045L355.059 50.4725H354.607V52.1025ZM89.5312 52.1025L88.6932 53.5006L89.0801 53.7325H89.5312V52.1025ZM4 0.831055H2.37V1.75438L3.16194 2.22911L4 0.831055ZM4 0V-1.63H2.37V0H4ZM1216.11 0L1216.95 1.39806L1222 -1.63H1216.11V0ZM1129.2 52.1025V50.4725H864.564V52.1025V53.7325H1129.2V52.1025ZM864.564 52.1025L863.726 50.7045L784.051 98.4652L784.889 99.8633L785.727 101.261L865.403 53.5006L864.564 52.1025ZM784.889 99.8633V98.2333H746.953V99.8633V101.493H784.889V99.8633ZM746.953 99.8633L746.04 98.5133L705.934 125.649L706.848 126.999L707.761 128.349L747.867 101.213L746.953 99.8633ZM706.848 126.999V125.369H512.271V126.999V128.629H706.848V126.999ZM512.271 126.999L513.185 125.649L473.079 98.5133L472.166 99.8633L471.253 101.213L511.358 128.349L512.271 126.999ZM472.166 99.8633V98.2333H434.283V99.8633V101.493H472.166V99.8633ZM434.283 99.8633L435.121 98.4652L355.445 50.7045L354.607 52.1025L353.769 53.5006L433.445 101.261L434.283 99.8633ZM354.607 52.1025V50.4725H89.5312V52.1025V53.7325H354.607V52.1025ZM89.5312 52.1025L90.3693 50.7045L4.83806 -0.566999L4 0.831055L3.16194 2.22911L88.6932 53.5006L89.5312 52.1025ZM4 0.831055H5.63V0H4H2.37V0.831055H4ZM4 0V1.63H1216.11V0V-1.63H4V0ZM1216.11 0L1215.28 -1.39806L1128.36 50.7045L1129.2 52.1025L1130.03 53.5006L1216.95 1.39806L1216.11 0Z" fill="#E957DD" fill-opacity="0.54" mask="url(#path-1-inside-1_886_1221)"/>
</g>
<defs>
<filter id="filter0_d_886_1221" x="0" y="0" width="1220.11" height="134.999" filterUnits="userSpaceOnUse" color-interpolation-filters="sRGB">
<feFlood flood-opacity="0" result="BackgroundImageFix"/>
<feColorMatrix in="SourceAlpha" type="matrix" values="0 0 0 0 0 0 0 0 0 0 0 0 0 0 0 0 0 0 127 0" result="hardAlpha"/>
<feOffset dy="4"/>
<feGaussianBlur stdDeviation="2"/>
<feComposite in2="hardAlpha" operator="out"/>
<feColorMatrix type="matrix" values="0 0 0 0 0 0 0 0 0 0 0 0 0 0 0 0 0 0 0.25 0"/>
<feBlend mode="normal" in2="BackgroundImageFix" result="effect1_dropShadow_886_1221"/>
<feBlend mode="normal" in="SourceGraphic" in2="effect1_dropShadow_886_1221" result="shape"/>
</filter>
</defs>
</svg>
