<svg width="1321" height="143" viewBox="0 0 1321 143" fill="none" xmlns="http://www.w3.org/2000/svg">
<g filter="url(#filter0_d_886_1249)">
<mask id="path-1-inside-1_886_1249" fill="white">
<path d="M1222.85 55.3848H936.192L849.884 106.154H808.791L765.346 135H554.576L511.131 106.154H470.096L383.788 55.3848H96.6504L4 0.882812V0H1317L1222.85 55.3848Z"/>
</mask>
<path d="M1222.85 55.3848H936.192L849.884 106.154H808.791L765.346 135H554.576L511.131 106.154H470.096L383.788 55.3848H96.6504L4 0.882812V0H1317L1222.85 55.3848Z" fill="white" fill-opacity="0.18" shape-rendering="crispEdges"/>
<path d="M1222.85 55.3848V56.3848H1223.12L1223.35 56.2467L1222.85 55.3848ZM936.192 55.3848V54.3848H935.92L935.685 54.5228L936.192 55.3848ZM849.884 106.154V107.154H850.156L850.391 107.016L849.884 106.154ZM808.791 106.154V105.154H808.489L808.238 105.321L808.791 106.154ZM765.346 135V136H765.647L765.899 135.833L765.346 135ZM554.576 135L554.023 135.833L554.274 136H554.576V135ZM511.131 106.154L511.684 105.321L511.433 105.154H511.131V106.154ZM470.096 106.154L469.589 107.016L469.823 107.154H470.096V106.154ZM383.788 55.3848L384.295 54.5228L384.06 54.3848H383.788V55.3848ZM96.6504 55.3848L96.1434 56.2467L96.3781 56.3848H96.6504V55.3848ZM4 0.882812H3V1.45475L3.49297 1.74474L4 0.882812ZM4 0V-1H3V0H4ZM1317 0L1317.51 0.86193L1320.67 -1H1317V0ZM1222.85 55.3848V54.3848H936.192V55.3848V56.3848H1222.85V55.3848ZM936.192 55.3848L935.685 54.5228L849.377 105.292L849.884 106.154L850.391 107.016L936.699 56.2467L936.192 55.3848ZM849.884 106.154V105.154H808.791V106.154V107.154H849.884V106.154ZM808.791 106.154L808.238 105.321L764.793 134.167L765.346 135L765.899 135.833L809.344 106.987L808.791 106.154ZM765.346 135V134H554.576V135V136H765.346V135ZM554.576 135L555.129 134.167L511.684 105.321L511.131 106.154L510.578 106.987L554.023 135.833L554.576 135ZM511.131 106.154V105.154H470.096V106.154V107.154H511.131V106.154ZM470.096 106.154L470.603 105.292L384.295 54.5228L383.788 55.3848L383.281 56.2467L469.589 107.016L470.096 106.154ZM383.788 55.3848V54.3848H96.6504V55.3848V56.3848H383.788V55.3848ZM96.6504 55.3848L97.1574 54.5228L4.50703 0.0208853L4 0.882812L3.49297 1.74474L96.1434 56.2467L96.6504 55.3848ZM4 0.882812H5V0H4H3V0.882812H4ZM4 0V1H1317V0V-1H4V0ZM1317 0L1316.49 -0.86193L1222.34 54.5228L1222.85 55.3848L1223.35 56.2467L1317.51 0.86193L1317 0Z" fill="white" fill-opacity="0.43" mask="url(#path-1-inside-1_886_1249)"/>
</g>
<defs>
<filter id="filter0_d_886_1249" x="0" y="0" width="1321" height="143" filterUnits="userSpaceOnUse" color-interpolation-filters="sRGB">
<feFlood flood-opacity="0" result="BackgroundImageFix"/>
<feColorMatrix in="SourceAlpha" type="matrix" values="0 0 0 0 0 0 0 0 0 0 0 0 0 0 0 0 0 0 127 0" result="hardAlpha"/>
<feOffset dy="4"/>
<feGaussianBlur stdDeviation="2"/>
<feComposite in2="hardAlpha" operator="out"/>
<feColorMatrix type="matrix" values="0 0 0 0 0 0 0 0 0 0 0 0 0 0 0 0 0 0 0.25 0"/>
<feBlend mode="normal" in2="BackgroundImageFix" result="effect1_dropShadow_886_1249"/>
<feBlend mode="normal" in="SourceGraphic" in2="effect1_dropShadow_886_1249" result="shape"/>
</filter>
</defs>
</svg>
